<svg width="450" height="1000" viewBox="0 0 450 1000" fill="none" xmlns="http://www.w3.org/2000/svg">
<rect width="450" height="1000" fill="#FFDDF8"/>
<g clip-path="url(#clip0_714_2133)">
<rect width="422" height="545" transform="translate(14 110)" fill="#FFDDF8"/>
<path d="M418.939 425.86C420.246 418.765 422.391 411.885 425.319 405.39C433.319 387.536 439.069 371.916 433.979 351.98C421.509 303.29 370.789 297.6 345.769 260.878C307.089 204.133 212.049 199.206 166.649 248.245C152.729 263.276 146.209 284.509 132.139 299.377C111.409 321.297 80.6295 324.12 59.3395 345.974C24.6295 381.628 21.2595 442.047 52.0695 482.137C84.6095 524.473 130.539 517.529 175.149 508.526C197.099 504.101 219.919 499.305 242.289 502.705C289.999 510.03 346.609 538.599 392.849 510.161C417.479 495.01 418.109 471.379 417.539 443.813C417.4 437.791 417.87 431.77 418.939 425.86Z" fill="#D842F3"/>
<path opacity="0.6" d="M418.939 425.86C420.246 418.765 422.391 411.885 425.319 405.39C433.319 387.536 439.069 371.916 433.979 351.98C421.509 303.29 370.789 297.6 345.769 260.878C307.089 204.133 212.049 199.206 166.649 248.245C152.729 263.276 146.209 284.509 132.139 299.377C111.409 321.297 80.6295 324.12 59.3395 345.974C24.6295 381.628 21.2595 442.047 52.0695 482.137C84.6095 524.473 130.539 517.529 175.149 508.526C197.099 504.101 219.919 499.305 242.289 502.705C289.999 510.03 346.609 538.599 392.849 510.161C417.479 495.01 418.109 471.379 417.539 443.813C417.4 437.791 417.87 431.77 418.939 425.86Z" fill="white"/>
<path d="M224.5 574.34C330.263 574.34 416 554.576 416 530.195C416 505.814 330.263 486.05 224.5 486.05C118.737 486.05 33 505.814 33 530.195C33 554.576 118.737 574.34 224.5 574.34Z" fill="#D842F3"/>
<path opacity="0.3" d="M224.5 574.34C330.263 574.34 416 554.576 416 530.195C416 505.814 330.263 486.05 224.5 486.05C118.737 486.05 33 505.814 33 530.195C33 554.576 118.737 574.34 224.5 574.34Z" fill="white"/>
<path d="M6.0499 234.412C5.8166 233.493 5.76344 232.53 5.89388 231.586C6.02431 230.643 6.33542 229.74 6.80698 228.936C7.27855 228.132 7.90002 227.445 8.631 226.92C9.36199 226.395 10.1861 226.044 11.0499 225.889C16.2799 225.115 22.6999 232.767 24.7399 237.399C24.9099 237.802 26.9999 244.408 26.8999 244.408C26.7999 244.408 17.6299 244.637 13.8999 242.827C10.6299 241.29 6.9199 238.358 6.0499 234.412ZM140.37 216.82C139.6 220.787 135.96 223.829 132.78 225.464C129.6 227.099 122.05 227.382 120.2 227.415C119.2 228.712 118.13 230.118 116.98 231.687C114.98 234.478 112.76 237.65 110.56 241.269C109.97 242.239 109.37 243.296 108.77 244.321C110.11 242.827 111.96 240.811 112.16 240.636C115.85 237.443 124.69 233.617 129.08 236.8C129.796 237.349 130.399 238.056 130.848 238.876C131.297 239.696 131.582 240.609 131.686 241.557C131.79 242.505 131.709 243.466 131.45 244.378C131.19 245.29 130.758 246.132 130.18 246.849C127.81 249.989 123.3 250.861 119.78 250.708C116.26 250.555 109.23 246.904 107.73 246.086C106.44 248.364 105.16 250.741 103.96 253.302C101.726 257.92 99.8749 262.746 98.4299 267.723L98.6999 267.865C99.7699 266.328 102.1 263.156 102.32 262.927C105.66 259.297 114.07 254.447 118.76 257.074C119.519 257.537 120.18 258.168 120.702 258.926C121.224 259.684 121.596 260.552 121.792 261.475C121.989 262.399 122.007 263.357 121.845 264.288C121.682 265.219 121.344 266.103 120.85 266.884C118.85 270.295 114.42 271.701 110.91 271.963C106.91 272.279 98.4999 268.835 98.1799 268.693C96.8821 273.679 95.88 278.75 95.1799 283.877C94.6399 287.67 94.2299 291.507 93.8499 295.42C94.5799 294.33 97.6399 290.155 97.8499 289.883C101.19 286.264 109.6 281.402 114.28 284.04C115.048 284.501 115.718 285.133 116.247 285.894C116.776 286.656 117.152 287.531 117.35 288.461C117.548 289.392 117.564 290.358 117.397 291.296C117.23 292.234 116.883 293.122 116.38 293.905C114.38 297.305 109.95 298.712 106.44 298.973C102.49 299.278 94.4399 296.019 93.7799 295.703C93.6099 297.469 93.4399 299.224 93.2799 301.001C92.7599 306.767 92.2799 312.565 91.6199 318.266C91.3899 320.239 91.1099 322.179 90.8299 324.119C91.9699 322.506 94.0899 319.618 94.2999 319.389C97.6399 315.77 106.05 310.909 110.74 313.546C111.5 314.009 112.162 314.639 112.685 315.397C113.208 316.155 113.58 317.023 113.777 317.947C113.974 318.871 113.991 319.829 113.828 320.761C113.665 321.693 113.325 322.577 112.83 323.356C110.83 326.757 106.4 328.163 102.89 328.436C99.3799 328.708 92.5599 326.125 90.6499 325.362C90.1599 328.632 89.6499 331.782 88.9299 334.889C88.6099 336.229 88.3699 337.614 87.9899 338.878L86.9899 342.682C86.1899 345.255 85.4599 347.642 84.6599 350.018C84.2599 351.217 83.8699 352.34 83.4699 353.506C84.3999 351.675 85.9199 348.819 86.0799 348.568C88.8799 344.437 96.5099 338.257 101.51 340.088C102.333 340.415 103.084 340.927 103.713 341.592C104.343 342.257 104.836 343.059 105.162 343.945C105.487 344.832 105.638 345.784 105.603 346.738C105.568 347.692 105.349 348.628 104.96 349.484C103.42 353.19 99.2699 355.304 95.8299 356.144C92.0499 357.081 83.9299 355.283 82.9399 355.054C81.9399 357.899 80.9399 360.645 79.9999 363.207C76.9999 371.306 74.1499 377.933 72.1199 382.543L71.7899 383.285H86.5799L81.4699 491.849C81.33 495.862 79.7662 499.66 77.1079 502.441C74.4497 505.223 70.9047 506.771 67.2199 506.76C63.5707 506.762 60.0602 505.237 57.4137 502.498C54.7672 499.759 53.1871 496.017 52.9999 492.045L47.8899 383.481H63.7699C63.6899 382.729 63.6099 381.933 63.5199 381.039C62.9899 376.025 62.1299 368.853 60.7499 360.329C60.3599 357.866 59.9099 355.261 59.4099 352.59C58.4099 352.732 50.1899 353.866 46.4799 352.59C43.1199 351.5 39.1199 349.015 37.8399 345.2C37.5118 344.315 37.3583 343.365 37.3894 342.411C37.4205 341.457 37.6354 340.521 38.0203 339.663C38.4051 338.806 38.9512 338.046 39.6231 337.434C40.2949 336.822 41.0775 336.37 41.9199 336.109C47.0299 334.682 54.2199 341.483 56.7299 345.821C56.8899 346.105 58.4399 349.625 59.1999 351.446C58.8999 349.833 58.6099 348.23 58.2699 346.552C57.7899 344.143 57.2699 341.614 56.6799 339.151C56.3599 337.886 56.0299 336.611 55.6799 335.325C55.3299 334.038 54.9299 332.818 54.5599 331.531C53.9799 329.678 53.2899 327.793 52.5599 325.907C50.3399 326.583 43.7799 328.425 40.4099 327.891C37.0399 327.357 32.6299 325.58 30.8399 322.027C30.3912 321.206 30.1063 320.291 30.0037 319.342C29.9012 318.393 29.9832 317.431 30.2446 316.518C30.5059 315.606 30.9407 314.764 31.5205 314.047C32.1004 313.331 32.8123 312.755 33.6099 312.358C38.4599 310.102 46.5099 315.628 49.6099 319.52C49.7099 319.64 50.2899 320.533 50.9599 321.602C50.2399 319.792 49.5299 317.972 48.7499 316.152C46.5299 311.007 44.1199 305.829 41.7499 300.641C41.2499 299.551 40.7499 298.461 40.2699 297.371C38.3999 297.949 31.2699 300.02 27.7799 299.464C24.2899 298.908 19.9999 297.153 18.2099 293.589C17.7687 292.768 17.4904 291.855 17.3928 290.91C17.2953 289.965 17.3808 289.008 17.6437 288.101C17.9066 287.194 18.3412 286.357 18.9193 285.644C19.4974 284.932 20.2062 284.359 20.9999 283.964C25.8499 281.718 33.8999 287.234 36.9999 291.136C37.1099 291.267 37.7999 292.335 38.5499 293.545C37.2899 290.7 36.0599 287.855 34.9199 284.978C32.9512 280.067 31.2809 275.02 29.9199 269.87C29.2699 270.077 20.9999 272.693 17.0699 272.05C13.5899 271.505 9.2999 269.739 7.5099 266.186C7.06091 265.366 6.77549 264.451 6.67221 263.503C6.56894 262.554 6.65014 261.593 6.91052 260.68C7.17089 259.768 7.60461 258.926 8.18342 258.209C8.76223 257.492 9.47316 256.915 10.2699 256.518C15.1299 254.272 23.1799 259.788 26.2699 263.679C26.4899 263.962 28.9299 267.843 29.7599 269.271C29.7555 269.209 29.7555 269.147 29.7599 269.085C28.5368 263.989 27.7336 258.783 27.3599 253.531C26.9923 248.845 26.8721 244.139 26.9999 239.437C27.0999 235.077 27.4299 231.088 27.7499 227.567C27.9399 225.66 28.1399 223.916 28.3499 222.292L28.2599 222.357C28.1699 222.422 26.4099 215.708 26.3399 215.272C25.5599 210.204 26.7999 199.925 31.4799 197.276C32.2697 196.861 33.1308 196.632 34.0071 196.604C34.8835 196.575 35.7555 196.748 36.5666 197.111C37.3777 197.474 38.1096 198.019 38.7149 198.71C39.3202 199.401 39.7853 200.224 40.0799 201.124C41.4399 204.906 39.9399 209.626 38.0799 212.907C36.2199 216.188 30.0799 220.951 28.5799 222.095C28.3999 223.785 28.2199 225.594 28.0599 227.545C27.8099 231.066 27.5599 235.045 27.5499 239.394C27.5499 240.56 27.5499 241.803 27.5999 243.013C27.9599 240.963 28.4899 238.173 28.5999 237.9C30.0499 233.017 35.4899 224.515 40.7699 224.526C41.6457 224.554 42.5063 224.782 43.2958 225.197C44.0852 225.611 44.7857 226.202 45.3517 226.931C45.9177 227.66 46.3365 228.511 46.5809 229.428C46.8252 230.345 46.8896 231.308 46.7699 232.254C46.3899 236.298 43.0599 239.732 40.0499 241.726C37.0399 243.721 29.2899 244.953 27.6299 245.16C27.7099 247.841 27.8399 250.61 28.1399 253.444C28.6142 258.636 29.5111 263.772 30.8199 268.791H31.1199C31.2399 266.862 31.5799 262.818 31.6399 262.48C32.6399 257.455 37.1399 248.31 42.3899 247.732C43.2632 247.655 44.1415 247.78 44.9678 248.097C45.794 248.415 46.5496 248.919 47.1854 249.576C47.8212 250.233 48.323 251.028 48.658 251.911C48.993 252.793 49.1538 253.743 49.1299 254.697C49.1299 258.752 46.1999 262.578 43.4099 264.911C40.1899 267.603 31.4699 269.761 31.1399 269.837C32.5644 274.787 34.2847 279.63 36.2899 284.334C37.7599 287.822 39.3699 291.3 41.0199 294.766C41.0799 293.403 41.5199 288.095 41.5899 287.713C42.5899 282.689 47.0899 273.543 52.3399 272.955C53.2128 272.88 54.0905 273.005 54.916 273.324C55.7416 273.642 56.4966 274.146 57.132 274.802C57.7675 275.459 58.2692 276.254 58.6048 277.136C58.9404 278.017 59.1022 278.966 59.0799 279.92C59.0799 283.986 56.1399 287.801 53.3499 290.133C50.2099 292.76 41.8699 294.875 41.1599 295.049C41.9099 296.619 42.6599 298.199 43.4199 299.769C45.9099 304.903 48.4199 310.026 50.7799 315.171C51.5899 316.958 52.3299 318.746 53.0799 320.533C53.2099 318.495 53.5299 314.811 53.5799 314.495C54.5799 309.47 59.0899 300.325 64.3299 299.736C65.2032 299.659 66.0815 299.784 66.9078 300.101C67.734 300.419 68.4896 300.923 69.1254 301.58C69.7612 302.237 70.263 303.032 70.598 303.915C70.933 304.797 71.0938 305.747 71.0699 306.701C71.0699 310.767 68.1399 314.582 65.3499 316.915C62.5599 319.247 55.5599 321.198 53.5899 321.721C54.8199 324.73 55.9999 327.673 56.9999 330.681C57.4099 331.989 57.8999 333.286 58.2299 334.562L59.2899 338.366C59.9199 340.993 60.5199 343.423 61.0599 345.887C61.3399 347.129 61.5699 348.307 61.8299 349.506C61.6799 347.435 61.4999 344.132 61.5099 343.827C61.7599 338.704 64.9899 328.948 70.0899 327.477C70.9427 327.256 71.8286 327.235 72.6897 327.413C73.5508 327.59 74.3679 327.964 75.0877 328.509C75.8076 329.054 76.414 329.758 76.8675 330.576C77.321 331.393 77.6115 332.306 77.7199 333.254C77.7903 333.751 77.8204 334.255 77.8099 334.758C79.8634 338.678 80.9616 343.106 80.9999 347.62C80.9999 347.947 80.5099 351.816 80.2199 353.789C80.7899 352.263 81.3499 350.748 81.9099 349.157C82.7399 346.857 83.5399 344.404 84.3399 342.028L85.4599 338.246C85.8599 336.971 86.0999 335.706 86.4599 334.409C86.9199 332.512 87.2999 330.518 87.6799 328.545C85.4899 327.76 79.0799 325.362 76.5399 322.888C73.9999 320.413 71.2299 316.282 71.5399 312.238C71.5828 311.285 71.8091 310.352 72.2042 309.5C72.5992 308.647 73.1542 307.895 73.8331 307.292C74.512 306.689 75.2996 306.248 76.1449 305.998C76.9902 305.748 77.8743 305.694 78.7399 305.84C83.9299 306.93 87.8499 316.337 88.4499 321.427C88.4499 321.591 88.4999 322.681 88.5199 323.978C88.8399 322.038 89.1699 320.086 89.4299 318.103C90.1899 312.478 90.7899 306.712 91.4299 300.946C91.5599 299.736 91.7099 298.537 91.8399 297.338C89.9899 296.695 83.0299 294.166 80.3699 291.572C77.7099 288.978 75.0599 284.967 75.3699 280.923C75.4097 279.968 75.634 279.033 76.0281 278.179C76.4222 277.325 76.9772 276.572 77.6568 275.968C78.3364 275.364 79.1253 274.923 79.972 274.675C80.8186 274.426 81.7039 274.375 82.5699 274.524C87.7599 275.614 91.6699 285.021 92.2799 290.111C92.2799 290.286 92.2799 291.594 92.3499 293.054C92.7299 289.915 93.1499 286.809 93.6599 283.724C94.4896 278.42 95.6489 273.183 97.1299 268.05C96.4699 267.832 88.2599 265.041 85.2999 262.164C82.6699 259.602 79.9799 255.558 80.2999 251.515C80.3397 250.56 80.564 249.625 80.9581 248.771C81.3522 247.917 81.9072 247.164 82.5868 246.56C83.2664 245.956 84.0553 245.515 84.902 245.266C85.7486 245.018 86.6339 244.966 87.4999 245.116C92.6799 246.206 96.5999 255.613 97.2099 260.703C97.2099 261.063 97.3199 265.772 97.2899 267.461C97.2899 267.396 97.2899 267.33 97.3399 267.276C98.9024 262.29 100.867 257.464 103.21 252.855C105.291 248.718 107.588 244.715 110.09 240.865C112.38 237.279 114.67 234.162 116.73 231.415C117.85 229.933 118.9 228.603 119.89 227.371H119.78C119.68 227.371 121.61 220.7 121.78 220.297C123.7 215.61 129.93 207.773 135.17 208.383C136.043 208.513 136.88 208.842 137.628 209.35C138.375 209.858 139.016 210.533 139.507 211.329C139.998 212.126 140.329 213.028 140.478 213.974C140.626 214.92 140.59 215.89 140.37 216.82ZM79.8799 354.814C78.9799 354.345 72.0699 350.617 69.3699 347.424C67.033 348.811 64.622 350.045 62.1499 351.119C62.7599 354.084 63.3399 356.972 63.8299 359.686C65.3899 368.275 66.3999 375.491 67.0399 380.56C67.1699 381.65 67.2899 382.598 67.3899 383.481H67.7399L68.8999 381.028C70.9899 376.527 73.8999 370.03 77.0799 362.073C77.9999 359.784 78.9399 357.343 79.8799 354.814ZM107.52 245.051C107.6 245.051 109.2 238.347 109.26 237.9C109.91 232.821 108.42 222.575 103.67 220.068C102.87 219.677 102.003 219.474 101.126 219.472C100.249 219.47 99.3811 219.669 98.5794 220.057C97.7777 220.445 97.0598 221.012 96.4724 221.722C95.885 222.432 95.4412 223.268 95.1699 224.177C93.8999 227.992 95.5199 232.668 97.4299 235.884C99.6699 239.71 107.51 245.051 107.52 245.051Z" fill="#D842F3"/>
<path opacity="0.3" d="M6.0499 234.412C5.8166 233.493 5.76344 232.53 5.89388 231.586C6.02431 230.643 6.33542 229.74 6.80698 228.936C7.27855 228.132 7.90002 227.445 8.631 226.92C9.36199 226.395 10.1861 226.044 11.0499 225.889C16.2799 225.115 22.6999 232.767 24.7399 237.399C24.9099 237.802 26.9999 244.408 26.8999 244.408C26.7999 244.408 17.6299 244.637 13.8999 242.827C10.6299 241.29 6.9199 238.358 6.0499 234.412ZM140.37 216.82C139.6 220.787 135.96 223.829 132.78 225.464C129.6 227.099 122.05 227.382 120.2 227.415C119.2 228.712 118.13 230.118 116.98 231.687C114.98 234.478 112.76 237.65 110.56 241.269C109.97 242.239 109.37 243.296 108.77 244.321C110.11 242.827 111.96 240.811 112.16 240.636C115.85 237.443 124.69 233.617 129.08 236.8C129.796 237.349 130.399 238.056 130.848 238.876C131.297 239.696 131.582 240.609 131.686 241.557C131.79 242.505 131.709 243.466 131.45 244.378C131.19 245.29 130.758 246.132 130.18 246.849C127.81 249.989 123.3 250.861 119.78 250.708C116.26 250.555 109.23 246.904 107.73 246.086C106.44 248.364 105.16 250.741 103.96 253.302C101.726 257.92 99.8749 262.746 98.4299 267.723L98.6999 267.865C99.7699 266.328 102.1 263.156 102.32 262.927C105.66 259.297 114.07 254.447 118.76 257.074C119.519 257.537 120.18 258.168 120.702 258.926C121.224 259.684 121.596 260.552 121.792 261.475C121.989 262.399 122.007 263.357 121.845 264.288C121.682 265.219 121.344 266.103 120.85 266.884C118.85 270.295 114.42 271.701 110.91 271.963C106.91 272.279 98.4999 268.835 98.1799 268.693C96.8821 273.679 95.88 278.75 95.1799 283.877C94.6399 287.67 94.2299 291.507 93.8499 295.42C94.5799 294.33 97.6399 290.155 97.8499 289.883C101.19 286.264 109.6 281.402 114.28 284.04C115.048 284.501 115.718 285.133 116.247 285.894C116.776 286.656 117.152 287.531 117.35 288.461C117.548 289.392 117.564 290.358 117.397 291.296C117.23 292.234 116.883 293.122 116.38 293.905C114.38 297.305 109.95 298.712 106.44 298.973C102.49 299.278 94.4399 296.019 93.7799 295.703C93.6099 297.469 93.4399 299.224 93.2799 301.001C92.7599 306.767 92.2799 312.565 91.6199 318.266C91.3899 320.239 91.1099 322.179 90.8299 324.119C91.9699 322.506 94.0899 319.618 94.2999 319.389C97.6399 315.77 106.05 310.909 110.74 313.546C111.5 314.009 112.162 314.639 112.685 315.397C113.208 316.155 113.58 317.023 113.777 317.947C113.974 318.871 113.991 319.829 113.828 320.761C113.665 321.693 113.325 322.577 112.83 323.356C110.83 326.757 106.4 328.163 102.89 328.436C99.3799 328.708 92.5599 326.125 90.6499 325.362C90.1599 328.632 89.6499 331.782 88.9299 334.889C88.6099 336.229 88.3699 337.614 87.9899 338.878L86.9899 342.682C86.1899 345.255 85.4599 347.642 84.6599 350.018C84.2599 351.217 83.8699 352.34 83.4699 353.506C84.3999 351.675 85.9199 348.819 86.0799 348.568C88.8799 344.437 96.5099 338.257 101.51 340.088C102.333 340.415 103.084 340.927 103.713 341.592C104.343 342.257 104.836 343.059 105.162 343.945C105.487 344.832 105.638 345.784 105.603 346.738C105.568 347.692 105.349 348.628 104.96 349.484C103.42 353.19 99.2699 355.304 95.8299 356.144C92.0499 357.081 83.9299 355.283 82.9399 355.054C81.9399 357.899 80.9399 360.645 79.9999 363.207C76.9999 371.306 74.1499 377.933 72.1199 382.543L71.7899 383.285H86.5799L81.4699 491.849C81.33 495.862 79.7662 499.66 77.1079 502.441C74.4497 505.223 70.9047 506.771 67.2199 506.76C63.5707 506.762 60.0602 505.237 57.4137 502.498C54.7672 499.759 53.1871 496.017 52.9999 492.045L47.8899 383.481H63.7699C63.6899 382.729 63.6099 381.933 63.5199 381.039C62.9899 376.025 62.1299 368.853 60.7499 360.329C60.3599 357.866 59.9099 355.261 59.4099 352.59C58.4099 352.732 50.1899 353.866 46.4799 352.59C43.1199 351.5 39.1199 349.015 37.8399 345.2C37.5118 344.315 37.3583 343.365 37.3894 342.411C37.4205 341.457 37.6354 340.521 38.0203 339.663C38.4051 338.806 38.9512 338.046 39.6231 337.434C40.2949 336.822 41.0775 336.37 41.9199 336.109C47.0299 334.682 54.2199 341.483 56.7299 345.821C56.8899 346.105 58.4399 349.625 59.1999 351.446C58.8999 349.833 58.6099 348.23 58.2699 346.552C57.7899 344.143 57.2699 341.614 56.6799 339.151C56.3599 337.886 56.0299 336.611 55.6799 335.325C55.3299 334.038 54.9299 332.818 54.5599 331.531C53.9799 329.678 53.2899 327.793 52.5599 325.907C50.3399 326.583 43.7799 328.425 40.4099 327.891C37.0399 327.357 32.6299 325.58 30.8399 322.027C30.3912 321.206 30.1063 320.291 30.0037 319.342C29.9012 318.393 29.9832 317.431 30.2446 316.518C30.5059 315.606 30.9407 314.764 31.5205 314.047C32.1004 313.331 32.8123 312.755 33.6099 312.358C38.4599 310.102 46.5099 315.628 49.6099 319.52C49.7099 319.64 50.2899 320.533 50.9599 321.602C50.2399 319.792 49.5299 317.972 48.7499 316.152C46.5299 311.007 44.1199 305.829 41.7499 300.641C41.2499 299.551 40.7499 298.461 40.2699 297.371C38.3999 297.949 31.2699 300.02 27.7799 299.464C24.2899 298.908 19.9999 297.153 18.2099 293.589C17.7687 292.768 17.4904 291.855 17.3928 290.91C17.2953 289.965 17.3808 289.008 17.6437 288.101C17.9066 287.194 18.3412 286.357 18.9193 285.644C19.4974 284.932 20.2062 284.359 20.9999 283.964C25.8499 281.718 33.8999 287.234 36.9999 291.136C37.1099 291.267 37.7999 292.335 38.5499 293.545C37.2899 290.7 36.0599 287.855 34.9199 284.978C32.9512 280.067 31.2809 275.02 29.9199 269.87C29.2699 270.077 20.9999 272.693 17.0699 272.05C13.5899 271.505 9.2999 269.739 7.5099 266.186C7.06091 265.366 6.77549 264.451 6.67221 263.503C6.56894 262.554 6.65014 261.593 6.91052 260.68C7.17089 259.768 7.60461 258.926 8.18342 258.209C8.76223 257.492 9.47316 256.915 10.2699 256.518C15.1299 254.272 23.1799 259.788 26.2699 263.679C26.4899 263.962 28.9299 267.843 29.7599 269.271C29.7555 269.209 29.7555 269.147 29.7599 269.085C28.5368 263.989 27.7336 258.783 27.3599 253.531C26.9923 248.845 26.8721 244.139 26.9999 239.437C27.0999 235.077 27.4299 231.088 27.7499 227.567C27.9399 225.66 28.1399 223.916 28.3499 222.292L28.2599 222.357C28.1699 222.422 26.4099 215.708 26.3399 215.272C25.5599 210.204 26.7999 199.925 31.4799 197.276C32.2697 196.861 33.1308 196.632 34.0071 196.604C34.8835 196.575 35.7555 196.748 36.5666 197.111C37.3777 197.474 38.1096 198.019 38.7149 198.71C39.3202 199.401 39.7853 200.224 40.0799 201.124C41.4399 204.906 39.9399 209.626 38.0799 212.907C36.2199 216.188 30.0799 220.951 28.5799 222.095C28.3999 223.785 28.2199 225.594 28.0599 227.545C27.8099 231.066 27.5599 235.045 27.5499 239.394C27.5499 240.56 27.5499 241.803 27.5999 243.013C27.9599 240.963 28.4899 238.173 28.5999 237.9C30.0499 233.017 35.4899 224.515 40.7699 224.526C41.6457 224.554 42.5063 224.782 43.2958 225.197C44.0852 225.611 44.7857 226.202 45.3517 226.931C45.9177 227.66 46.3365 228.511 46.5809 229.428C46.8252 230.345 46.8896 231.308 46.7699 232.254C46.3899 236.298 43.0599 239.732 40.0499 241.726C37.0399 243.721 29.2899 244.953 27.6299 245.16C27.7099 247.841 27.8399 250.61 28.1399 253.444C28.6142 258.636 29.5111 263.772 30.8199 268.791H31.1199C31.2399 266.862 31.5799 262.818 31.6399 262.48C32.6399 257.455 37.1399 248.31 42.3899 247.732C43.2632 247.655 44.1415 247.78 44.9678 248.097C45.794 248.415 46.5496 248.919 47.1854 249.576C47.8212 250.233 48.323 251.028 48.658 251.911C48.993 252.793 49.1538 253.743 49.1299 254.697C49.1299 258.752 46.1999 262.578 43.4099 264.911C40.1899 267.603 31.4699 269.761 31.1399 269.837C32.5644 274.787 34.2847 279.63 36.2899 284.334C37.7599 287.822 39.3699 291.3 41.0199 294.766C41.0799 293.403 41.5199 288.095 41.5899 287.713C42.5899 282.689 47.0899 273.543 52.3399 272.955C53.2128 272.88 54.0905 273.005 54.916 273.324C55.7416 273.642 56.4966 274.146 57.132 274.802C57.7675 275.459 58.2692 276.254 58.6048 277.136C58.9404 278.017 59.1022 278.966 59.0799 279.92C59.0799 283.986 56.1399 287.801 53.3499 290.133C50.2099 292.76 41.8699 294.875 41.1599 295.049C41.9099 296.619 42.6599 298.199 43.4199 299.769C45.9099 304.903 48.4199 310.026 50.7799 315.171C51.5899 316.958 52.3299 318.746 53.0799 320.533C53.2099 318.495 53.5299 314.811 53.5799 314.495C54.5799 309.47 59.0899 300.325 64.3299 299.736C65.2032 299.659 66.0815 299.784 66.9078 300.101C67.734 300.419 68.4896 300.923 69.1254 301.58C69.7612 302.237 70.263 303.032 70.598 303.915C70.933 304.797 71.0938 305.747 71.0699 306.701C71.0699 310.767 68.1399 314.582 65.3499 316.915C62.5599 319.247 55.5599 321.198 53.5899 321.721C54.8199 324.73 55.9999 327.673 56.9999 330.681C57.4099 331.989 57.8999 333.286 58.2299 334.562L59.2899 338.366C59.9199 340.993 60.5199 343.423 61.0599 345.887C61.3399 347.129 61.5699 348.307 61.8299 349.506C61.6799 347.435 61.4999 344.132 61.5099 343.827C61.7599 338.704 64.9899 328.948 70.0899 327.477C70.9427 327.256 71.8286 327.235 72.6897 327.413C73.5508 327.59 74.3679 327.964 75.0877 328.509C75.8076 329.054 76.414 329.758 76.8675 330.576C77.321 331.393 77.6115 332.306 77.7199 333.254C77.7903 333.751 77.8204 334.255 77.8099 334.758C79.8634 338.678 80.9616 343.106 80.9999 347.62C80.9999 347.947 80.5099 351.816 80.2199 353.789C80.7899 352.263 81.3499 350.748 81.9099 349.157C82.7399 346.857 83.5399 344.404 84.3399 342.028L85.4599 338.246C85.8599 336.971 86.0999 335.706 86.4599 334.409C86.9199 332.512 87.2999 330.518 87.6799 328.545C85.4899 327.76 79.0799 325.362 76.5399 322.888C73.9999 320.413 71.2299 316.282 71.5399 312.238C71.5828 311.285 71.8091 310.352 72.2042 309.5C72.5992 308.647 73.1542 307.895 73.8331 307.292C74.512 306.689 75.2996 306.248 76.1449 305.998C76.9902 305.748 77.8743 305.694 78.7399 305.84C83.9299 306.93 87.8499 316.337 88.4499 321.427C88.4499 321.591 88.4999 322.681 88.5199 323.978C88.8399 322.038 89.1699 320.086 89.4299 318.103C90.1899 312.478 90.7899 306.712 91.4299 300.946C91.5599 299.736 91.7099 298.537 91.8399 297.338C89.9899 296.695 83.0299 294.166 80.3699 291.572C77.7099 288.978 75.0599 284.967 75.3699 280.923C75.4097 279.968 75.634 279.033 76.0281 278.179C76.4222 277.325 76.9772 276.572 77.6568 275.968C78.3364 275.364 79.1253 274.923 79.972 274.675C80.8186 274.426 81.7039 274.375 82.5699 274.524C87.7599 275.614 91.6699 285.021 92.2799 290.111C92.2799 290.286 92.2799 291.594 92.3499 293.054C92.7299 289.915 93.1499 286.809 93.6599 283.724C94.4896 278.42 95.6489 273.183 97.1299 268.05C96.4699 267.832 88.2599 265.041 85.2999 262.164C82.6699 259.602 79.9799 255.558 80.2999 251.515C80.3397 250.56 80.564 249.625 80.9581 248.771C81.3522 247.917 81.9072 247.164 82.5868 246.56C83.2664 245.956 84.0553 245.515 84.902 245.266C85.7486 245.018 86.6339 244.966 87.4999 245.116C92.6799 246.206 96.5999 255.613 97.2099 260.703C97.2099 261.063 97.3199 265.772 97.2899 267.461C97.2899 267.396 97.2899 267.33 97.3399 267.276C98.9024 262.29 100.867 257.464 103.21 252.855C105.291 248.718 107.588 244.715 110.09 240.865C112.38 237.279 114.67 234.162 116.73 231.415C117.85 229.933 118.9 228.603 119.89 227.371H119.78C119.68 227.371 121.61 220.7 121.78 220.297C123.7 215.61 129.93 207.773 135.17 208.383C136.043 208.513 136.88 208.842 137.628 209.35C138.375 209.858 139.016 210.533 139.507 211.329C139.998 212.126 140.329 213.028 140.478 213.974C140.626 214.92 140.59 215.89 140.37 216.82ZM79.8799 354.814C78.9799 354.345 72.0699 350.617 69.3699 347.424C67.033 348.811 64.622 350.045 62.1499 351.119C62.7599 354.084 63.3399 356.972 63.8299 359.686C65.3899 368.275 66.3999 375.491 67.0399 380.56C67.1699 381.65 67.2899 382.598 67.3899 383.481H67.7399L68.8999 381.028C70.9899 376.527 73.8999 370.03 77.0799 362.073C77.9999 359.784 78.9399 357.343 79.8799 354.814ZM107.52 245.051C107.6 245.051 109.2 238.347 109.26 237.9C109.91 232.821 108.42 222.575 103.67 220.068C102.87 219.677 102.003 219.474 101.126 219.472C100.249 219.47 99.3811 219.669 98.5794 220.057C97.7777 220.445 97.0598 221.012 96.4724 221.722C95.885 222.432 95.4412 223.268 95.1699 224.177C93.8999 227.992 95.5199 232.668 97.4299 235.884C99.6699 239.71 107.51 245.051 107.52 245.051Z" fill="white"/>
<path d="M390.611 283.594C390.611 283.594 380.831 291.747 379.481 298.025C378.131 304.304 379.871 310.985 381.021 314.964C382.171 318.942 382.361 338.181 371.621 346.748C360.881 355.316 356.081 363.894 357.231 374.565C358.381 385.236 372.961 396.943 385.051 399.635C397.141 402.328 414.211 396.289 420.921 380.604C427.631 364.919 418.621 347.62 413.631 337.81C408.641 328 409.031 318.779 414.631 318.365C420.231 317.951 423.071 319.455 423.271 310.833C423.471 302.211 421.541 288.88 411.371 282.188C401.201 275.495 390.611 283.594 390.611 283.594Z" fill="#2E353A" stroke="#2E353A" stroke-linecap="round" stroke-linejoin="round"/>
<path d="M366.531 388.778C367.531 389.509 376.531 393.509 383.191 382.238C389.851 370.968 380.781 360.58 382.531 350.628" stroke="white" stroke-width="0.5" stroke-miterlimit="10"/>
<path d="M401.551 296.565C401.551 296.565 398.431 285.577 405.191 289.142C412.441 292.957 418.191 310.942 415.691 315.029" stroke="white" stroke-width="0.5" stroke-miterlimit="10"/>
<path d="M399.691 295.137C399.691 295.137 395.941 287.234 398.441 283.692C400.941 280.149 406.691 284.237 409.691 286.689" stroke="white" stroke-width="0.5" stroke-miterlimit="10"/>
<path d="M408.19 316.664C408.19 316.664 409.19 321.569 406.19 331.379C403.19 341.189 397.69 352.362 403.19 362.717C408.69 373.072 412.94 380.157 406.69 390.512" stroke="white" stroke-width="0.5" stroke-miterlimit="10"/>
<path d="M408.19 322.387C408.407 328.776 407.988 335.171 406.94 341.462C405.19 352.362 410.69 359.447 416.44 366.259C422.19 373.072 420.69 378.794 418.69 385.062" stroke="white" stroke-width="0.5" stroke-miterlimit="10"/>
<path d="M399.441 296.772C399.441 296.772 387.691 297.862 384.191 296.227C380.691 294.592 381.441 293.229 381.441 293.229" stroke="white" stroke-width="0.5" stroke-miterlimit="10"/>
<path d="M401.001 340.306C401.001 340.306 402.531 357.245 404.491 367.044C406.451 376.843 409.571 389.214 408.791 392.626C408.011 396.038 390.791 425.021 390.791 425.021L385.711 421.184L396.271 386.653L387.381 354.28C387.381 354.28 395.521 341.276 401.001 340.306Z" fill="white" stroke="#2E353A" stroke-linecap="round" stroke-linejoin="round"/>
<path d="M399.631 337.549C397.131 334.409 391.761 326.256 391.761 326.256L383.321 315.356L371.621 297.796C370.081 295.496 364.901 296.325 349.941 296.543C334.981 296.761 289.571 287.343 289.571 287.343L288.041 298.243C288.041 298.243 329.601 308.053 340.151 309.143C350.701 310.233 360.491 311.65 360.491 311.65C359.05 314.779 357.768 317.992 356.651 321.275C355.501 325.035 342.071 345.113 342.071 345.113C342.071 345.113 341.741 345.331 341.171 345.745C341.021 349.386 341.341 357.114 346.331 361.191C350.191 364.341 355.841 365.671 359.921 366.227C359.991 365.976 360.051 365.758 360.101 365.605C360.681 363.927 364.901 361.42 367.201 361.245C369.501 361.071 376.601 361.452 380.831 361.038C385.061 360.624 387.351 354.346 387.351 354.346C387.351 354.346 396.671 344.427 400.961 340.372C400.695 339.343 400.243 338.383 399.631 337.549Z" fill="white" stroke="#2E353A" stroke-linecap="round" stroke-linejoin="round"/>
<path d="M365.8 314.179L360.49 311.618L364.35 318.31" stroke="#2E353A" stroke-width="0.75" stroke-linecap="round" stroke-linejoin="round"/>
<path d="M352.41 352.264C356.407 354.966 361.135 356.086 365.8 355.436" stroke="#2E353A" stroke-width="0.75" stroke-linecap="round" stroke-linejoin="round"/>
<path d="M348 344.645C348 344.645 348.87 348.46 354.41 350.999" stroke="#2E353A" stroke-width="0.75" stroke-linecap="round" stroke-linejoin="round"/>
<path d="M396.24 386.653C396.24 386.653 399.87 384.953 402.78 389.4" stroke="#2E353A" stroke-width="0.75" stroke-linecap="round" stroke-linejoin="round"/>
<path d="M397.252 357.027L387.352 354.28L396.082 361.79" stroke="#2E353A" stroke-width="0.75" stroke-linecap="round" stroke-linejoin="round"/>
<path d="M370.171 301.84C370.171 301.84 365.221 311.356 359.401 311.04C351.491 310.604 329.111 303.41 329.111 300.881C329.111 298.352 335.231 297.393 335.231 297.393" stroke="#2E353A" stroke-width="0.75" stroke-linecap="round" stroke-linejoin="round"/>
<path d="M387.351 309.732C387.351 309.732 383.351 308.642 380.441 310.571C377.531 312.501 369.891 330.649 369.891 330.649C369.891 330.649 370.461 331.488 372.771 331.488C375.081 331.488 375.651 334.835 375.651 337.963C375.651 341.091 375.451 342.563 376.411 342.323C377.371 342.083 383.131 339.816 384.281 340.655C385.431 341.495 382.741 345.669 383.281 346.105C383.821 346.541 388.651 341.288 390.191 335.641C391.731 329.995 393.261 321.635 392.871 318.289C392.481 314.942 390.001 310.56 387.351 309.732Z" fill="#D842F3" stroke="#2E353A" stroke-linecap="round" stroke-linejoin="round"/>
<path d="M390.611 327.095C388.498 329.665 386.258 332.106 383.901 334.409C379.481 338.769 375.841 341.941 376.031 339.859C376.221 337.777 380.631 326.474 381.781 320.239C382.931 314.005 385.051 309.775 387.351 309.775C389.651 309.775 394.641 322.55 390.611 327.095Z" fill="white" stroke="#2E353A" stroke-linecap="round" stroke-linejoin="round"/>
<path d="M388.311 300.118C388.465 300.627 388.715 301.096 389.046 301.492C389.377 301.888 389.781 302.204 390.231 302.418C391.571 302.832 401.551 296.565 401.551 296.565C401.551 296.565 408.651 313.078 407.491 315.585C406.331 318.092 402.891 321.243 399.051 324.164C395.211 327.085 388.121 329.396 385.431 327.717C382.741 326.039 384.661 308.904 384.661 308.904C384.661 308.904 382.551 306.179 384.851 301.786C387.151 297.393 388.311 300.118 388.311 300.118Z" fill="white" stroke="#2E353A" stroke-linecap="round" stroke-linejoin="round"/>
<path d="M404.381 317.176C404.381 317.176 404.551 315.879 402.331 315.879C400.111 315.879 396.211 320.327 396.211 320.327" stroke="#2E353A" stroke-width="0.75" stroke-linecap="round" stroke-linejoin="round"/>
<path d="M394.68 320.697L393.49 319.4" stroke="#2E353A" stroke-width="0.75" stroke-linecap="round" stroke-linejoin="round"/>
<path d="M393 323.117C393 323.117 389.94 322.561 389.43 318.289" stroke="#2E353A" stroke-width="0.75" stroke-linecap="round" stroke-linejoin="round"/>
<path d="M400.08 310.44C400.08 310.44 399.32 306.375 396.08 305.59" stroke="#2E353A" stroke-width="0.75" stroke-linecap="round" stroke-linejoin="round"/>
<path d="M396.231 312.62C395.451 313.285 394.591 313.503 394.301 313.1C394.011 312.697 394.401 311.836 395.171 311.171C395.941 310.506 396.811 310.288 397.101 310.691C397.391 311.094 397.001 311.955 396.231 312.62Z" fill="#2E353A"/>
<path d="M401.051 319.487C400.411 320.032 399.701 320.218 399.461 319.88C399.221 319.542 399.541 318.79 400.181 318.277C400.821 317.765 401.531 317.558 401.771 317.885C402.011 318.212 401.691 318.931 401.051 319.487Z" fill="#2E353A"/>
<path d="M382.38 497.463L392.19 512.319C392.19 512.319 392.19 515.044 388.69 515.044C385.19 515.044 383.19 515.044 381.19 512.319C379.19 509.594 379.19 507.959 377.19 506.869C375.19 505.779 373.19 505.779 374.19 499.784C375.19 493.789 382.38 497.463 382.38 497.463Z" fill="white" stroke="#2E353A" stroke-linecap="round" stroke-linejoin="round"/>
<path d="M392.151 512.657C390.597 513.47 388.854 513.752 387.151 513.464C383.611 512.766 381.461 508.907 380.151 507.251C378.841 505.594 377.241 505.605 375.731 504.22C375.012 503.551 374.386 502.773 373.871 501.91C373.661 505.79 375.391 505.921 377.111 506.869C379.111 507.959 379.111 509.594 381.111 512.319C383.111 515.044 385.111 515.044 388.611 515.044C391.421 515.044 392.001 513.387 392.151 512.657Z" fill="white" stroke="#2E353A" stroke-linecap="round" stroke-linejoin="round"/>
<path d="M381.821 495.577C379.821 489.037 376.971 449.884 375.491 437.491C372.491 412.29 359.151 379.579 359.151 379.579L359.921 366.194C355.841 365.638 350.191 364.308 346.331 361.158C341.331 357.082 341.021 349.353 341.171 345.713C338.641 347.49 331.171 352.841 324.801 358.466C316.941 365.366 311.561 389.836 310.031 397.564C308.501 405.292 306.771 428.084 306.771 428.084C306.771 428.084 292.951 433.938 287.391 442.254C281.831 450.571 264.941 469.439 264.941 469.439L266.481 475.717C266.481 475.717 271.661 471.75 276.071 467.978C280.481 464.207 314.831 443.301 317.131 441.818C319.431 440.336 322.131 437.458 325.191 429.065C326.311 426.002 327.891 420.988 329.451 415.854L334.781 397.76L339.911 392.997C344.971 407.908 356.731 436.652 358.401 440.761C360.401 445.688 361.921 467.597 367.451 481.298C372.981 494.999 374.451 501.572 374.451 501.572C374.451 501.572 383.831 502.15 381.821 495.577Z" fill="#2E353A" stroke="#2E353A" stroke-linecap="round" stroke-linejoin="round"/>
<path d="M359.59 368.777L361.5 380.931" stroke="white" stroke-width="0.5" stroke-miterlimit="10"/>
<path d="M89.1806 274.906L60.3006 542.283C60.2615 542.668 60.3222 543.058 60.4759 543.407C60.6296 543.756 60.8701 544.052 61.1701 544.259C61.4701 544.467 61.8175 544.579 62.1729 544.582C62.5283 544.586 62.8774 544.48 63.1806 544.278L81.7406 531.83C82.8422 531.086 84.1659 530.837 85.4326 531.136C86.6993 531.435 87.81 532.258 88.5306 533.432L111.851 571.223L121.581 412.257L89.1806 274.906Z" fill="#D842F3" stroke="#2E353A" stroke-linecap="round" stroke-linejoin="round"/>
<path d="M89.001 281.632L62.901 535.602C62.8446 536.15 62.9362 536.704 63.1645 537.196C63.3929 537.689 63.7481 538.097 64.1866 538.373C64.6251 538.648 65.1278 538.778 65.633 538.747C66.1382 538.715 66.6241 538.524 67.031 538.196L80.601 527.296C81.3067 526.727 82.1115 526.321 82.9662 526.103C83.8209 525.885 84.7074 525.859 85.5715 526.027C86.4355 526.196 87.259 526.555 87.9914 527.082C88.7238 527.609 89.3498 528.294 89.831 529.094L105.711 555.516C105.883 555.809 106.14 556.032 106.442 556.147C106.743 556.263 107.072 556.265 107.374 556.153C107.677 556.041 107.937 555.823 108.112 555.531C108.287 555.24 108.368 554.893 108.341 554.546L89.801 281.643C89.7817 281.543 89.732 281.454 89.66 281.39C89.588 281.325 89.4981 281.289 89.405 281.288C89.3118 281.287 89.2211 281.32 89.1477 281.383C89.0742 281.445 89.0225 281.533 89.001 281.632Z" fill="#D842F3" stroke="#2E353A" stroke-linecap="round" stroke-linejoin="round"/>
<path opacity="0.6" d="M89.3614 277.948L62.8814 535.58C62.825 536.128 62.9166 536.682 63.145 537.175C63.3734 537.667 63.7286 538.076 64.1671 538.351C64.6055 538.627 65.1082 538.757 65.6135 538.725C66.1187 538.694 66.6046 538.502 67.0114 538.174L80.5814 527.274C81.2872 526.705 82.092 526.299 82.9467 526.081C83.8013 525.863 84.6878 525.837 85.5519 526.006C86.416 526.174 87.2395 526.533 87.9719 527.06C88.7043 527.588 89.3303 528.272 89.8114 529.073L105.691 555.494C105.863 555.788 106.121 556.01 106.422 556.126C106.724 556.241 107.052 556.243 107.355 556.131C107.658 556.02 107.917 555.801 108.092 555.509C108.268 555.218 108.348 554.871 108.321 554.524L89.5514 277.948C89.5449 277.926 89.5321 277.907 89.5151 277.893C89.498 277.88 89.4775 277.873 89.4564 277.873C89.4354 277.873 89.4149 277.88 89.3978 277.893C89.3807 277.907 89.368 277.926 89.3614 277.948Z" fill="black"/>
<path d="M84.5314 525.879C85.5819 525.899 86.6121 526.198 87.5323 526.751C88.4525 527.304 89.2349 528.093 89.8114 529.051L105.691 555.472C105.863 555.766 106.121 555.988 106.422 556.104C106.724 556.219 107.052 556.221 107.355 556.11C107.658 555.998 107.917 555.779 108.092 555.488C108.268 555.196 108.348 554.849 108.321 554.502L106.051 521.105L84.1914 525.77C84.3076 525.795 84.4214 525.831 84.5314 525.879Z" fill="#D842F3" stroke="#2E353A" stroke-linecap="round" stroke-linejoin="round"/>
<path opacity="0.3" d="M84.5314 525.879C85.5819 525.899 86.6121 526.198 87.5323 526.751C88.4525 527.304 89.2349 528.093 89.8114 529.051L105.691 555.472C105.863 555.766 106.121 555.988 106.422 556.104C106.724 556.219 107.052 556.221 107.355 556.11C107.658 555.998 107.917 555.779 108.092 555.488C108.268 555.196 108.348 554.849 108.321 554.502L106.051 521.105L84.1914 525.77C84.3076 525.795 84.4214 525.831 84.5314 525.879Z" fill="black"/>
<path d="M89.7715 274.743L111.841 571.223L369.191 517.77L308.711 286.548L89.7715 274.743Z" fill="#2E353A" stroke="#2E353A" stroke-linecap="round" stroke-linejoin="round"/>
<path d="M101.701 281.141L116.861 555.549L358.861 507.589L307.851 294.396L101.701 281.141Z" fill="#D842F3" stroke="#2E353A" stroke-linecap="round" stroke-linejoin="round"/>
<path d="M116.49 416.181L128 546.251L347.88 502.673L327.45 404.911L116.49 416.181Z" fill="white" stroke="#2E353A" stroke-linecap="round" stroke-linejoin="round"/>
<path d="M158.931 539.776L155.281 497.997" stroke="#2E353A" stroke-linecap="round" stroke-linejoin="round"/>
<path d="M192.581 533.313L189.061 498.487" stroke="#2E353A" stroke-linecap="round" stroke-linejoin="round"/>
<path d="M225.571 526.348L221.461 498.487" stroke="#2E353A" stroke-linecap="round" stroke-linejoin="round"/>
<path d="M259.56 519.993L254.67 486.781" stroke="#2E353A" stroke-linecap="round" stroke-linejoin="round"/>
<path d="M289.5 514.107L285.33 481.69" stroke="#2E353A" stroke-linecap="round" stroke-linejoin="round"/>
<path d="M318.21 508.319L312 469.341" stroke="#2E353A" stroke-linecap="round" stroke-linejoin="round"/>
<path d="M385.68 421.184C385.68 421.184 382.62 424.542 382.42 426.286C382.22 428.03 383.82 433.283 383.82 433.283L388.64 434.155L390.76 425.021L385.68 421.184Z" fill="white" stroke="#2E353A" stroke-linecap="round" stroke-linejoin="round"/>
<g style="mix-blend-mode:multiply" opacity="0.49">
<path d="M102.92 356.951C102.92 356.951 108 436.641 112.67 465.7C117.34 494.759 126 538.25 126 538.25C126 538.25 276 512.941 350 478.78L344 447.541L102.92 356.951Z" fill="#D842F3"/>
</g>
<path d="M96.1406 278.155L306.811 290.526C306.811 290.526 327.321 357.507 347.731 395.33C368.141 433.153 401.801 430.689 401.801 430.689C401.801 430.689 324.601 476.698 264.471 501.191C201.891 526.664 147.621 531.242 147.621 531.242C147.621 531.242 98.1906 457.645 96.1406 278.155Z" fill="#D842F3" stroke="#2E353A" stroke-linecap="round" stroke-linejoin="round"/>
<path d="M120.261 266.23C116.351 266.23 113.521 270.012 112.631 275.942L116.631 276.182C117.251 272.759 118.481 270.59 120.251 270.59C122.311 270.59 124.601 274.198 124.601 279.386C124.601 284.575 122.311 288.193 120.251 288.193C119.72 288.193 119.212 288.423 118.837 288.832C118.462 289.241 118.251 289.795 118.251 290.373C118.251 290.952 118.462 291.506 118.837 291.915C119.212 292.324 119.72 292.553 120.251 292.553C124.931 292.553 128.601 286.766 128.601 279.386C128.601 272.007 124.941 266.23 120.261 266.23Z" fill="white" stroke="#2E353A" stroke-miterlimit="10"/>
<path d="M126 282.918C125.808 283.687 125.561 284.438 125.26 285.163" stroke="#2E353A" stroke-width="0.75" stroke-linecap="round" stroke-linejoin="round"/>
<path d="M114.611 273.98C114.611 273.98 116.111 268.072 120.541 268.399C124.021 268.661 126.891 274.296 126.411 280.324" stroke="#2E353A" stroke-width="0.75" stroke-linecap="round" stroke-linejoin="round"/>
<path d="M155.001 268.138C151.091 268.138 148.261 271.92 147.371 277.85L151.371 278.089C151.991 274.667 153.221 272.498 154.991 272.498C157.051 272.498 159.341 276.106 159.341 281.294C159.341 286.482 157.051 290.101 154.991 290.101C154.461 290.101 153.952 290.331 153.577 290.74C153.202 291.149 152.991 291.703 152.991 292.281C152.991 292.859 153.202 293.414 153.577 293.823C153.952 294.232 154.461 294.461 154.991 294.461C159.671 294.461 163.341 288.673 163.341 281.294C163.341 273.915 159.691 268.138 155.001 268.138Z" fill="white" stroke="#2E353A" stroke-miterlimit="10"/>
<path d="M160.75 284.826C160.558 285.594 160.311 286.345 160.01 287.071" stroke="#2E353A" stroke-width="0.75" stroke-linecap="round" stroke-linejoin="round"/>
<path d="M149.361 275.887C149.361 275.887 150.861 269.98 155.291 270.307C158.771 270.568 161.641 276.203 161.161 282.231" stroke="#2E353A" stroke-width="0.75" stroke-linecap="round" stroke-linejoin="round"/>
<path d="M189.761 270.045C185.851 270.045 183.021 273.827 182.131 279.757L186.131 279.997C186.751 276.574 187.981 274.405 189.751 274.405C191.811 274.405 194.101 278.013 194.101 283.201C194.101 288.39 191.811 292.008 189.751 292.008C189.22 292.008 188.712 292.238 188.337 292.647C187.962 293.056 187.751 293.61 187.751 294.188C187.751 294.767 187.962 295.321 188.337 295.73C188.712 296.139 189.22 296.368 189.751 296.368C194.431 296.368 198.101 290.581 198.101 283.201C198.101 275.822 194.441 270.045 189.761 270.045Z" fill="white" stroke="#2E353A" stroke-miterlimit="10"/>
<path d="M195.5 286.733C195.308 287.502 195.061 288.252 194.76 288.978" stroke="#2E353A" stroke-width="0.75" stroke-linecap="round" stroke-linejoin="round"/>
<path d="M184.111 277.795C184.111 277.795 185.611 271.887 190.041 272.214C193.521 272.476 196.391 278.111 195.911 284.139" stroke="#2E353A" stroke-width="0.75" stroke-linecap="round" stroke-linejoin="round"/>
<path d="M224.511 271.953C220.601 271.953 217.771 275.735 216.881 281.665L220.881 281.904C221.501 278.482 222.731 276.313 224.501 276.313C226.561 276.313 228.851 279.921 228.851 285.109C228.851 290.297 226.561 293.916 224.501 293.916C223.97 293.916 223.462 294.146 223.087 294.555C222.712 294.963 222.501 295.518 222.501 296.096C222.501 296.674 222.712 297.229 223.087 297.638C223.462 298.046 223.97 298.276 224.501 298.276C229.181 298.276 232.851 292.488 232.851 285.109C232.851 277.73 229.191 271.953 224.511 271.953Z" fill="white" stroke="#2E353A" stroke-miterlimit="10"/>
<path d="M230.25 288.641C230.058 289.409 229.811 290.16 229.51 290.886" stroke="#2E353A" stroke-width="0.75" stroke-linecap="round" stroke-linejoin="round"/>
<path d="M218.861 279.702C218.861 279.702 220.361 273.794 224.791 274.121C228.271 274.383 231.141 280.018 230.661 286.046" stroke="#2E353A" stroke-width="0.75" stroke-linecap="round" stroke-linejoin="round"/>
<path d="M259.892 273.642C255.982 273.642 253.151 277.424 252.271 283.365L256.271 283.605C256.901 280.182 258.132 278.002 259.892 278.002C261.952 278.002 264.251 281.621 264.251 286.809C264.251 291.998 261.952 295.606 259.892 295.606C259.361 295.606 258.852 295.835 258.477 296.244C258.102 296.653 257.892 297.207 257.892 297.786C257.892 298.364 258.102 298.918 258.477 299.327C258.852 299.736 259.361 299.966 259.892 299.966C264.582 299.966 268.251 294.189 268.251 286.809C268.251 279.43 264.582 273.642 259.892 273.642Z" fill="white" stroke="#2E353A" stroke-miterlimit="10"/>
<path d="M265.631 290.341C265.441 291.107 265.193 291.854 264.891 292.575" stroke="#2E353A" stroke-width="0.75" stroke-linecap="round" stroke-linejoin="round"/>
<path d="M254.24 281.403C254.24 281.403 255.75 275.484 260.17 275.811C263.66 276.073 266.52 281.719 266.05 287.746" stroke="#2E353A" stroke-width="0.75" stroke-linecap="round" stroke-linejoin="round"/>
<path d="M293.88 275.68C289.97 275.68 287.14 279.462 286.26 285.392L290.26 285.643C290.89 282.22 292.12 280.04 293.88 280.04C295.94 280.04 298.24 283.659 298.24 288.836C298.24 294.014 295.94 297.644 293.88 297.644C293.349 297.644 292.841 297.873 292.466 298.282C292.09 298.691 291.88 299.245 291.88 299.824C291.88 300.402 292.09 300.956 292.466 301.365C292.841 301.774 293.349 302.004 293.88 302.004C298.57 302.004 302.24 296.216 302.24 288.836C302.24 281.457 298.57 275.68 293.88 275.68Z" fill="white" stroke="#2E353A" stroke-miterlimit="10"/>
<path d="M299.621 292.313C299.433 293.083 299.185 293.834 298.881 294.559" stroke="#2E353A" stroke-width="0.75" stroke-linecap="round" stroke-linejoin="round"/>
<path d="M288.23 283.387C288.23 283.387 289.74 277.468 294.16 277.795C297.65 278.056 300.51 283.692 300.04 289.719" stroke="#2E353A" stroke-width="0.75" stroke-linecap="round" stroke-linejoin="round"/>
<path d="M390.761 425.01C390.761 425.01 392.761 427.997 392.761 429.272C392.761 430.547 390.021 432.684 390.021 435.659C390.021 438.635 386.501 437.839 386.111 435.659C385.721 433.479 386.891 430.547 386.891 430.547C386.891 430.547 385.261 429.457 384.891 425.621C384.521 421.784 387.691 422.874 387.691 422.874L390.761 425.01Z" fill="white" stroke="#2E353A" stroke-linecap="round" stroke-linejoin="round"/>
<path d="M340.761 395.504C326.271 368.646 311.051 326.235 305.641 310.626L117.371 302.309C117.251 453.983 159.371 516.647 159.371 516.647C159.371 516.647 207.321 512.603 262.621 490.083C315.761 468.447 379.141 432.128 379.141 432.128C379.141 432.128 358.791 428.934 340.761 395.504Z" fill="white" stroke="#2E353A" stroke-linecap="round" stroke-linejoin="round"/>
<path d="M305.641 310.626L117.371 302.309C117.371 317.231 117.761 331.27 118.481 344.492L317.301 342.465C312.151 329.09 308.001 317.373 305.641 310.626Z" fill="#AFAFAF" stroke="#2E353A" stroke-linecap="round" stroke-linejoin="round"/>
<path d="M308.971 355.839L317.871 355.501" stroke="#2E353A" stroke-width="3" stroke-linecap="round" stroke-linejoin="round"/>
<path d="M282.811 356.809L302.301 356.079" stroke="#2E353A" stroke-width="3" stroke-linecap="round" stroke-linejoin="round"/>
<path d="M251.141 357.975L276.191 357.049" stroke="#2E353A" stroke-width="3" stroke-linecap="round" stroke-linejoin="round"/>
<path d="M218.92 359.164L245.61 358.183" stroke="#2E353A" stroke-width="3" stroke-linecap="round" stroke-linejoin="round"/>
<path d="M187.771 360.319L212.241 359.414" stroke="#2E353A" stroke-width="3" stroke-linecap="round" stroke-linejoin="round"/>
<path d="M154.951 361.54L179.441 360.624" stroke="#2E353A" stroke-width="3" stroke-linecap="round" stroke-linejoin="round"/>
<path d="M126.061 362.608L148.851 361.758" stroke="#2E353A" stroke-width="3" stroke-linecap="round" stroke-linejoin="round"/>
<path d="M122.352 385.988L329.482 372.232" stroke="#2E353A" stroke-linecap="round" stroke-linejoin="round"/>
<path d="M155.08 384.048C155.08 384.048 158.48 444.086 194.79 510.728" stroke="#2E353A" stroke-linecap="round" stroke-linejoin="round"/>
<path d="M188.5 381.639C188.5 381.639 192.33 450.309 232.14 500.591" stroke="#2E353A" stroke-linecap="round" stroke-linejoin="round"/>
<path d="M218.76 379.612C218.76 379.612 220.76 442.832 265.51 488.263" stroke="#2E353A" stroke-linecap="round" stroke-linejoin="round"/>
<path d="M250.131 378.14C250.131 378.14 255.071 448.423 298.381 473.177" stroke="#2E353A" stroke-linecap="round" stroke-linejoin="round"/>
<path d="M283 375.317C283 375.317 286.48 428.477 330.78 457.591" stroke="#2E353A" stroke-linecap="round" stroke-linejoin="round"/>
<path d="M308.881 373.595C308.881 373.595 320.801 428.095 354.151 445.742" stroke="#2E353A" stroke-linecap="round" stroke-linejoin="round"/>
<path d="M126.891 416.955L338.451 391.591" stroke="#2E353A" stroke-linecap="round" stroke-linejoin="round"/>
<path d="M132.41 444.085C132.41 444.085 177.58 442.156 348.29 407.865" stroke="#2E353A" stroke-linecap="round" stroke-linejoin="round"/>
<path d="M140.381 472.807C140.381 472.807 184.381 478.257 356.761 418.427" stroke="#2E353A" stroke-linecap="round" stroke-linejoin="round"/>
<path d="M149.9 497.866C149.9 497.866 186.58 511.109 366.76 427.016" stroke="#2E353A" stroke-linecap="round" stroke-linejoin="round"/>
<path d="M198.692 331.979L130.872 330.987C130.322 330.978 129.794 330.752 129.386 330.351C128.978 329.95 128.717 329.402 128.652 328.807L128.072 322.834C128.037 322.49 128.071 322.142 128.169 321.814C128.268 321.485 128.429 321.183 128.643 320.927C128.857 320.672 129.118 320.469 129.409 320.331C129.7 320.194 130.014 320.126 130.332 320.131L197.332 321.395C197.827 321.404 198.305 321.591 198.694 321.926C199.082 322.261 199.359 322.725 199.482 323.248L200.842 328.927C200.927 329.286 200.935 329.662 200.868 330.025C200.8 330.388 200.657 330.73 200.449 331.024C200.242 331.319 199.976 331.557 199.671 331.723C199.367 331.888 199.032 331.976 198.692 331.979Z" fill="white"/>
</g>
<defs>
<clipPath id="clip0_714_2133">
<rect width="422" height="545" fill="white" transform="translate(14 110)"/>
</clipPath>
</defs>
</svg>
