<svg width="422" height="545" viewBox="0 0 422 545" fill="none" xmlns="http://www.w3.org/2000/svg">
<g clip-path="url(#clip0_714_1163)">
<rect width="422" height="545" fill="#FFDDF8"/>
<path d="M404.939 315.86C406.246 308.765 408.391 301.885 411.319 295.39C419.319 277.536 425.069 261.916 419.979 241.98C407.509 193.29 356.789 187.6 331.769 150.878C293.089 94.1326 198.049 89.2058 152.649 138.245C138.729 153.276 132.209 174.509 118.139 189.377C97.4095 211.297 66.6295 214.12 45.3395 235.974C10.6295 271.628 7.25945 332.047 38.0695 372.137C70.6095 414.473 116.539 407.529 161.149 398.526C183.099 394.101 205.919 389.305 228.289 392.705C275.999 400.03 332.609 428.599 378.849 400.161C403.479 385.01 404.109 361.379 403.539 333.813C403.4 327.791 403.87 321.77 404.939 315.86Z" fill="#D842F3"/>
<path opacity="0.6" d="M404.939 315.86C406.246 308.765 408.391 301.885 411.319 295.39C419.319 277.536 425.069 261.916 419.979 241.98C407.509 193.29 356.789 187.6 331.769 150.878C293.089 94.1326 198.049 89.2058 152.649 138.245C138.729 153.276 132.209 174.509 118.139 189.377C97.4095 211.297 66.6295 214.12 45.3395 235.974C10.6295 271.628 7.25945 332.047 38.0695 372.137C70.6095 414.473 116.539 407.529 161.149 398.526C183.099 394.101 205.919 389.305 228.289 392.705C275.999 400.03 332.609 428.599 378.849 400.161C403.479 385.01 404.109 361.379 403.539 333.813C403.4 327.791 403.87 321.77 404.939 315.86Z" fill="white"/>
<path d="M210.5 464.34C316.263 464.34 402 444.576 402 420.195C402 395.814 316.263 376.05 210.5 376.05C104.737 376.05 19 395.814 19 420.195C19 444.576 104.737 464.34 210.5 464.34Z" fill="#D842F3"/>
<path opacity="0.3" d="M210.5 464.34C316.263 464.34 402 444.576 402 420.195C402 395.814 316.263 376.05 210.5 376.05C104.737 376.05 19 395.814 19 420.195C19 444.576 104.737 464.34 210.5 464.34Z" fill="white"/>
<path d="M-7.9501 124.412C-8.1834 123.493 -8.23656 122.53 -8.10612 121.586C-7.97569 120.643 -7.66458 119.74 -7.19302 118.936C-6.72145 118.132 -6.09998 117.445 -5.369 116.92C-4.63801 116.395 -3.81386 116.044 -2.9501 115.889C2.2799 115.115 8.6999 122.767 10.7399 127.399C10.9099 127.802 12.9999 134.408 12.8999 134.408C12.7999 134.408 3.6299 134.637 -0.100101 132.827C-3.3701 131.29 -7.0801 128.358 -7.9501 124.412ZM126.37 106.82C125.6 110.787 121.96 113.829 118.78 115.464C115.6 117.099 108.05 117.382 106.2 117.415C105.2 118.712 104.13 120.118 102.98 121.687C100.98 124.478 98.7599 127.65 96.5599 131.269C95.9699 132.239 95.3699 133.296 94.7699 134.321C96.1099 132.827 97.9599 130.811 98.1599 130.636C101.85 127.443 110.69 123.617 115.08 126.8C115.796 127.349 116.399 128.056 116.848 128.876C117.297 129.696 117.582 130.609 117.686 131.557C117.79 132.505 117.709 133.466 117.45 134.378C117.19 135.29 116.758 136.132 116.18 136.849C113.81 139.989 109.3 140.861 105.78 140.708C102.26 140.555 95.2299 136.904 93.7299 136.086C92.4399 138.364 91.1599 140.741 89.9599 143.302C87.7256 147.92 85.8749 152.746 84.4299 157.723L84.6999 157.865C85.7699 156.328 88.0999 153.156 88.3199 152.927C91.6599 149.297 100.07 144.447 104.76 147.074C105.519 147.537 106.18 148.168 106.702 148.926C107.224 149.684 107.596 150.552 107.792 151.475C107.989 152.399 108.007 153.357 107.845 154.288C107.682 155.219 107.344 156.103 106.85 156.884C104.85 160.295 100.42 161.701 96.9099 161.963C92.9099 162.279 84.4999 158.835 84.1799 158.693C82.8821 163.679 81.88 168.75 81.1799 173.877C80.6399 177.67 80.2299 181.507 79.8499 185.42C80.5799 184.33 83.6399 180.155 83.8499 179.883C87.1899 176.264 95.5999 171.402 100.28 174.04C101.048 174.501 101.718 175.133 102.247 175.894C102.776 176.656 103.152 177.531 103.35 178.461C103.548 179.392 103.564 180.358 103.397 181.296C103.23 182.234 102.883 183.122 102.38 183.905C100.38 187.305 95.9499 188.712 92.4399 188.973C88.4899 189.278 80.4399 186.019 79.7799 185.703C79.6099 187.469 79.4399 189.224 79.2799 191.001C78.7599 196.767 78.2799 202.565 77.6199 208.266C77.3899 210.239 77.1099 212.179 76.8299 214.119C77.9699 212.506 80.0899 209.618 80.2999 209.389C83.6399 205.77 92.0499 200.909 96.7399 203.546C97.4997 204.009 98.1623 204.639 98.6854 205.397C99.2085 206.155 99.5804 207.023 99.7772 207.947C99.974 208.871 99.9914 209.829 99.8282 210.761C99.6651 211.693 99.325 212.577 98.8299 213.356C96.8299 216.757 92.3999 218.163 88.8899 218.436C85.3799 218.708 78.5599 216.125 76.6499 215.362C76.1599 218.632 75.6499 221.782 74.9299 224.889C74.6099 226.229 74.3699 227.614 73.9899 228.878L72.9899 232.682C72.1899 235.255 71.4599 237.642 70.6599 240.018C70.2599 241.217 69.8699 242.34 69.4699 243.506C70.3999 241.675 71.9199 238.819 72.0799 238.568C74.8799 234.437 82.5099 228.257 87.5099 230.088C88.3332 230.415 89.084 230.927 89.7133 231.592C90.3425 232.257 90.8361 233.059 91.1617 233.945C91.4872 234.832 91.6376 235.784 91.6028 236.738C91.568 237.692 91.349 238.628 90.9599 239.484C89.4199 243.19 85.2699 245.304 81.8299 246.144C78.0499 247.081 69.9299 245.283 68.9399 245.054C67.9399 247.899 66.9399 250.645 65.9999 253.207C62.9999 261.306 60.1499 267.933 58.1199 272.543L57.7899 273.285H72.5799L67.4699 381.849C67.33 385.862 65.7662 389.66 63.1079 392.441C60.4497 395.223 56.9047 396.771 53.2199 396.76C49.5707 396.762 46.0602 395.237 43.4137 392.498C40.7672 389.759 39.1871 386.017 38.9999 382.045L33.8899 273.481H49.7699C49.6899 272.729 49.6099 271.933 49.5199 271.039C48.9899 266.025 48.1299 258.853 46.7499 250.329C46.3599 247.866 45.9099 245.261 45.4099 242.59C44.4099 242.732 36.1899 243.866 32.4799 242.59C29.1199 241.5 25.1199 239.015 23.8399 235.2C23.5118 234.315 23.3583 233.365 23.3894 232.411C23.4205 231.457 23.6354 230.521 24.0203 229.663C24.4051 228.806 24.9512 228.046 25.6231 227.434C26.2949 226.822 27.0775 226.37 27.9199 226.109C33.0299 224.682 40.2199 231.483 42.7299 235.821C42.8899 236.105 44.4399 239.625 45.1999 241.446C44.8999 239.833 44.6099 238.23 44.2699 236.552C43.7899 234.143 43.2699 231.614 42.6799 229.151C42.3599 227.886 42.0299 226.611 41.6799 225.325C41.3299 224.038 40.9299 222.818 40.5599 221.531C39.9799 219.678 39.2899 217.793 38.5599 215.907C36.3399 216.583 29.7799 218.425 26.4099 217.891C23.0399 217.357 18.6299 215.58 16.8399 212.027C16.3912 211.206 16.1063 210.291 16.0037 209.342C15.9012 208.393 15.9832 207.431 16.2446 206.518C16.5059 205.606 16.9407 204.764 17.5205 204.047C18.1004 203.331 18.8123 202.755 19.6099 202.358C24.4599 200.102 32.5099 205.628 35.6099 209.52C35.7099 209.64 36.2899 210.533 36.9599 211.602C36.2399 209.792 35.5299 207.972 34.7499 206.152C32.5299 201.007 30.1199 195.829 27.7499 190.641C27.2499 189.551 26.7499 188.461 26.2699 187.371C24.3999 187.949 17.2699 190.02 13.7799 189.464C10.2899 188.908 5.9999 187.153 4.2099 183.589C3.76871 182.768 3.49036 181.855 3.39283 180.91C3.2953 179.965 3.38076 179.008 3.64369 178.101C3.90662 177.194 4.34117 176.357 4.91927 175.644C5.49738 174.932 6.20618 174.359 6.9999 173.964C11.8499 171.718 19.8999 177.234 22.9999 181.136C23.1099 181.267 23.7999 182.335 24.5499 183.545C23.2899 180.7 22.0599 177.855 20.9199 174.978C18.9512 170.067 17.2809 165.02 15.9199 159.87C15.2699 160.077 6.9999 162.693 3.0699 162.05C-0.410103 161.505 -4.7001 159.739 -6.4901 156.186C-6.93909 155.366 -7.22451 154.451 -7.32779 153.503C-7.43106 152.554 -7.34986 151.593 -7.08948 150.68C-6.82911 149.768 -6.39539 148.926 -5.81658 148.209C-5.23777 147.492 -4.52684 146.915 -3.7301 146.518C1.1299 144.272 9.1799 149.788 12.2699 153.679C12.4899 153.962 14.9299 157.843 15.7599 159.271C15.7555 159.209 15.7555 159.147 15.7599 159.085C14.5368 153.989 13.7336 148.783 13.3599 143.531C12.9923 138.845 12.8721 134.139 12.9999 129.437C13.0999 125.077 13.4299 121.088 13.7499 117.567C13.9399 115.66 14.1399 113.916 14.3499 112.292L14.2599 112.357C14.1699 112.422 12.4099 105.708 12.3399 105.272C11.5599 100.204 12.7999 89.9248 17.4799 87.2761C18.2697 86.8612 19.1308 86.6321 20.0071 86.6036C20.8835 86.5751 21.7555 86.7479 22.5666 87.1108C23.3777 87.4737 24.1096 88.0185 24.7149 88.7099C25.3202 89.4013 25.7853 90.2237 26.0799 91.1238C27.4399 94.9061 25.9399 99.6258 24.0799 102.907C22.2199 106.188 16.0799 110.951 14.5799 112.095C14.3999 113.785 14.2199 115.594 14.0599 117.545C13.8099 121.066 13.5599 125.045 13.5499 129.394C13.5499 130.56 13.5499 131.803 13.5999 133.013C13.9599 130.963 14.4899 128.173 14.5999 127.9C16.0499 123.017 21.4899 114.515 26.7699 114.526C27.6457 114.554 28.5063 114.782 29.2958 115.197C30.0852 115.611 30.7857 116.202 31.3517 116.931C31.9177 117.66 32.3365 118.511 32.5809 119.428C32.8252 120.345 32.8896 121.308 32.7699 122.254C32.3899 126.298 29.0599 129.732 26.0499 131.726C23.0399 133.721 15.2899 134.953 13.6299 135.16C13.7099 137.841 13.8399 140.61 14.1399 143.444C14.6142 148.636 15.5111 153.772 16.8199 158.791H17.1199C17.2399 156.862 17.5799 152.818 17.6399 152.48C18.6399 147.455 23.1399 138.31 28.3899 137.732C29.2632 137.655 30.1415 137.78 30.9678 138.097C31.794 138.415 32.5496 138.919 33.1854 139.576C33.8212 140.233 34.323 141.028 34.658 141.911C34.993 142.793 35.1538 143.743 35.1299 144.697C35.1299 148.752 32.1999 152.578 29.4099 154.911C26.1899 157.603 17.4699 159.761 17.1399 159.837C18.5644 164.787 20.2847 169.63 22.2899 174.334C23.7599 177.822 25.3699 181.3 27.0199 184.766C27.0799 183.403 27.5199 178.095 27.5899 177.713C28.5899 172.689 33.0899 163.543 38.3399 162.955C39.2128 162.88 40.0905 163.005 40.916 163.324C41.7416 163.642 42.4966 164.146 43.132 164.802C43.7675 165.459 44.2692 166.254 44.6048 167.136C44.9404 168.017 45.1022 168.966 45.0799 169.92C45.0799 173.986 42.1399 177.801 39.3499 180.133C36.2099 182.76 27.8699 184.875 27.1599 185.049C27.9099 186.619 28.6599 188.199 29.4199 189.769C31.9099 194.903 34.4199 200.026 36.7799 205.171C37.5899 206.958 38.3299 208.746 39.0799 210.533C39.2099 208.495 39.5299 204.811 39.5799 204.495C40.5799 199.47 45.0899 190.325 50.3299 189.736C51.2032 189.659 52.0815 189.784 52.9078 190.101C53.734 190.419 54.4896 190.923 55.1254 191.58C55.7612 192.237 56.263 193.032 56.598 193.915C56.933 194.797 57.0938 195.747 57.0699 196.701C57.0699 200.767 54.1399 204.582 51.3499 206.915C48.5599 209.247 41.5599 211.198 39.5899 211.721C40.8199 214.73 41.9999 217.673 42.9999 220.681C43.4099 221.989 43.8999 223.286 44.2299 224.562L45.2899 228.366C45.9199 230.993 46.5199 233.423 47.0599 235.887C47.3399 237.129 47.5699 238.307 47.8299 239.506C47.6799 237.435 47.4999 234.132 47.5099 233.827C47.7599 228.704 50.9899 218.948 56.0899 217.477C56.9427 217.256 57.8286 217.235 58.6897 217.413C59.5508 217.59 60.3679 217.964 61.0877 218.509C61.8076 219.054 62.414 219.758 62.8675 220.576C63.321 221.393 63.6115 222.306 63.7199 223.254C63.7903 223.751 63.8204 224.255 63.8099 224.758C65.8634 228.678 66.9616 233.106 66.9999 237.62C66.9999 237.947 66.5099 241.816 66.2199 243.789C66.7899 242.263 67.3499 240.748 67.9099 239.157C68.7399 236.857 69.5399 234.404 70.3399 232.028L71.4599 228.246C71.8599 226.971 72.0999 225.706 72.4599 224.409C72.9199 222.512 73.2999 220.518 73.6799 218.545C71.4899 217.76 65.0799 215.362 62.5399 212.888C59.9999 210.413 57.2299 206.282 57.5399 202.238C57.5828 201.285 57.8091 200.352 58.2042 199.5C58.5992 198.647 59.1542 197.895 59.8331 197.292C60.512 196.689 61.2996 196.248 62.1449 195.998C62.9902 195.748 63.8743 195.694 64.7399 195.84C69.9299 196.93 73.8499 206.337 74.4499 211.427C74.4499 211.591 74.4999 212.681 74.5199 213.978C74.8399 212.038 75.1699 210.086 75.4299 208.103C76.1899 202.478 76.7899 196.712 77.4299 190.946C77.5599 189.736 77.7099 188.537 77.8399 187.338C75.9899 186.695 69.0299 184.166 66.3699 181.572C63.7099 178.978 61.0599 174.967 61.3699 170.923C61.4097 169.968 61.634 169.033 62.0281 168.179C62.4222 167.325 62.9772 166.572 63.6568 165.968C64.3364 165.364 65.1253 164.923 65.972 164.675C66.8186 164.426 67.7039 164.375 68.5699 164.524C73.7599 165.614 77.6699 175.021 78.2799 180.111C78.2799 180.286 78.2799 181.594 78.3499 183.054C78.7299 179.915 79.1499 176.809 79.6599 173.724C80.4896 168.42 81.6489 163.183 83.1299 158.05C82.4699 157.832 74.2599 155.041 71.2999 152.164C68.6699 149.602 65.9799 145.558 66.2999 141.515C66.3397 140.56 66.564 139.625 66.9581 138.771C67.3522 137.917 67.9072 137.164 68.5868 136.56C69.2664 135.956 70.0553 135.515 70.902 135.266C71.7486 135.018 72.6339 134.966 73.4999 135.116C78.6799 136.206 82.5999 145.613 83.2099 150.703C83.2099 151.063 83.3199 155.772 83.2899 157.461C83.2899 157.396 83.2899 157.33 83.3399 157.276C84.9024 152.29 86.8667 147.464 89.2099 142.855C91.2905 138.718 93.5876 134.715 96.0899 130.865C98.3799 127.279 100.67 124.162 102.73 121.415C103.85 119.933 104.9 118.603 105.89 117.371H105.78C105.68 117.371 107.61 110.7 107.78 110.297C109.7 105.61 115.93 97.7728 121.17 98.3832C122.043 98.5129 122.88 98.8424 123.628 99.3502C124.375 99.858 125.016 100.533 125.507 101.329C125.998 102.126 126.329 103.028 126.478 103.974C126.626 104.92 126.59 105.89 126.37 106.82ZM65.8799 244.814C64.9799 244.345 58.0699 240.617 55.3699 237.424C53.033 238.811 50.622 240.045 48.1499 241.119C48.7599 244.084 49.3399 246.972 49.8299 249.686C51.3899 258.275 52.3999 265.491 53.0399 270.56C53.1699 271.65 53.2899 272.598 53.3899 273.481H53.7399L54.8999 271.028C56.9899 266.527 59.8999 260.03 63.0799 252.073C63.9999 249.784 64.9399 247.343 65.8799 244.814ZM93.5199 135.051C93.5999 135.051 95.1999 128.347 95.2599 127.9C95.9099 122.821 94.4199 112.575 89.6699 110.068C88.8696 109.677 88.0027 109.474 87.1257 109.472C86.2487 109.47 85.3811 109.669 84.5794 110.057C83.7777 110.445 83.0598 111.012 82.4724 111.722C81.885 112.432 81.4412 113.268 81.1699 114.177C79.8999 117.992 81.5199 122.668 83.4299 125.884C85.6699 129.71 93.5099 135.051 93.5199 135.051Z" fill="#D842F3"/>
<path opacity="0.3" d="M-7.9501 124.412C-8.1834 123.493 -8.23656 122.53 -8.10612 121.586C-7.97569 120.643 -7.66458 119.74 -7.19302 118.936C-6.72145 118.132 -6.09998 117.445 -5.369 116.92C-4.63801 116.395 -3.81386 116.044 -2.9501 115.889C2.2799 115.115 8.6999 122.767 10.7399 127.399C10.9099 127.802 12.9999 134.408 12.8999 134.408C12.7999 134.408 3.6299 134.637 -0.100101 132.827C-3.3701 131.29 -7.0801 128.358 -7.9501 124.412ZM126.37 106.82C125.6 110.787 121.96 113.829 118.78 115.464C115.6 117.099 108.05 117.382 106.2 117.415C105.2 118.712 104.13 120.118 102.98 121.687C100.98 124.478 98.7599 127.65 96.5599 131.269C95.9699 132.239 95.3699 133.296 94.7699 134.321C96.1099 132.827 97.9599 130.811 98.1599 130.636C101.85 127.443 110.69 123.617 115.08 126.8C115.796 127.349 116.399 128.056 116.848 128.876C117.297 129.696 117.582 130.609 117.686 131.557C117.79 132.505 117.709 133.466 117.45 134.378C117.19 135.29 116.758 136.132 116.18 136.849C113.81 139.989 109.3 140.861 105.78 140.708C102.26 140.555 95.2299 136.904 93.7299 136.086C92.4399 138.364 91.1599 140.741 89.9599 143.302C87.7256 147.92 85.8749 152.746 84.4299 157.723L84.6999 157.865C85.7699 156.328 88.0999 153.156 88.3199 152.927C91.6599 149.297 100.07 144.447 104.76 147.074C105.519 147.537 106.18 148.168 106.702 148.926C107.224 149.684 107.596 150.552 107.792 151.475C107.989 152.399 108.007 153.357 107.845 154.288C107.682 155.219 107.344 156.103 106.85 156.884C104.85 160.295 100.42 161.701 96.9099 161.963C92.9099 162.279 84.4999 158.835 84.1799 158.693C82.8821 163.679 81.88 168.75 81.1799 173.877C80.6399 177.67 80.2299 181.507 79.8499 185.42C80.5799 184.33 83.6399 180.155 83.8499 179.883C87.1899 176.264 95.5999 171.402 100.28 174.04C101.048 174.501 101.718 175.133 102.247 175.894C102.776 176.656 103.152 177.531 103.35 178.461C103.548 179.392 103.564 180.358 103.397 181.296C103.23 182.234 102.883 183.122 102.38 183.905C100.38 187.305 95.9499 188.712 92.4399 188.973C88.4899 189.278 80.4399 186.019 79.7799 185.703C79.6099 187.469 79.4399 189.224 79.2799 191.001C78.7599 196.767 78.2799 202.565 77.6199 208.266C77.3899 210.239 77.1099 212.179 76.8299 214.119C77.9699 212.506 80.0899 209.618 80.2999 209.389C83.6399 205.77 92.0499 200.909 96.7399 203.546C97.4997 204.009 98.1623 204.639 98.6854 205.397C99.2085 206.155 99.5804 207.023 99.7772 207.947C99.974 208.871 99.9914 209.829 99.8282 210.761C99.6651 211.693 99.325 212.577 98.8299 213.356C96.8299 216.757 92.3999 218.163 88.8899 218.436C85.3799 218.708 78.5599 216.125 76.6499 215.362C76.1599 218.632 75.6499 221.782 74.9299 224.889C74.6099 226.229 74.3699 227.614 73.9899 228.878L72.9899 232.682C72.1899 235.255 71.4599 237.642 70.6599 240.018C70.2599 241.217 69.8699 242.34 69.4699 243.506C70.3999 241.675 71.9199 238.819 72.0799 238.568C74.8799 234.437 82.5099 228.257 87.5099 230.088C88.3332 230.415 89.084 230.927 89.7133 231.592C90.3425 232.257 90.8361 233.059 91.1617 233.945C91.4872 234.832 91.6376 235.784 91.6028 236.738C91.568 237.692 91.349 238.628 90.9599 239.484C89.4199 243.19 85.2699 245.304 81.8299 246.144C78.0499 247.081 69.9299 245.283 68.9399 245.054C67.9399 247.899 66.9399 250.645 65.9999 253.207C62.9999 261.306 60.1499 267.933 58.1199 272.543L57.7899 273.285H72.5799L67.4699 381.849C67.33 385.862 65.7662 389.66 63.1079 392.441C60.4497 395.223 56.9047 396.771 53.2199 396.76C49.5707 396.762 46.0602 395.237 43.4137 392.498C40.7672 389.759 39.1871 386.017 38.9999 382.045L33.8899 273.481H49.7699C49.6899 272.729 49.6099 271.933 49.5199 271.039C48.9899 266.025 48.1299 258.853 46.7499 250.329C46.3599 247.866 45.9099 245.261 45.4099 242.59C44.4099 242.732 36.1899 243.866 32.4799 242.59C29.1199 241.5 25.1199 239.015 23.8399 235.2C23.5118 234.315 23.3583 233.365 23.3894 232.411C23.4205 231.457 23.6354 230.521 24.0203 229.663C24.4051 228.806 24.9512 228.046 25.6231 227.434C26.2949 226.822 27.0775 226.37 27.9199 226.109C33.0299 224.682 40.2199 231.483 42.7299 235.821C42.8899 236.105 44.4399 239.625 45.1999 241.446C44.8999 239.833 44.6099 238.23 44.2699 236.552C43.7899 234.143 43.2699 231.614 42.6799 229.151C42.3599 227.886 42.0299 226.611 41.6799 225.325C41.3299 224.038 40.9299 222.818 40.5599 221.531C39.9799 219.678 39.2899 217.793 38.5599 215.907C36.3399 216.583 29.7799 218.425 26.4099 217.891C23.0399 217.357 18.6299 215.58 16.8399 212.027C16.3912 211.206 16.1063 210.291 16.0037 209.342C15.9012 208.393 15.9832 207.431 16.2446 206.518C16.5059 205.606 16.9407 204.764 17.5205 204.047C18.1004 203.331 18.8123 202.755 19.6099 202.358C24.4599 200.102 32.5099 205.628 35.6099 209.52C35.7099 209.64 36.2899 210.533 36.9599 211.602C36.2399 209.792 35.5299 207.972 34.7499 206.152C32.5299 201.007 30.1199 195.829 27.7499 190.641C27.2499 189.551 26.7499 188.461 26.2699 187.371C24.3999 187.949 17.2699 190.02 13.7799 189.464C10.2899 188.908 5.9999 187.153 4.2099 183.589C3.76871 182.768 3.49036 181.855 3.39283 180.91C3.2953 179.965 3.38076 179.008 3.64369 178.101C3.90662 177.194 4.34117 176.357 4.91927 175.644C5.49738 174.932 6.20618 174.359 6.9999 173.964C11.8499 171.718 19.8999 177.234 22.9999 181.136C23.1099 181.267 23.7999 182.335 24.5499 183.545C23.2899 180.7 22.0599 177.855 20.9199 174.978C18.9512 170.067 17.2809 165.02 15.9199 159.87C15.2699 160.077 6.9999 162.693 3.0699 162.05C-0.410103 161.505 -4.7001 159.739 -6.4901 156.186C-6.93909 155.366 -7.22451 154.451 -7.32779 153.503C-7.43106 152.554 -7.34986 151.593 -7.08948 150.68C-6.82911 149.768 -6.39539 148.926 -5.81658 148.209C-5.23777 147.492 -4.52684 146.915 -3.7301 146.518C1.1299 144.272 9.1799 149.788 12.2699 153.679C12.4899 153.962 14.9299 157.843 15.7599 159.271C15.7555 159.209 15.7555 159.147 15.7599 159.085C14.5368 153.989 13.7336 148.783 13.3599 143.531C12.9923 138.845 12.8721 134.139 12.9999 129.437C13.0999 125.077 13.4299 121.088 13.7499 117.567C13.9399 115.66 14.1399 113.916 14.3499 112.292L14.2599 112.357C14.1699 112.422 12.4099 105.708 12.3399 105.272C11.5599 100.204 12.7999 89.9248 17.4799 87.2761C18.2697 86.8612 19.1308 86.6321 20.0071 86.6036C20.8835 86.5751 21.7555 86.7479 22.5666 87.1108C23.3777 87.4737 24.1096 88.0185 24.7149 88.7099C25.3202 89.4013 25.7853 90.2237 26.0799 91.1238C27.4399 94.9061 25.9399 99.6258 24.0799 102.907C22.2199 106.188 16.0799 110.951 14.5799 112.095C14.3999 113.785 14.2199 115.594 14.0599 117.545C13.8099 121.066 13.5599 125.045 13.5499 129.394C13.5499 130.56 13.5499 131.803 13.5999 133.013C13.9599 130.963 14.4899 128.173 14.5999 127.9C16.0499 123.017 21.4899 114.515 26.7699 114.526C27.6457 114.554 28.5063 114.782 29.2958 115.197C30.0852 115.611 30.7857 116.202 31.3517 116.931C31.9177 117.66 32.3365 118.511 32.5809 119.428C32.8252 120.345 32.8896 121.308 32.7699 122.254C32.3899 126.298 29.0599 129.732 26.0499 131.726C23.0399 133.721 15.2899 134.953 13.6299 135.16C13.7099 137.841 13.8399 140.61 14.1399 143.444C14.6142 148.636 15.5111 153.772 16.8199 158.791H17.1199C17.2399 156.862 17.5799 152.818 17.6399 152.48C18.6399 147.455 23.1399 138.31 28.3899 137.732C29.2632 137.655 30.1415 137.78 30.9678 138.097C31.794 138.415 32.5496 138.919 33.1854 139.576C33.8212 140.233 34.323 141.028 34.658 141.911C34.993 142.793 35.1538 143.743 35.1299 144.697C35.1299 148.752 32.1999 152.578 29.4099 154.911C26.1899 157.603 17.4699 159.761 17.1399 159.837C18.5644 164.787 20.2847 169.63 22.2899 174.334C23.7599 177.822 25.3699 181.3 27.0199 184.766C27.0799 183.403 27.5199 178.095 27.5899 177.713C28.5899 172.689 33.0899 163.543 38.3399 162.955C39.2128 162.88 40.0905 163.005 40.916 163.324C41.7416 163.642 42.4966 164.146 43.132 164.802C43.7675 165.459 44.2692 166.254 44.6048 167.136C44.9404 168.017 45.1022 168.966 45.0799 169.92C45.0799 173.986 42.1399 177.801 39.3499 180.133C36.2099 182.76 27.8699 184.875 27.1599 185.049C27.9099 186.619 28.6599 188.199 29.4199 189.769C31.9099 194.903 34.4199 200.026 36.7799 205.171C37.5899 206.958 38.3299 208.746 39.0799 210.533C39.2099 208.495 39.5299 204.811 39.5799 204.495C40.5799 199.47 45.0899 190.325 50.3299 189.736C51.2032 189.659 52.0815 189.784 52.9078 190.101C53.734 190.419 54.4896 190.923 55.1254 191.58C55.7612 192.237 56.263 193.032 56.598 193.915C56.933 194.797 57.0938 195.747 57.0699 196.701C57.0699 200.767 54.1399 204.582 51.3499 206.915C48.5599 209.247 41.5599 211.198 39.5899 211.721C40.8199 214.73 41.9999 217.673 42.9999 220.681C43.4099 221.989 43.8999 223.286 44.2299 224.562L45.2899 228.366C45.9199 230.993 46.5199 233.423 47.0599 235.887C47.3399 237.129 47.5699 238.307 47.8299 239.506C47.6799 237.435 47.4999 234.132 47.5099 233.827C47.7599 228.704 50.9899 218.948 56.0899 217.477C56.9427 217.256 57.8286 217.235 58.6897 217.413C59.5508 217.59 60.3679 217.964 61.0877 218.509C61.8076 219.054 62.414 219.758 62.8675 220.576C63.321 221.393 63.6115 222.306 63.7199 223.254C63.7903 223.751 63.8204 224.255 63.8099 224.758C65.8634 228.678 66.9616 233.106 66.9999 237.62C66.9999 237.947 66.5099 241.816 66.2199 243.789C66.7899 242.263 67.3499 240.748 67.9099 239.157C68.7399 236.857 69.5399 234.404 70.3399 232.028L71.4599 228.246C71.8599 226.971 72.0999 225.706 72.4599 224.409C72.9199 222.512 73.2999 220.518 73.6799 218.545C71.4899 217.76 65.0799 215.362 62.5399 212.888C59.9999 210.413 57.2299 206.282 57.5399 202.238C57.5828 201.285 57.8091 200.352 58.2042 199.5C58.5992 198.647 59.1542 197.895 59.8331 197.292C60.512 196.689 61.2996 196.248 62.1449 195.998C62.9902 195.748 63.8743 195.694 64.7399 195.84C69.9299 196.93 73.8499 206.337 74.4499 211.427C74.4499 211.591 74.4999 212.681 74.5199 213.978C74.8399 212.038 75.1699 210.086 75.4299 208.103C76.1899 202.478 76.7899 196.712 77.4299 190.946C77.5599 189.736 77.7099 188.537 77.8399 187.338C75.9899 186.695 69.0299 184.166 66.3699 181.572C63.7099 178.978 61.0599 174.967 61.3699 170.923C61.4097 169.968 61.634 169.033 62.0281 168.179C62.4222 167.325 62.9772 166.572 63.6568 165.968C64.3364 165.364 65.1253 164.923 65.972 164.675C66.8186 164.426 67.7039 164.375 68.5699 164.524C73.7599 165.614 77.6699 175.021 78.2799 180.111C78.2799 180.286 78.2799 181.594 78.3499 183.054C78.7299 179.915 79.1499 176.809 79.6599 173.724C80.4896 168.42 81.6489 163.183 83.1299 158.05C82.4699 157.832 74.2599 155.041 71.2999 152.164C68.6699 149.602 65.9799 145.558 66.2999 141.515C66.3397 140.56 66.564 139.625 66.9581 138.771C67.3522 137.917 67.9072 137.164 68.5868 136.56C69.2664 135.956 70.0553 135.515 70.902 135.266C71.7486 135.018 72.6339 134.966 73.4999 135.116C78.6799 136.206 82.5999 145.613 83.2099 150.703C83.2099 151.063 83.3199 155.772 83.2899 157.461C83.2899 157.396 83.2899 157.33 83.3399 157.276C84.9024 152.29 86.8667 147.464 89.2099 142.855C91.2905 138.718 93.5876 134.715 96.0899 130.865C98.3799 127.279 100.67 124.162 102.73 121.415C103.85 119.933 104.9 118.603 105.89 117.371H105.78C105.68 117.371 107.61 110.7 107.78 110.297C109.7 105.61 115.93 97.7728 121.17 98.3832C122.043 98.5129 122.88 98.8424 123.628 99.3502C124.375 99.858 125.016 100.533 125.507 101.329C125.998 102.126 126.329 103.028 126.478 103.974C126.626 104.92 126.59 105.89 126.37 106.82ZM65.8799 244.814C64.9799 244.345 58.0699 240.617 55.3699 237.424C53.033 238.811 50.622 240.045 48.1499 241.119C48.7599 244.084 49.3399 246.972 49.8299 249.686C51.3899 258.275 52.3999 265.491 53.0399 270.56C53.1699 271.65 53.2899 272.598 53.3899 273.481H53.7399L54.8999 271.028C56.9899 266.527 59.8999 260.03 63.0799 252.073C63.9999 249.784 64.9399 247.343 65.8799 244.814ZM93.5199 135.051C93.5999 135.051 95.1999 128.347 95.2599 127.9C95.9099 122.821 94.4199 112.575 89.6699 110.068C88.8696 109.677 88.0027 109.474 87.1257 109.472C86.2487 109.47 85.3811 109.669 84.5794 110.057C83.7777 110.445 83.0598 111.012 82.4724 111.722C81.885 112.432 81.4412 113.268 81.1699 114.177C79.8999 117.992 81.5199 122.668 83.4299 125.884C85.6699 129.71 93.5099 135.051 93.5199 135.051Z" fill="white"/>
<path d="M376.611 173.594C376.611 173.594 366.831 181.747 365.481 188.025C364.131 194.304 365.871 200.985 367.021 204.964C368.171 208.942 368.361 228.181 357.621 236.748C346.881 245.316 342.081 253.894 343.231 264.565C344.381 275.236 358.961 286.943 371.051 289.635C383.141 292.328 400.211 286.289 406.921 270.604C413.631 254.919 404.621 237.62 399.631 227.81C394.641 218 395.031 208.779 400.631 208.365C406.231 207.951 409.071 209.455 409.271 200.833C409.471 192.211 407.541 178.88 397.371 172.188C387.201 165.495 376.611 173.594 376.611 173.594Z" fill="#2E353A" stroke="#2E353A" stroke-linecap="round" stroke-linejoin="round"/>
<path d="M352.531 278.778C353.531 279.509 362.531 283.509 369.191 272.238C375.851 260.968 366.781 250.58 368.531 240.628" stroke="white" stroke-width="0.5" stroke-miterlimit="10"/>
<path d="M387.551 186.565C387.551 186.565 384.431 175.577 391.191 179.142C398.441 182.957 404.191 200.942 401.691 205.029" stroke="white" stroke-width="0.5" stroke-miterlimit="10"/>
<path d="M385.691 185.137C385.691 185.137 381.941 177.234 384.441 173.692C386.941 170.149 392.691 174.237 395.691 176.689" stroke="white" stroke-width="0.5" stroke-miterlimit="10"/>
<path d="M394.19 206.664C394.19 206.664 395.19 211.569 392.19 221.379C389.19 231.189 383.69 242.362 389.19 252.717C394.69 263.072 398.94 270.157 392.69 280.512" stroke="white" stroke-width="0.5" stroke-miterlimit="10"/>
<path d="M394.19 212.387C394.407 218.776 393.988 225.171 392.94 231.462C391.19 242.362 396.69 249.447 402.44 256.259C408.19 263.072 406.69 268.794 404.69 275.062" stroke="white" stroke-width="0.5" stroke-miterlimit="10"/>
<path d="M385.441 186.772C385.441 186.772 373.691 187.862 370.191 186.227C366.691 184.592 367.441 183.229 367.441 183.229" stroke="white" stroke-width="0.5" stroke-miterlimit="10"/>
<path d="M387.001 230.306C387.001 230.306 388.531 247.245 390.491 257.044C392.451 266.843 395.571 279.214 394.791 282.626C394.011 286.038 376.791 315.021 376.791 315.021L371.711 311.184L382.271 276.653L373.381 244.28C373.381 244.28 381.521 231.276 387.001 230.306Z" fill="white" stroke="#2E353A" stroke-linecap="round" stroke-linejoin="round"/>
<path d="M385.631 227.549C383.131 224.409 377.761 216.256 377.761 216.256L369.321 205.356L357.621 187.796C356.081 185.496 350.901 186.325 335.941 186.543C320.981 186.761 275.571 177.343 275.571 177.343L274.041 188.243C274.041 188.243 315.601 198.053 326.151 199.143C336.701 200.233 346.491 201.65 346.491 201.65C345.05 204.779 343.768 207.992 342.651 211.275C341.501 215.035 328.071 235.113 328.071 235.113C328.071 235.113 327.741 235.331 327.171 235.745C327.021 239.386 327.341 247.114 332.331 251.191C336.191 254.341 341.841 255.671 345.921 256.227C345.991 255.976 346.051 255.758 346.101 255.605C346.681 253.927 350.901 251.42 353.201 251.245C355.501 251.071 362.601 251.452 366.831 251.038C371.061 250.624 373.351 244.346 373.351 244.346C373.351 244.346 382.671 234.427 386.961 230.372C386.695 229.343 386.243 228.383 385.631 227.549Z" fill="white" stroke="#2E353A" stroke-linecap="round" stroke-linejoin="round"/>
<path d="M351.8 204.179L346.49 201.618L350.35 208.31" stroke="#2E353A" stroke-width="0.75" stroke-linecap="round" stroke-linejoin="round"/>
<path d="M338.41 242.264C342.407 244.966 347.135 246.086 351.8 245.436" stroke="#2E353A" stroke-width="0.75" stroke-linecap="round" stroke-linejoin="round"/>
<path d="M334 234.645C334 234.645 334.87 238.46 340.41 240.999" stroke="#2E353A" stroke-width="0.75" stroke-linecap="round" stroke-linejoin="round"/>
<path d="M382.24 276.653C382.24 276.653 385.87 274.953 388.78 279.4" stroke="#2E353A" stroke-width="0.75" stroke-linecap="round" stroke-linejoin="round"/>
<path d="M383.252 247.027L373.352 244.28L382.082 251.79" stroke="#2E353A" stroke-width="0.75" stroke-linecap="round" stroke-linejoin="round"/>
<path d="M356.171 191.84C356.171 191.84 351.221 201.356 345.401 201.04C337.491 200.604 315.111 193.41 315.111 190.881C315.111 188.352 321.231 187.393 321.231 187.393" stroke="#2E353A" stroke-width="0.75" stroke-linecap="round" stroke-linejoin="round"/>
<path d="M373.351 199.732C373.351 199.732 369.351 198.642 366.441 200.571C363.531 202.501 355.891 220.649 355.891 220.649C355.891 220.649 356.461 221.488 358.771 221.488C361.081 221.488 361.651 224.835 361.651 227.963C361.651 231.091 361.451 232.563 362.411 232.323C363.371 232.083 369.131 229.816 370.281 230.655C371.431 231.495 368.741 235.669 369.281 236.105C369.821 236.541 374.651 231.288 376.191 225.641C377.731 219.995 379.261 211.635 378.871 208.289C378.481 204.942 376.001 200.56 373.351 199.732Z" fill="#D842F3" stroke="#2E353A" stroke-linecap="round" stroke-linejoin="round"/>
<path d="M376.611 217.095C374.498 219.665 372.258 222.106 369.901 224.409C365.481 228.769 361.841 231.941 362.031 229.859C362.221 227.777 366.631 216.474 367.781 210.239C368.931 204.005 371.051 199.775 373.351 199.775C375.651 199.775 380.641 212.55 376.611 217.095Z" fill="white" stroke="#2E353A" stroke-linecap="round" stroke-linejoin="round"/>
<path d="M374.311 190.118C374.465 190.627 374.715 191.096 375.046 191.492C375.377 191.888 375.781 192.204 376.231 192.418C377.571 192.832 387.551 186.565 387.551 186.565C387.551 186.565 394.651 203.078 393.491 205.585C392.331 208.092 388.891 211.243 385.051 214.164C381.211 217.085 374.121 219.396 371.431 217.717C368.741 216.039 370.661 198.904 370.661 198.904C370.661 198.904 368.551 196.179 370.851 191.786C373.151 187.393 374.311 190.118 374.311 190.118Z" fill="white" stroke="#2E353A" stroke-linecap="round" stroke-linejoin="round"/>
<path d="M390.381 207.176C390.381 207.176 390.551 205.879 388.331 205.879C386.111 205.879 382.211 210.327 382.211 210.327" stroke="#2E353A" stroke-width="0.75" stroke-linecap="round" stroke-linejoin="round"/>
<path d="M380.68 210.697L379.49 209.4" stroke="#2E353A" stroke-width="0.75" stroke-linecap="round" stroke-linejoin="round"/>
<path d="M379 213.117C379 213.117 375.94 212.561 375.43 208.289" stroke="#2E353A" stroke-width="0.75" stroke-linecap="round" stroke-linejoin="round"/>
<path d="M386.08 200.44C386.08 200.44 385.32 196.375 382.08 195.59" stroke="#2E353A" stroke-width="0.75" stroke-linecap="round" stroke-linejoin="round"/>
<path d="M382.231 202.62C381.451 203.285 380.591 203.503 380.301 203.1C380.011 202.697 380.401 201.836 381.171 201.171C381.941 200.506 382.811 200.288 383.101 200.691C383.391 201.094 383.001 201.955 382.231 202.62Z" fill="#2E353A"/>
<path d="M387.051 209.487C386.411 210.032 385.701 210.218 385.461 209.88C385.221 209.542 385.541 208.79 386.181 208.277C386.821 207.765 387.531 207.558 387.771 207.885C388.011 208.212 387.691 208.931 387.051 209.487Z" fill="#2E353A"/>
<path d="M368.38 387.463L378.19 402.319C378.19 402.319 378.19 405.044 374.69 405.044C371.19 405.044 369.19 405.044 367.19 402.319C365.19 399.594 365.19 397.959 363.19 396.869C361.19 395.779 359.19 395.779 360.19 389.784C361.19 383.789 368.38 387.463 368.38 387.463Z" fill="white" stroke="#2E353A" stroke-linecap="round" stroke-linejoin="round"/>
<path d="M378.151 402.657C376.597 403.47 374.854 403.752 373.151 403.464C369.611 402.766 367.461 398.907 366.151 397.251C364.841 395.594 363.241 395.605 361.731 394.22C361.012 393.551 360.386 392.773 359.871 391.91C359.661 395.79 361.391 395.921 363.111 396.869C365.111 397.959 365.111 399.594 367.111 402.319C369.111 405.044 371.111 405.044 374.611 405.044C377.421 405.044 378.001 403.387 378.151 402.657Z" fill="white" stroke="#2E353A" stroke-linecap="round" stroke-linejoin="round"/>
<path d="M367.821 385.577C365.821 379.037 362.971 339.884 361.491 327.491C358.491 302.29 345.151 269.579 345.151 269.579L345.921 256.194C341.841 255.638 336.191 254.308 332.331 251.158C327.331 247.082 327.021 239.353 327.171 235.713C324.641 237.49 317.171 242.841 310.801 248.466C302.941 255.366 297.561 279.836 296.031 287.564C294.501 295.292 292.771 318.084 292.771 318.084C292.771 318.084 278.951 323.938 273.391 332.254C267.831 340.571 250.941 359.439 250.941 359.439L252.481 365.717C252.481 365.717 257.661 361.75 262.071 357.978C266.481 354.207 300.831 333.301 303.131 331.818C305.431 330.336 308.131 327.458 311.191 319.065C312.311 316.002 313.891 310.988 315.451 305.854L320.781 287.76L325.911 282.997C330.971 297.908 342.731 326.652 344.401 330.761C346.401 335.688 347.921 357.597 353.451 371.298C358.981 384.999 360.451 391.572 360.451 391.572C360.451 391.572 369.831 392.15 367.821 385.577Z" fill="#2E353A" stroke="#2E353A" stroke-linecap="round" stroke-linejoin="round"/>
<path d="M345.59 258.777L347.5 270.931" stroke="white" stroke-width="0.5" stroke-miterlimit="10"/>
<path d="M75.1806 164.906L46.3006 432.283C46.2615 432.668 46.3222 433.058 46.4759 433.407C46.6296 433.756 46.8701 434.052 47.1701 434.259C47.4701 434.467 47.8175 434.579 48.1729 434.582C48.5283 434.586 48.8774 434.48 49.1806 434.278L67.7406 421.83C68.8422 421.086 70.1659 420.837 71.4326 421.136C72.6993 421.435 73.81 422.258 74.5306 423.432L97.8506 461.223L107.581 302.257L75.1806 164.906Z" fill="#D842F3" stroke="#2E353A" stroke-linecap="round" stroke-linejoin="round"/>
<path d="M75.001 171.632L48.901 425.602C48.8446 426.15 48.9362 426.704 49.1645 427.196C49.3929 427.689 49.7481 428.097 50.1866 428.373C50.6251 428.648 51.1278 428.778 51.633 428.747C52.1382 428.715 52.6241 428.524 53.031 428.196L66.601 417.296C67.3067 416.727 68.1115 416.321 68.9662 416.103C69.8209 415.885 70.7074 415.859 71.5715 416.027C72.4355 416.196 73.259 416.555 73.9914 417.082C74.7238 417.609 75.3498 418.294 75.831 419.094L91.711 445.516C91.883 445.809 92.1403 446.032 92.4418 446.147C92.7434 446.263 93.0717 446.265 93.3744 446.153C93.6771 446.041 93.9368 445.823 94.112 445.531C94.2872 445.24 94.3678 444.893 94.341 444.546L75.801 171.643C75.7817 171.543 75.732 171.454 75.66 171.39C75.588 171.325 75.4981 171.289 75.405 171.288C75.3118 171.287 75.2211 171.32 75.1477 171.383C75.0742 171.445 75.0225 171.533 75.001 171.632Z" fill="#D842F3" stroke="#2E353A" stroke-linecap="round" stroke-linejoin="round"/>
<path opacity="0.6" d="M75.3614 167.948L48.8814 425.58C48.825 426.128 48.9166 426.682 49.145 427.175C49.3734 427.667 49.7286 428.076 50.1671 428.351C50.6055 428.627 51.1082 428.757 51.6135 428.725C52.1187 428.694 52.6046 428.502 53.0114 428.174L66.5814 417.274C67.2872 416.705 68.092 416.299 68.9467 416.081C69.8013 415.863 70.6878 415.837 71.5519 416.006C72.416 416.174 73.2395 416.533 73.9719 417.06C74.7043 417.588 75.3303 418.272 75.8114 419.073L91.6914 445.494C91.8635 445.788 92.1208 446.01 92.4223 446.126C92.7238 446.241 93.0521 446.243 93.3549 446.131C93.6576 446.02 93.9173 445.801 94.0925 445.509C94.2677 445.218 94.3483 444.871 94.3214 444.524L75.5514 167.948C75.5449 167.926 75.5321 167.907 75.5151 167.893C75.498 167.88 75.4775 167.873 75.4564 167.873C75.4354 167.873 75.4149 167.88 75.3978 167.893C75.3807 167.907 75.368 167.926 75.3614 167.948Z" fill="black"/>
<path d="M70.5314 415.879C71.5819 415.899 72.6121 416.198 73.5323 416.751C74.4525 417.304 75.2349 418.093 75.8114 419.051L91.6914 445.472C91.8635 445.766 92.1208 445.988 92.4223 446.104C92.7238 446.219 93.0521 446.221 93.3548 446.11C93.6576 445.998 93.9172 445.779 94.0924 445.488C94.2676 445.196 94.3483 444.849 94.3214 444.502L92.0514 411.105L70.1914 415.77C70.3076 415.795 70.4214 415.831 70.5314 415.879Z" fill="#D842F3" stroke="#2E353A" stroke-linecap="round" stroke-linejoin="round"/>
<path opacity="0.3" d="M70.5314 415.879C71.5819 415.899 72.6121 416.198 73.5323 416.751C74.4525 417.304 75.2349 418.093 75.8114 419.051L91.6914 445.472C91.8635 445.766 92.1208 445.988 92.4223 446.104C92.7238 446.219 93.0521 446.221 93.3548 446.11C93.6576 445.998 93.9172 445.779 94.0924 445.488C94.2676 445.196 94.3483 444.849 94.3214 444.502L92.0514 411.105L70.1914 415.77C70.3076 415.795 70.4214 415.831 70.5314 415.879Z" fill="black"/>
<path d="M75.7715 164.743L97.8415 461.223L355.191 407.77L294.711 176.548L75.7715 164.743Z" fill="#2E353A" stroke="#2E353A" stroke-linecap="round" stroke-linejoin="round"/>
<path d="M87.7012 171.141L102.861 445.549L344.861 397.589L293.851 184.396L87.7012 171.141Z" fill="#D842F3" stroke="#2E353A" stroke-linecap="round" stroke-linejoin="round"/>
<path d="M102.49 306.181L114 436.251L333.88 392.673L313.45 294.911L102.49 306.181Z" fill="white" stroke="#2E353A" stroke-linecap="round" stroke-linejoin="round"/>
<path d="M144.931 429.776L141.281 387.997" stroke="#2E353A" stroke-linecap="round" stroke-linejoin="round"/>
<path d="M178.581 423.313L175.061 388.487" stroke="#2E353A" stroke-linecap="round" stroke-linejoin="round"/>
<path d="M211.571 416.348L207.461 388.487" stroke="#2E353A" stroke-linecap="round" stroke-linejoin="round"/>
<path d="M245.56 409.993L240.67 376.781" stroke="#2E353A" stroke-linecap="round" stroke-linejoin="round"/>
<path d="M275.5 404.107L271.33 371.69" stroke="#2E353A" stroke-linecap="round" stroke-linejoin="round"/>
<path d="M304.21 398.319L298 359.341" stroke="#2E353A" stroke-linecap="round" stroke-linejoin="round"/>
<path d="M371.68 311.184C371.68 311.184 368.62 314.542 368.42 316.286C368.22 318.03 369.82 323.283 369.82 323.283L374.64 324.155L376.76 315.021L371.68 311.184Z" fill="white" stroke="#2E353A" stroke-linecap="round" stroke-linejoin="round"/>
<g style="mix-blend-mode:multiply" opacity="0.49">
<path d="M88.9199 246.951C88.9199 246.951 93.9999 326.641 98.6699 355.7C103.34 384.759 112 428.25 112 428.25C112 428.25 262 402.941 336 368.78L330 337.541L88.9199 246.951Z" fill="#D842F3"/>
</g>
<path d="M82.1406 168.155L292.811 180.526C292.811 180.526 313.321 247.507 333.731 285.33C354.141 323.153 387.801 320.689 387.801 320.689C387.801 320.689 310.601 366.698 250.471 391.191C187.891 416.664 133.621 421.242 133.621 421.242C133.621 421.242 84.1906 347.645 82.1406 168.155Z" fill="#D842F3" stroke="#2E353A" stroke-linecap="round" stroke-linejoin="round"/>
<path d="M106.261 156.23C102.351 156.23 99.5209 160.012 98.6309 165.942L102.631 166.182C103.251 162.759 104.481 160.59 106.251 160.59C108.311 160.59 110.601 164.198 110.601 169.386C110.601 174.575 108.311 178.193 106.251 178.193C105.72 178.193 105.212 178.423 104.837 178.832C104.462 179.241 104.251 179.795 104.251 180.373C104.251 180.952 104.462 181.506 104.837 181.915C105.212 182.324 105.72 182.553 106.251 182.553C110.931 182.553 114.601 176.766 114.601 169.386C114.601 162.007 110.941 156.23 106.261 156.23Z" fill="white" stroke="#2E353A" stroke-miterlimit="10"/>
<path d="M112 172.918C111.808 173.687 111.561 174.438 111.26 175.163" stroke="#2E353A" stroke-width="0.75" stroke-linecap="round" stroke-linejoin="round"/>
<path d="M100.611 163.98C100.611 163.98 102.111 158.072 106.541 158.399C110.021 158.661 112.891 164.296 112.411 170.324" stroke="#2E353A" stroke-width="0.75" stroke-linecap="round" stroke-linejoin="round"/>
<path d="M141.001 158.138C137.091 158.138 134.261 161.92 133.371 167.85L137.371 168.089C137.991 164.667 139.221 162.498 140.991 162.498C143.051 162.498 145.341 166.106 145.341 171.294C145.341 176.482 143.051 180.101 140.991 180.101C140.461 180.101 139.952 180.331 139.577 180.74C139.202 181.149 138.991 181.703 138.991 182.281C138.991 182.859 139.202 183.414 139.577 183.823C139.952 184.232 140.461 184.461 140.991 184.461C145.671 184.461 149.341 178.673 149.341 171.294C149.341 163.915 145.691 158.138 141.001 158.138Z" fill="white" stroke="#2E353A" stroke-miterlimit="10"/>
<path d="M146.75 174.826C146.558 175.594 146.311 176.345 146.01 177.071" stroke="#2E353A" stroke-width="0.75" stroke-linecap="round" stroke-linejoin="round"/>
<path d="M135.361 165.887C135.361 165.887 136.861 159.98 141.291 160.307C144.771 160.568 147.641 166.203 147.161 172.231" stroke="#2E353A" stroke-width="0.75" stroke-linecap="round" stroke-linejoin="round"/>
<path d="M175.761 160.045C171.851 160.045 169.021 163.827 168.131 169.757L172.131 169.997C172.751 166.574 173.981 164.405 175.751 164.405C177.811 164.405 180.101 168.013 180.101 173.201C180.101 178.39 177.811 182.008 175.751 182.008C175.22 182.008 174.712 182.238 174.337 182.647C173.962 183.056 173.751 183.61 173.751 184.188C173.751 184.767 173.962 185.321 174.337 185.73C174.712 186.139 175.22 186.368 175.751 186.368C180.431 186.368 184.101 180.581 184.101 173.201C184.101 165.822 180.441 160.045 175.761 160.045Z" fill="white" stroke="#2E353A" stroke-miterlimit="10"/>
<path d="M181.5 176.733C181.308 177.502 181.061 178.252 180.76 178.978" stroke="#2E353A" stroke-width="0.75" stroke-linecap="round" stroke-linejoin="round"/>
<path d="M170.111 167.795C170.111 167.795 171.611 161.887 176.041 162.214C179.521 162.476 182.391 168.111 181.911 174.139" stroke="#2E353A" stroke-width="0.75" stroke-linecap="round" stroke-linejoin="round"/>
<path d="M210.511 161.953C206.601 161.953 203.771 165.735 202.881 171.665L206.881 171.904C207.501 168.482 208.731 166.313 210.501 166.313C212.561 166.313 214.851 169.921 214.851 175.109C214.851 180.297 212.561 183.916 210.501 183.916C209.97 183.916 209.462 184.146 209.087 184.555C208.712 184.963 208.501 185.518 208.501 186.096C208.501 186.674 208.712 187.229 209.087 187.638C209.462 188.046 209.97 188.276 210.501 188.276C215.181 188.276 218.851 182.488 218.851 175.109C218.851 167.73 215.191 161.953 210.511 161.953Z" fill="white" stroke="#2E353A" stroke-miterlimit="10"/>
<path d="M216.25 178.641C216.058 179.409 215.811 180.16 215.51 180.886" stroke="#2E353A" stroke-width="0.75" stroke-linecap="round" stroke-linejoin="round"/>
<path d="M204.861 169.702C204.861 169.702 206.361 163.794 210.791 164.121C214.271 164.383 217.141 170.018 216.661 176.046" stroke="#2E353A" stroke-width="0.75" stroke-linecap="round" stroke-linejoin="round"/>
<path d="M245.892 163.642C241.982 163.642 239.151 167.424 238.271 173.365L242.271 173.605C242.901 170.182 244.132 168.002 245.892 168.002C247.952 168.002 250.251 171.621 250.251 176.809C250.251 181.998 247.952 185.606 245.892 185.606C245.361 185.606 244.852 185.835 244.477 186.244C244.102 186.653 243.892 187.207 243.892 187.786C243.892 188.364 244.102 188.918 244.477 189.327C244.852 189.736 245.361 189.966 245.892 189.966C250.582 189.966 254.251 184.189 254.251 176.809C254.251 169.43 250.582 163.642 245.892 163.642Z" fill="white" stroke="#2E353A" stroke-miterlimit="10"/>
<path d="M251.631 180.341C251.441 181.107 251.193 181.854 250.891 182.575" stroke="#2E353A" stroke-width="0.75" stroke-linecap="round" stroke-linejoin="round"/>
<path d="M240.24 171.403C240.24 171.403 241.75 165.484 246.17 165.811C249.66 166.073 252.52 171.719 252.05 177.746" stroke="#2E353A" stroke-width="0.75" stroke-linecap="round" stroke-linejoin="round"/>
<path d="M279.88 165.68C275.97 165.68 273.14 169.462 272.26 175.392L276.26 175.643C276.89 172.22 278.12 170.04 279.88 170.04C281.94 170.04 284.24 173.659 284.24 178.836C284.24 184.014 281.94 187.644 279.88 187.644C279.349 187.644 278.841 187.873 278.466 188.282C278.09 188.691 277.88 189.245 277.88 189.824C277.88 190.402 278.09 190.956 278.466 191.365C278.841 191.774 279.349 192.004 279.88 192.004C284.57 192.004 288.24 186.216 288.24 178.836C288.24 171.457 284.57 165.68 279.88 165.68Z" fill="white" stroke="#2E353A" stroke-miterlimit="10"/>
<path d="M285.621 182.313C285.433 183.083 285.185 183.834 284.881 184.559" stroke="#2E353A" stroke-width="0.75" stroke-linecap="round" stroke-linejoin="round"/>
<path d="M274.23 173.387C274.23 173.387 275.74 167.468 280.16 167.795C283.65 168.056 286.51 173.692 286.04 179.719" stroke="#2E353A" stroke-width="0.75" stroke-linecap="round" stroke-linejoin="round"/>
<path d="M376.761 315.01C376.761 315.01 378.761 317.997 378.761 319.272C378.761 320.547 376.021 322.684 376.021 325.659C376.021 328.635 372.501 327.839 372.111 325.659C371.721 323.479 372.891 320.547 372.891 320.547C372.891 320.547 371.261 319.457 370.891 315.621C370.521 311.784 373.691 312.874 373.691 312.874L376.761 315.01Z" fill="white" stroke="#2E353A" stroke-linecap="round" stroke-linejoin="round"/>
<path d="M326.761 285.504C312.271 258.646 297.051 216.235 291.641 200.626L103.371 192.309C103.251 343.983 145.371 406.647 145.371 406.647C145.371 406.647 193.321 402.603 248.621 380.083C301.761 358.447 365.141 322.128 365.141 322.128C365.141 322.128 344.791 318.934 326.761 285.504Z" fill="white" stroke="#2E353A" stroke-linecap="round" stroke-linejoin="round"/>
<path d="M291.641 200.626L103.371 192.309C103.371 207.231 103.761 221.27 104.481 234.492L303.301 232.465C298.151 219.09 294.001 207.373 291.641 200.626Z" fill="#2E353A" stroke="#2E353A" stroke-linecap="round" stroke-linejoin="round"/>
<path d="M294.971 245.839L303.871 245.501" stroke="#2E353A" stroke-width="3" stroke-linecap="round" stroke-linejoin="round"/>
<path d="M268.811 246.809L288.301 246.079" stroke="#2E353A" stroke-width="3" stroke-linecap="round" stroke-linejoin="round"/>
<path d="M237.141 247.975L262.191 247.049" stroke="#2E353A" stroke-width="3" stroke-linecap="round" stroke-linejoin="round"/>
<path d="M204.92 249.164L231.61 248.183" stroke="#2E353A" stroke-width="3" stroke-linecap="round" stroke-linejoin="round"/>
<path d="M173.771 250.319L198.241 249.414" stroke="#2E353A" stroke-width="3" stroke-linecap="round" stroke-linejoin="round"/>
<path d="M140.951 251.54L165.441 250.624" stroke="#2E353A" stroke-width="3" stroke-linecap="round" stroke-linejoin="round"/>
<path d="M112.061 252.608L134.851 251.758" stroke="#2E353A" stroke-width="3" stroke-linecap="round" stroke-linejoin="round"/>
<path d="M108.352 275.988L315.482 262.232" stroke="#2E353A" stroke-linecap="round" stroke-linejoin="round"/>
<path d="M141.08 274.048C141.08 274.048 144.48 334.086 180.79 400.728" stroke="#2E353A" stroke-linecap="round" stroke-linejoin="round"/>
<path d="M174.5 271.639C174.5 271.639 178.33 340.309 218.14 390.591" stroke="#2E353A" stroke-linecap="round" stroke-linejoin="round"/>
<path d="M204.76 269.612C204.76 269.612 206.76 332.832 251.51 378.263" stroke="#2E353A" stroke-linecap="round" stroke-linejoin="round"/>
<path d="M236.131 268.14C236.131 268.14 241.071 338.423 284.381 363.177" stroke="#2E353A" stroke-linecap="round" stroke-linejoin="round"/>
<path d="M269 265.317C269 265.317 272.48 318.477 316.78 347.591" stroke="#2E353A" stroke-linecap="round" stroke-linejoin="round"/>
<path d="M294.881 263.595C294.881 263.595 306.801 318.095 340.151 335.742" stroke="#2E353A" stroke-linecap="round" stroke-linejoin="round"/>
<path d="M112.891 306.955L324.451 281.591" stroke="#2E353A" stroke-linecap="round" stroke-linejoin="round"/>
<path d="M118.41 334.085C118.41 334.085 163.58 332.156 334.29 297.865" stroke="#2E353A" stroke-linecap="round" stroke-linejoin="round"/>
<path d="M126.381 362.807C126.381 362.807 170.381 368.257 342.761 308.427" stroke="#2E353A" stroke-linecap="round" stroke-linejoin="round"/>
<path d="M135.9 387.866C135.9 387.866 172.58 401.109 352.76 317.016" stroke="#2E353A" stroke-linecap="round" stroke-linejoin="round"/>
<path d="M184.692 221.979L116.872 220.987C116.322 220.978 115.794 220.752 115.386 220.351C114.978 219.95 114.717 219.402 114.652 218.807L114.072 212.834C114.037 212.49 114.071 212.142 114.169 211.814C114.268 211.485 114.429 211.183 114.643 210.927C114.857 210.672 115.118 210.469 115.409 210.331C115.7 210.194 116.014 210.126 116.332 210.131L183.332 211.395C183.827 211.404 184.305 211.591 184.694 211.926C185.082 212.261 185.359 212.725 185.482 213.248L186.842 218.927C186.927 219.286 186.935 219.662 186.868 220.025C186.8 220.388 186.657 220.73 186.449 221.024C186.242 221.319 185.976 221.557 185.671 221.723C185.367 221.888 185.032 221.976 184.692 221.979Z" fill="white"/>
</g>
<defs>
<clipPath id="clip0_714_1163">
<rect width="422" height="545" fill="white"/>
</clipPath>
</defs>
</svg>
