<svg width="450" height="1000" viewBox="0 0 450 1000" fill="none" xmlns="http://www.w3.org/2000/svg">
<rect width="450" height="1000" fill="#FFAB9F"/>
<g clip-path="url(#clip0_714_2135)">
<rect width="421" height="500" transform="translate(14 118)" fill="#FFAB9F"/>
<path d="M57.9999 518L47.3699 510.68C47.3699 510.68 41.2299 519.61 31.8499 513.39C30.0206 512.224 28.5997 510.517 27.7844 508.506C26.9691 506.496 26.7998 504.281 27.2999 502.17C27.6964 500.39 28.5083 498.73 29.6693 497.324C30.8302 495.918 32.3073 494.806 33.9799 494.08C37.8199 492.35 43.6299 492.37 49.9299 498.56L66.4099 474.56L55.8999 467.33L46.2499 481.33C46.2499 481.33 28.8899 475 17.7099 491.24C7.01989 506.78 18.4699 519.98 24.4399 524.08C28.9999 527.29 45.2499 536.88 57.9999 518Z" fill="#EBEBEB"/>
<path d="M59.1209 462.344L69.7812 469.679L76.6343 459.719L65.974 452.384L59.1209 462.344Z" fill="#EBEBEB"/>
<path d="M103.259 547.39L108.899 545.9C108.731 545.258 108.693 544.59 108.787 543.933C108.88 543.277 109.103 542.645 109.443 542.076C109.782 541.506 110.232 541.01 110.765 540.616C111.298 540.222 111.905 539.937 112.549 539.78C113.489 539.494 114.494 539.509 115.424 539.823C116.355 540.137 117.164 540.734 117.739 541.53C118.233 542.189 118.564 542.956 118.705 543.768C118.845 544.579 118.792 545.413 118.549 546.2C118.009 548.03 116.289 550.02 112.309 550.35L115.659 563.08L121.239 561.61L119.239 554.15C121.349 552.871 122.98 550.935 123.884 548.639C124.787 546.343 124.912 543.814 124.239 541.44C122.059 533.19 114.149 533.22 110.989 534.06C108.619 534.7 100.529 537.46 103.259 547.39Z" fill="#EBEBEB"/>
<path d="M122.027 564.194L116.361 565.689L117.757 570.978L123.423 569.483L122.027 564.194Z" fill="#EBEBEB"/>
<path d="M197 191.07C199.853 189.331 202.927 187.986 206.14 187.07L208.02 178.07L223.31 177.8L225.51 186.8C228.753 187.594 231.875 188.822 234.79 190.45L242.52 185.38L253.52 196L248.73 203.9C250.462 206.759 251.807 209.836 252.73 213.05L261.78 214.93L262.04 230.22L253.04 232.42C252.241 235.662 251.014 238.782 249.39 241.7L254.45 249.43L243.83 260.43L235.93 255.64C233.073 257.378 229.996 258.724 226.78 259.64L224.9 268.7L209.61 268.96L207.41 259.96C204.165 259.17 201.043 257.942 198.13 256.31L190.4 261.38L179.4 250.76L184.19 242.86C182.452 240.003 181.106 236.926 180.19 233.71L171.19 231.83L170.92 216.54L179.92 214.34C180.7 211.077 181.917 207.936 183.54 205L178.47 197.27L189.09 186.27L197 191.07ZM205.15 211.44C202.9 213.777 201.394 216.728 200.822 219.921C200.25 223.113 200.637 226.404 201.935 229.376C203.233 232.349 205.383 234.87 208.114 236.62C210.845 238.371 214.033 239.272 217.276 239.211C220.519 239.149 223.671 238.127 226.333 236.275C228.995 234.422 231.048 231.821 232.233 228.802C233.417 225.782 233.679 222.479 232.986 219.31C232.293 216.142 230.676 213.25 228.34 211C225.205 207.985 221.002 206.338 216.654 206.421C212.306 206.503 208.168 208.309 205.15 211.44Z" fill="#F5F5F5"/>
<path d="M133 159.19C134.648 158.2 136.42 157.434 138.27 156.91L139.35 151.69L148.16 151.54L149.43 156.71C151.296 157.166 153.092 157.873 154.77 158.81L159.22 155.89L165.52 162L162.76 166.55C163.755 168.197 164.525 169.969 165.05 171.82L170.26 172.9L170.41 181.71L165.24 183C164.785 184.867 164.079 186.663 163.14 188.34L166.06 192.79L159.94 199.13L155.39 196.37C153.743 197.365 151.971 198.135 150.12 198.66L149 203.86L140.19 204.02L139 198.85C137.134 198.386 135.339 197.676 133.66 196.74L129.21 199.66L122.87 193.54L125.59 189C124.593 187.358 123.822 185.589 123.3 183.74L118.09 182.65L117.93 173.84L123.11 172.58C123.564 170.71 124.271 168.91 125.21 167.23L122.29 162.78L128.41 156.45L133 159.19ZM137.69 170.93C136.385 172.272 135.508 173.972 135.17 175.814C134.833 177.655 135.05 179.555 135.794 181.273C136.538 182.991 137.776 184.449 139.35 185.463C140.924 186.476 142.764 186.999 144.636 186.966C146.508 186.932 148.328 186.343 149.864 185.273C151.401 184.204 152.585 182.702 153.267 180.958C153.949 179.215 154.097 177.308 153.693 175.48C153.29 173.652 152.352 171.985 151 170.69C149.196 168.954 146.778 168.004 144.275 168.049C141.772 168.094 139.389 169.13 137.65 170.93H137.69Z" fill="#EBEBEB"/>
<path d="M414.069 322.71C415.713 321.717 417.482 320.947 419.329 320.42L420.419 315.21L429.219 315.06L430.489 320.23C432.359 320.685 434.159 321.391 435.839 322.33L440.289 319.41L446.619 325.53L443.859 330.08C444.854 331.727 445.624 333.499 446.149 335.35L451.369 336.43L451.519 345.24L446.349 346.51C445.884 348.374 445.178 350.169 444.249 351.85L447.159 356.3L441.049 362.64L436.499 359.88C434.853 360.875 433.08 361.646 431.229 362.17L430.139 367.38L421.339 367.54L420.069 362.36C418.202 361.905 416.406 361.199 414.729 360.26L410.269 363.18L403.939 357.06L406.699 352.51C405.702 350.864 404.932 349.092 404.409 347.24L399.199 346.16L399.039 337.35L404.209 336.08C404.674 334.216 405.38 332.421 406.309 330.74L403.399 326.29L409.509 319.95L414.069 322.71ZM418.759 334.44C417.46 335.784 416.589 337.483 416.256 339.322C415.922 341.162 416.142 343.058 416.887 344.773C417.631 346.487 418.868 347.942 420.44 348.954C422.011 349.965 423.848 350.488 425.717 350.456C427.586 350.424 429.403 349.838 430.939 348.773C432.475 347.708 433.661 346.211 434.346 344.472C435.031 342.733 435.186 340.83 434.789 339.003C434.393 337.177 433.464 335.509 432.119 334.21C430.315 332.472 427.896 331.52 425.392 331.563C422.887 331.606 420.502 332.641 418.759 334.44Z" fill="#EBEBEB"/>
<path d="M437.781 583.31C437.781 583.46 342.951 583.57 226.011 583.57C109.071 583.57 14.2207 583.46 14.2207 583.31C14.2207 583.16 109.021 583.05 226.011 583.05C343.001 583.05 437.781 583.17 437.781 583.31Z" fill="#263238"/>
<path d="M391.66 582.58L249.66 582.5C241.458 582.495 233.593 579.232 227.795 573.431C221.997 567.629 218.74 559.762 218.74 551.56L218.81 195.56C218.829 187.35 222.103 179.483 227.915 173.685C233.726 167.886 241.601 164.63 249.81 164.63L391.81 164.72C400.013 164.725 407.877 167.987 413.675 173.789C419.473 179.591 422.73 187.458 422.73 195.66L422.66 551.66C422.66 555.727 421.858 559.754 420.299 563.511C418.74 567.268 416.455 570.68 413.576 573.552C410.696 576.424 407.278 578.7 403.517 580.249C399.757 581.798 395.727 582.59 391.66 582.58Z" fill="#455A64"/>
<path d="M391.611 177.27H364.081C362.266 177.312 360.542 178.072 359.287 179.385C358.033 180.697 357.351 182.454 357.391 184.27V189.27C357.431 191.085 356.749 192.842 355.495 194.154C354.24 195.467 352.516 196.228 350.701 196.27H297.031C295.217 196.225 293.496 195.463 292.244 194.151C290.991 192.838 290.311 191.083 290.351 189.27V184.27C290.391 182.454 289.709 180.697 288.455 179.385C287.2 178.072 285.476 177.312 283.661 177.27H249.881C244.147 177.264 238.644 179.533 234.58 183.578C230.516 187.624 228.222 193.115 228.201 198.85L228.131 546.37C228.141 552.108 230.428 557.608 234.488 561.663C238.549 565.718 244.052 567.997 249.791 568L391.521 568.08C394.367 568.081 397.185 567.522 399.814 566.434C402.444 565.346 404.834 563.751 406.847 561.74C408.86 559.728 410.457 557.34 411.547 554.712C412.638 552.083 413.2 549.265 413.201 546.42L413.261 198.9C413.253 193.162 410.969 187.662 406.91 183.607C402.851 179.551 397.349 177.272 391.611 177.27Z" fill="white"/>
<path d="M413.251 250.31V198.54C413.149 192.866 410.825 187.46 406.778 183.482C402.731 179.505 397.285 177.274 391.611 177.27H364.081C363.182 177.289 362.296 177.486 361.472 177.848C360.649 178.211 359.906 178.732 359.284 179.382C358.663 180.032 358.176 180.799 357.851 181.637C357.526 182.476 357.37 183.37 357.391 184.27V189.27C357.431 191.085 356.749 192.842 355.495 194.154C354.241 195.467 352.516 196.228 350.701 196.27H297.031C295.218 196.225 293.496 195.463 292.244 194.151C290.992 192.838 290.311 191.083 290.351 189.27V184.27C290.391 182.454 289.709 180.697 288.455 179.385C287.201 178.072 285.476 177.312 283.661 177.27H249.881C244.147 177.264 238.645 179.533 234.581 183.578C230.516 187.624 228.222 193.115 228.201 198.85V250.47H413.251V250.31Z" fill="#EBEBEB"/>
<path d="M265.94 320.53C278.328 320.53 288.37 310.51 288.37 298.15C288.37 285.789 278.328 275.77 265.94 275.77C253.552 275.77 243.51 285.789 243.51 298.15C243.51 310.51 253.552 320.53 265.94 320.53Z" fill="#E0E0E0"/>
<path d="M255.461 303.75L261.341 303.25L275.681 305.67L277.371 316.46L277.131 317.72C273.901 319.543 270.271 320.542 266.562 320.627C262.854 320.713 259.182 319.882 255.871 318.21L255.461 303.75Z" fill="#455A64"/>
<path d="M272.609 305.5C274.031 305.292 275.483 305.489 276.799 306.067C278.114 306.645 279.241 307.582 280.049 308.77C281.021 310.127 281.913 311.539 282.719 313C280.379 315.54 278.479 317.47 275.239 318.6L272.609 305.5Z" fill="#455A64"/>
<path d="M255.46 303.75C255.46 303.75 251.58 304.23 250.08 307.54C248.58 310.85 248.23 311.88 248.23 311.88C250.23 314.3 252.79 317.16 255.92 318.23C255.92 318.23 256.63 309.89 256.72 307.54C256.83 305 256.93 303.68 255.46 303.75Z" fill="#455A64"/>
<path d="M259 282.55C259.977 281.298 261.223 280.281 262.646 279.575C264.069 278.869 265.632 278.491 267.22 278.47C268.585 278.469 269.94 278.713 271.22 279.19C272.567 279.509 273.758 280.295 274.58 281.41C275.599 282.72 276.267 284.269 276.52 285.91C276.755 287.589 276.835 289.286 276.76 290.98C276.678 292.686 276.128 294.336 275.17 295.75L270.86 296.49C268.484 296.679 266.093 296.552 263.75 296.11C261.382 295.655 259.289 294.282 257.93 292.29C256.2 289.48 256.92 285.11 259 282.55Z" fill="#263238"/>
<path d="M254.84 295C254.884 294.512 255.038 294.041 255.291 293.621C255.544 293.202 255.889 292.846 256.3 292.58C256.72 292.327 257.21 292.214 257.699 292.257C258.188 292.3 258.65 292.497 259.02 292.82L259.7 293.62C260.225 293.862 260.661 294.262 260.947 294.764C261.234 295.266 261.357 295.844 261.3 296.42C261.225 296.995 260.985 297.537 260.609 297.979C260.233 298.421 259.736 298.744 259.18 298.91C258.624 299.067 258.036 299.079 257.474 298.945C256.912 298.81 256.394 298.532 255.97 298.14C255.554 297.738 255.236 297.245 255.04 296.701C254.844 296.157 254.775 295.575 254.84 295Z" fill="#263238"/>
<path d="M255.691 297.94C255.529 297.687 255.449 297.39 255.461 297.09C255.605 296.362 255.951 295.69 256.461 295.15C256.943 294.583 257.531 294.115 258.191 293.77C258.691 293.5 259.041 293.4 259.031 293.37C258.711 293.393 258.401 293.486 258.121 293.64C257.416 293.954 256.793 294.426 256.301 295.02C256.025 295.321 255.789 295.658 255.601 296.02C255.437 296.33 255.341 296.671 255.321 297.02C255.316 297.26 255.382 297.497 255.511 297.7C255.601 297.9 255.691 298 255.691 297.94Z" fill="#455A64"/>
<path d="M270.82 304.73V300.73C270.82 300.73 274.33 300.34 275.31 295.84C275.77 292.864 275.951 289.85 275.85 286.84C275.85 284.11 273.5 280.39 270.12 280.38L268.62 280.2L262.87 282.48C262.47 282.502 262.093 282.672 261.812 282.957C261.531 283.241 261.366 283.621 261.35 284.02L261.18 303.23L263.81 306.92C264.291 307.572 264.965 308.057 265.736 308.306C266.506 308.556 267.336 308.558 268.108 308.312C268.88 308.066 269.556 307.584 270.04 306.935C270.525 306.285 270.794 305.5 270.81 304.69L270.82 304.73Z" fill="#FFBE9D"/>
<path d="M268.53 294.8C268.561 294.569 268.679 294.358 268.86 294.21C269.024 294.072 269.229 293.991 269.443 293.978C269.657 293.966 269.87 294.022 270.05 294.14C270.233 294.283 270.376 294.472 270.464 294.688C270.552 294.904 270.581 295.139 270.55 295.37C270.449 295.509 270.321 295.625 270.173 295.712C270.025 295.798 269.86 295.852 269.69 295.87H269.53C269.397 295.873 269.265 295.85 269.141 295.802C269.018 295.754 268.905 295.682 268.81 295.59C268.709 295.486 268.631 295.362 268.583 295.226C268.535 295.089 268.516 294.944 268.53 294.8Z" fill="#EB996E"/>
<path d="M273.76 290C273.755 290.152 273.69 290.296 273.579 290.4C273.469 290.505 273.322 290.562 273.17 290.56C273.095 290.561 273.021 290.547 272.951 290.52C272.881 290.493 272.818 290.452 272.764 290.4C272.71 290.348 272.667 290.286 272.637 290.217C272.607 290.148 272.591 290.074 272.59 290C272.598 289.847 272.665 289.703 272.777 289.598C272.888 289.494 273.037 289.437 273.19 289.44C273.264 289.438 273.338 289.452 273.407 289.479C273.476 289.507 273.539 289.548 273.592 289.6C273.645 289.652 273.688 289.714 273.716 289.783C273.745 289.852 273.76 289.925 273.76 290Z" fill="#263238"/>
<path d="M274.721 288.56C274.641 288.63 274.211 288.28 273.591 288.25C272.971 288.22 272.481 288.51 272.421 288.43C272.361 288.35 272.471 288.26 272.681 288.12C272.964 287.951 273.291 287.871 273.621 287.89C273.946 287.903 274.259 288.022 274.511 288.23C274.691 288.39 274.751 288.53 274.721 288.56Z" fill="#263238"/>
<path d="M270.77 293.3C271.098 293.223 271.433 293.183 271.77 293.18C271.93 293.18 272.09 293.18 272.12 293.04C272.143 292.875 272.115 292.708 272.04 292.56L271.63 291.32C271.248 290.262 270.951 289.175 270.74 288.07C271.208 289.094 271.592 290.154 271.89 291.24C272.03 291.67 272.15 292.09 272.28 292.49C272.365 292.689 272.382 292.91 272.33 293.12C272.269 293.227 272.169 293.306 272.05 293.34C271.96 293.349 271.87 293.349 271.78 293.34C271.443 293.372 271.104 293.359 270.77 293.3Z" fill="#263238"/>
<path d="M270.801 300.74C268.654 300.644 266.576 299.951 264.801 298.74C264.801 298.74 266.251 301.97 270.801 301.8V300.74Z" fill="#EB996E"/>
<path d="M268.9 293.64C269.01 293.64 268.97 294.32 269.53 294.83C270.09 295.34 270.81 295.31 270.81 295.4C270.81 295.49 270.64 295.53 270.34 295.52C269.94 295.502 269.559 295.347 269.26 295.08C268.978 294.82 268.806 294.463 268.78 294.08C268.77 293.79 268.86 293.63 268.9 293.64Z" fill="#263238"/>
<path d="M274.591 286.2C274.481 286.35 274.001 286.2 273.441 286.2C272.881 286.2 272.441 286.34 272.291 286.2C272.141 286.06 272.291 285.98 272.511 285.84C272.787 285.667 273.105 285.573 273.431 285.57C273.759 285.561 274.082 285.648 274.361 285.82C274.571 286 274.641 286.13 274.591 286.2Z" fill="#263238"/>
<path d="M266.881 290C266.878 290.153 266.935 290.301 267.04 290.413C267.144 290.525 267.288 290.592 267.441 290.6C267.515 290.607 267.59 290.598 267.662 290.576C267.733 290.553 267.799 290.517 267.856 290.468C267.912 290.42 267.959 290.36 267.992 290.294C268.026 290.227 268.046 290.154 268.051 290.08C268.051 289.928 267.993 289.783 267.889 289.673C267.785 289.563 267.642 289.497 267.491 289.49C267.417 289.481 267.342 289.488 267.271 289.51C267.2 289.531 267.134 289.567 267.077 289.614C267.02 289.662 266.973 289.721 266.939 289.787C266.906 289.853 266.886 289.926 266.881 290Z" fill="#263238"/>
<path d="M266.12 288.34C266.19 288.42 266.64 288.1 267.27 288.11C267.9 288.12 268.35 288.44 268.42 288.37C268.49 288.3 268.42 288.2 268.18 288.05C267.913 287.854 267.591 287.749 267.26 287.75C266.936 287.74 266.617 287.834 266.35 288.02C266.15 288.17 266.08 288.3 266.12 288.34Z" fill="#263238"/>
<path d="M265.761 287C265.881 287.15 266.371 287 266.951 287C267.531 287 268.021 287.12 268.141 287C268.261 286.88 268.141 286.78 267.901 286.64C267.61 286.469 267.278 286.379 266.941 286.379C266.603 286.379 266.272 286.469 265.981 286.64C265.771 286.78 265.701 286.92 265.761 287Z" fill="#263238"/>
<path d="M262.111 291.69C262.111 291.35 261.791 290.53 261.451 290.46C260.571 290.27 258.961 290.26 258.821 292.52C258.631 295.61 261.821 295.16 261.821 295.07C261.821 294.98 262.051 292.85 262.111 291.69Z" fill="#FFBE9D"/>
<path d="M261.001 293.89C261.001 293.89 260.951 293.89 260.851 293.96C260.788 293.987 260.72 294.001 260.651 294.001C260.582 294.001 260.514 293.987 260.451 293.96C260.257 293.821 260.104 293.633 260.007 293.415C259.911 293.197 259.874 292.957 259.901 292.72C259.913 292.455 259.981 292.196 260.101 291.96C260.137 291.866 260.194 291.781 260.269 291.714C260.344 291.646 260.434 291.597 260.531 291.57C260.594 291.556 260.661 291.566 260.718 291.597C260.775 291.628 260.818 291.679 260.841 291.74C260.848 291.79 260.848 291.84 260.841 291.89C260.841 291.89 260.911 291.89 260.891 291.72C260.878 291.643 260.84 291.572 260.781 291.52C260.743 291.483 260.697 291.455 260.647 291.438C260.597 291.42 260.544 291.414 260.491 291.42C260.363 291.437 260.242 291.486 260.138 291.563C260.035 291.64 259.953 291.742 259.901 291.86C259.753 292.12 259.67 292.411 259.661 292.71C259.627 292.985 259.675 293.264 259.8 293.511C259.925 293.759 260.12 293.964 260.361 294.1C260.443 294.128 260.53 294.138 260.616 294.129C260.703 294.12 260.786 294.093 260.861 294.05C261.001 294 261.001 293.9 261.001 293.89Z" fill="#EB996E"/>
<path d="M261.33 290.47L262.11 291.28C265.51 288.04 272.16 279.91 271.79 280.39C270.238 279.817 268.569 279.638 266.93 279.87C264.4 280.3 259.61 281.56 259.68 284.53C259.829 286.6 260.39 288.619 261.33 290.47Z" fill="#263238"/>
<path d="M256.83 289.79C256.83 289.79 256.83 289.72 256.83 289.61C256.889 289.442 256.959 289.278 257.04 289.12C257.361 288.546 257.805 288.051 258.34 287.67C259.132 287.105 260.015 286.679 260.95 286.41C261.95 286.08 263.15 285.82 264.3 285.33C266.268 284.499 268.044 283.274 269.52 281.73C269.964 281.26 270.382 280.766 270.77 280.25L271.08 279.82C271.114 279.768 271.154 279.721 271.2 279.68L271.11 279.84C271.04 279.94 270.95 280.1 270.82 280.29C270.447 280.823 270.04 281.33 269.6 281.81C268.943 282.517 268.219 283.16 267.44 283.73C266.487 284.431 265.452 285.015 264.36 285.47C263.258 285.892 262.133 286.253 260.99 286.55C260.069 286.807 259.197 287.216 258.41 287.76C257.88 288.125 257.433 288.599 257.1 289.15C256.994 289.356 256.904 289.57 256.83 289.79Z" fill="#455A64"/>
<path d="M257.729 290.27C257.722 290.041 257.763 289.813 257.849 289.6C258.08 289.008 258.485 288.499 259.009 288.14C259.797 287.637 260.678 287.297 261.599 287.14C262.704 286.929 263.781 286.594 264.809 286.14C265.832 285.675 266.793 285.084 267.669 284.38C268.396 283.802 269.066 283.156 269.669 282.45C270.067 281.976 270.431 281.474 270.759 280.95C270.869 280.78 270.959 280.63 271.019 280.52C271.05 280.466 271.087 280.416 271.129 280.37C271.108 280.426 271.081 280.48 271.049 280.53L270.809 280.98C270.502 281.524 270.148 282.039 269.749 282.52C269.158 283.258 268.488 283.929 267.749 284.52C266.865 285.238 265.894 285.843 264.859 286.32C263.818 286.778 262.728 287.113 261.609 287.32C260.704 287.49 259.839 287.829 259.059 288.32C258.541 288.658 258.134 289.142 257.889 289.71C257.82 289.892 257.766 290.079 257.729 290.27Z" fill="#455A64"/>
<path d="M255.921 318.21C255.774 316.239 255.774 314.261 255.921 312.29C256.054 314.261 256.054 316.239 255.921 318.21Z" fill="#263238"/>
<path d="M277.141 317.79C277.115 317.457 277.115 317.123 277.141 316.79C277.201 315.956 277.171 315.118 277.051 314.29C276.895 313.464 276.654 312.656 276.331 311.88C276.179 311.559 276.059 311.224 275.971 310.88C276.166 311.172 276.33 311.484 276.461 311.81C276.831 312.581 277.097 313.398 277.251 314.24C277.37 315.086 277.37 315.944 277.251 316.79C277.256 317.127 277.219 317.462 277.141 317.79Z" fill="#263238"/>
<path d="M385.08 326.57H308.63C306.809 326.567 305.063 325.843 303.775 324.555C302.487 323.267 301.763 321.521 301.76 319.7V287.6L293.33 280.12H385.08C385.987 280.113 386.887 280.286 387.727 280.629C388.567 280.972 389.33 281.478 389.974 282.118C390.617 282.757 391.127 283.518 391.475 284.356C391.823 285.194 392.001 286.093 392 287V319.7C391.999 320.606 391.819 321.503 391.47 322.339C391.121 323.175 390.61 323.934 389.967 324.572C389.324 325.211 388.562 325.716 387.723 326.059C386.884 326.401 385.986 326.575 385.08 326.57Z" fill="#EBEBEB"/>
<path d="M379.839 331.77C377.127 332.027 374.402 332.114 371.679 332.03C368.96 332.114 366.238 332.027 363.529 331.77C366.238 331.512 368.96 331.426 371.679 331.51C374.402 331.425 377.127 331.512 379.839 331.77Z" fill="#E0E0E0"/>
<path d="M383.21 332.41C383.177 332.41 383.143 332.402 383.112 332.388C383.081 332.375 383.053 332.355 383.03 332.33L381.45 330.68C381.405 330.633 381.379 330.57 381.379 330.505C381.379 330.44 381.405 330.377 381.45 330.33C381.473 330.306 381.5 330.287 381.53 330.274C381.56 330.261 381.593 330.254 381.625 330.254C381.658 330.254 381.691 330.261 381.721 330.274C381.751 330.287 381.778 330.306 381.8 330.33L383.2 331.79L386.27 328.67C386.293 328.646 386.32 328.627 386.35 328.614C386.38 328.601 386.413 328.594 386.445 328.594C386.478 328.594 386.511 328.601 386.541 328.614C386.571 328.627 386.598 328.646 386.62 328.67C386.666 328.717 386.692 328.78 386.692 328.845C386.692 328.91 386.666 328.973 386.62 329.02L383.37 332.33C383.327 332.373 383.271 332.401 383.21 332.41Z" fill="#FF725E"/>
<path d="M385.46 332.36H385.17C385.104 332.36 385.04 332.334 384.993 332.287C384.946 332.24 384.92 332.177 384.92 332.11C384.927 332.045 384.957 331.984 385.004 331.938C385.052 331.892 385.114 331.865 385.18 331.86H385.36L388.53 328.63C388.553 328.606 388.581 328.587 388.612 328.574C388.643 328.56 388.676 328.554 388.71 328.554C388.744 328.554 388.777 328.56 388.808 328.574C388.839 328.587 388.867 328.606 388.89 328.63C388.936 328.677 388.961 328.74 388.961 328.805C388.961 328.871 388.936 328.933 388.89 328.98L385.64 332.28C385.618 332.306 385.59 332.327 385.559 332.34C385.528 332.354 385.494 332.361 385.46 332.36Z" fill="#FF725E"/>
<path d="M379.839 457.44C377.127 457.697 374.402 457.784 371.679 457.7C368.96 457.784 366.238 457.697 363.529 457.44C366.238 457.183 368.96 457.096 371.679 457.18C374.402 457.095 377.127 457.182 379.839 457.44Z" fill="#E0E0E0"/>
<path d="M383.21 458.08C383.171 458.084 383.132 458.079 383.095 458.065C383.059 458.051 383.026 458.029 383 458L381.42 456.35C381.392 456.328 381.369 456.3 381.353 456.268C381.337 456.236 381.328 456.201 381.326 456.165C381.325 456.129 381.331 456.094 381.345 456.061C381.358 456.027 381.379 455.998 381.405 455.973C381.431 455.948 381.461 455.93 381.495 455.918C381.529 455.907 381.565 455.902 381.601 455.906C381.636 455.909 381.671 455.921 381.702 455.938C381.733 455.956 381.759 455.981 381.78 456.01L383.18 457.47L386.25 454.35C386.272 454.326 386.3 454.307 386.33 454.294C386.36 454.281 386.392 454.274 386.425 454.274C386.458 454.274 386.49 454.281 386.52 454.294C386.55 454.307 386.578 454.326 386.6 454.35C386.646 454.397 386.671 454.459 386.671 454.525C386.671 454.59 386.646 454.653 386.6 454.7L383.39 458C383.341 458.047 383.277 458.075 383.21 458.08Z" fill="#FF725E"/>
<path d="M385.46 458H385.17C385.103 457.997 385.039 457.969 384.992 457.92C384.946 457.872 384.92 457.807 384.92 457.74C384.92 457.707 384.927 457.674 384.94 457.643C384.953 457.613 384.973 457.585 384.997 457.563C385.022 457.54 385.05 457.523 385.082 457.512C385.113 457.501 385.147 457.497 385.18 457.5H385.36L388.53 454.27C388.553 454.246 388.581 454.226 388.612 454.213C388.643 454.2 388.676 454.193 388.71 454.193C388.744 454.193 388.777 454.2 388.808 454.213C388.839 454.226 388.867 454.246 388.89 454.27C388.936 454.317 388.961 454.379 388.961 454.445C388.961 454.51 388.936 454.573 388.89 454.62L385.64 457.92C385.618 457.946 385.59 457.966 385.559 457.98C385.528 457.994 385.494 458.001 385.46 458Z" fill="#FF725E"/>
<path d="M384.101 289.31C384.101 289.45 367.411 289.57 346.821 289.57C326.231 289.57 309.551 289.45 309.551 289.31C309.551 289.17 326.231 289.05 346.821 289.05C367.411 289.05 384.101 289.16 384.101 289.31Z" fill="white"/>
<path d="M384.101 294.78C384.101 294.93 367.411 295.04 346.821 295.04C326.231 295.04 309.551 294.93 309.551 294.78C309.551 294.63 326.231 294.52 346.821 294.52C367.411 294.52 384.101 294.64 384.101 294.78Z" fill="white"/>
<path d="M384.101 300.26C384.101 300.4 367.411 300.52 346.821 300.52C326.231 300.52 309.551 300.4 309.551 300.26C309.551 300.12 326.231 300 346.821 300C367.411 300 384.101 300.12 384.101 300.26Z" fill="white"/>
<path d="M265.94 460.1C278.328 460.1 288.37 450.08 288.37 437.72C288.37 425.36 278.328 415.34 265.94 415.34C253.552 415.34 243.51 425.36 243.51 437.72C243.51 450.08 253.552 460.1 265.94 460.1Z" fill="#E0E0E0"/>
<path d="M255.461 443.32L261.341 442.82L275.681 445.24L277.371 456L277.131 457.25C273.902 459.076 270.271 460.075 266.562 460.161C262.854 460.246 259.181 459.415 255.871 457.74L255.461 443.29" fill="#455A64"/>
<path d="M272.609 445.06C274.031 444.854 275.482 445.052 276.797 445.63C278.113 446.208 279.239 447.143 280.049 448.33C281.023 449.689 281.914 451.105 282.719 452.57C280.379 455.11 278.479 457.04 275.239 458.16L272.609 445.06Z" fill="#455A64"/>
<path d="M255.46 443.32C255.46 443.32 251.58 443.79 250.08 447.1C248.58 450.41 248.23 451.45 248.23 451.45C250.23 453.86 252.79 456.72 255.92 457.79C255.92 457.79 256.63 449.46 256.72 447.1C256.83 444.52 256.93 443.24 255.46 443.32Z" fill="#455A64"/>
<path d="M259 422.12C259.976 420.866 261.222 419.849 262.645 419.142C264.068 418.436 265.631 418.059 267.22 418.04C268.585 418.032 269.941 418.273 271.22 418.75C272.564 419.076 273.753 419.861 274.58 420.97C275.598 422.281 276.265 423.83 276.52 425.47C276.754 427.152 276.835 428.853 276.76 430.55C276.68 432.253 276.129 433.901 275.17 435.31L270.86 436.06C268.483 436.245 266.093 436.117 263.75 435.68C261.382 435.225 259.289 433.852 257.93 431.86C256.2 429 256.92 424.67 259 422.12Z" fill="#263238"/>
<path d="M254.84 434.61C254.883 434.122 255.036 433.65 255.289 433.231C255.542 432.811 255.888 432.455 256.3 432.19C256.719 431.934 257.208 431.819 257.698 431.86C258.187 431.902 258.65 432.098 259.02 432.42L259.7 433.23C260.226 433.471 260.662 433.871 260.949 434.373C261.236 434.875 261.359 435.455 261.3 436.03C261.218 436.603 260.976 437.141 260.6 437.582C260.225 438.023 259.733 438.348 259.18 438.52C258.623 438.675 258.035 438.685 257.473 438.549C256.911 438.412 256.394 438.134 255.97 437.74C255.554 437.34 255.236 436.85 255.04 436.307C254.844 435.764 254.775 435.183 254.84 434.61Z" fill="#263238"/>
<path d="M255.69 437.51C255.53 437.252 255.45 436.953 255.46 436.65C255.605 435.925 255.951 435.256 256.46 434.72C256.94 434.15 257.528 433.681 258.19 433.34C258.69 433.07 259.04 432.97 259.03 432.93C258.712 432.959 258.403 433.051 258.12 433.2C257.419 433.52 256.798 433.991 256.3 434.58C256.023 434.902 255.788 435.258 255.6 435.64C255.436 435.949 255.34 436.29 255.32 436.64C255.317 436.88 255.383 437.116 255.51 437.32C255.6 437.47 255.69 437.52 255.69 437.51Z" fill="#455A64"/>
<path d="M270.841 444.66V440.66C270.841 440.66 274.351 440.27 275.331 435.78C275.791 432.803 275.972 429.79 275.871 426.78C275.871 424.05 273.521 420.33 270.141 420.32L268.641 420.15L262.891 422.43C262.491 422.45 262.113 422.619 261.831 422.904C261.55 423.189 261.386 423.57 261.371 423.97L261.201 443.17L263.831 446.86C264.313 447.512 264.986 447.996 265.757 448.246C266.528 448.495 267.358 448.497 268.13 448.251C268.902 448.005 269.577 447.524 270.062 446.874C270.546 446.225 270.815 445.44 270.831 444.63L270.841 444.66Z" fill="#FFBE9D"/>
<path d="M268.531 434.37C268.562 434.138 268.68 433.927 268.861 433.78C269.025 433.642 269.23 433.561 269.444 433.548C269.658 433.536 269.871 433.592 270.051 433.71C270.235 433.853 270.377 434.042 270.465 434.258C270.553 434.474 270.582 434.709 270.551 434.94C270.45 435.077 270.321 435.192 270.173 435.277C270.025 435.361 269.861 435.413 269.691 435.43H269.531C269.263 435.424 269.008 435.321 268.811 435.14C268.708 435.041 268.63 434.921 268.581 434.787C268.533 434.654 268.516 434.511 268.531 434.37Z" fill="#EB996E"/>
<path d="M273.76 430C273.741 430.142 273.672 430.272 273.564 430.367C273.456 430.461 273.318 430.513 273.175 430.513C273.032 430.513 272.893 430.461 272.786 430.367C272.678 430.272 272.608 430.142 272.59 430C272.598 429.847 272.665 429.703 272.777 429.598C272.888 429.494 273.037 429.437 273.19 429.44C273.264 429.438 273.338 429.452 273.407 429.48C273.476 429.507 273.539 429.548 273.592 429.6C273.645 429.652 273.688 429.715 273.716 429.783C273.745 429.852 273.76 429.925 273.76 430Z" fill="#263238"/>
<path d="M274.721 428.51C274.641 428.58 274.211 428.23 273.591 428.2C272.971 428.17 272.481 428.45 272.421 428.37C272.361 428.29 272.471 428.2 272.681 428.07C272.96 427.892 273.29 427.811 273.621 427.84C273.946 427.853 274.259 427.972 274.511 428.18C274.691 428.34 274.751 428.48 274.721 428.51Z" fill="#263238"/>
<path d="M270.77 433.25C271.098 433.172 271.433 433.128 271.77 433.12C271.93 433.12 272.09 433.12 272.12 432.98C272.142 432.815 272.114 432.648 272.04 432.5C271.91 432.11 271.77 431.7 271.63 431.26C271.25 430.204 270.953 429.121 270.74 428.02C271.209 429.04 271.593 430.097 271.89 431.18C272.03 431.62 272.15 432.03 272.28 432.43C272.365 432.629 272.382 432.85 272.33 433.06C272.303 433.115 272.264 433.164 272.215 433.202C272.167 433.24 272.11 433.267 272.05 433.28C271.961 433.294 271.87 433.294 271.78 433.28C271.444 433.316 271.104 433.305 270.77 433.25Z" fill="#263238"/>
<path d="M270.801 440.68C268.659 440.596 266.582 439.921 264.801 438.73C264.801 438.73 266.251 441.96 270.801 441.79V440.68Z" fill="#EB996E"/>
<path d="M268.9 433.58C269.01 433.58 268.97 434.26 269.53 434.78C270.09 435.3 270.81 435.26 270.81 435.35C270.81 435.44 270.64 435.47 270.34 435.47C269.938 435.452 269.555 435.293 269.26 435.02C268.975 434.763 268.802 434.403 268.78 434.02C268.77 433.74 268.86 433.58 268.9 433.58Z" fill="#263238"/>
<path d="M274.591 426.15C274.481 426.3 274.001 426.15 273.441 426.15C272.881 426.15 272.441 426.29 272.291 426.15C272.141 426.01 272.291 425.93 272.511 425.79C272.785 425.612 273.104 425.518 273.431 425.52C273.759 425.506 274.084 425.594 274.361 425.77C274.571 425.93 274.641 426.08 274.591 426.15Z" fill="#263238"/>
<path d="M266.881 429.92C266.878 430.072 266.935 430.219 267.04 430.329C267.145 430.44 267.289 430.505 267.441 430.51C267.515 430.518 267.59 430.511 267.661 430.49C267.732 430.468 267.798 430.433 267.855 430.385C267.912 430.338 267.959 430.279 267.992 430.213C268.026 430.146 268.046 430.074 268.051 430C268.054 429.847 267.997 429.698 267.892 429.586C267.788 429.475 267.644 429.408 267.491 429.4C267.417 429.393 267.342 429.401 267.27 429.424C267.199 429.446 267.133 429.483 267.076 429.531C267.02 429.58 266.973 429.639 266.939 429.706C266.906 429.773 266.886 429.845 266.881 429.92Z" fill="#263238"/>
<path d="M266.12 428.28C266.19 428.36 266.64 428.04 267.27 428.06C267.9 428.08 268.35 428.39 268.42 428.31C268.49 428.23 268.42 428.14 268.18 427.99C267.911 427.799 267.59 427.694 267.26 427.69C266.935 427.688 266.618 427.785 266.35 427.97C266.15 428.11 266.08 428.25 266.12 428.28Z" fill="#263238"/>
<path d="M265.761 426.94C265.881 427.08 266.371 426.94 266.951 426.94C267.531 426.94 268.021 427.05 268.141 426.94C268.261 426.83 268.141 426.73 267.901 426.59C267.61 426.419 267.278 426.33 266.941 426.33C266.603 426.33 266.272 426.419 265.981 426.59C265.771 426.72 265.701 426.87 265.761 426.94Z" fill="#263238"/>
<path d="M262.111 431.25C262.111 430.91 261.791 430.1 261.451 430.03C260.571 429.84 258.961 429.82 258.821 432.08C258.631 435.17 261.821 434.73 261.821 434.64C261.821 434.55 262.051 432.42 262.111 431.25Z" fill="#FFBE9D"/>
<path d="M261.001 433.46C261.001 433.46 260.951 433.46 260.851 433.53C260.722 433.579 260.579 433.579 260.451 433.53C260.258 433.392 260.105 433.206 260.008 432.99C259.912 432.774 259.874 432.535 259.901 432.3C259.911 432.035 259.979 431.776 260.101 431.54C260.136 431.446 260.194 431.361 260.269 431.293C260.344 431.226 260.433 431.176 260.531 431.15C260.593 431.138 260.657 431.147 260.713 431.176C260.77 431.205 260.815 431.252 260.841 431.31C260.849 431.363 260.849 431.417 260.841 431.47C260.841 431.47 260.911 431.42 260.891 431.29C260.876 431.213 260.837 431.143 260.781 431.09C260.741 431.056 260.694 431.031 260.645 431.016C260.595 431 260.542 430.995 260.491 431C260.362 431.014 260.24 431.063 260.136 431.14C260.032 431.217 259.951 431.321 259.901 431.44C259.751 431.699 259.669 431.991 259.661 432.29C259.627 432.563 259.676 432.841 259.801 433.086C259.925 433.332 260.12 433.535 260.361 433.67C260.438 433.708 260.524 433.728 260.611 433.728C260.697 433.728 260.783 433.708 260.861 433.67C261.001 433.53 261.001 433.46 261.001 433.46Z" fill="#EB996E"/>
<path d="M261.33 430L262.11 430.82C265.51 427.57 272.16 419.44 271.79 419.93C270.24 419.35 268.569 419.167 266.93 419.4C264.4 419.83 259.61 421.09 259.68 424.07C259.83 426.137 260.391 428.153 261.33 430Z" fill="#263238"/>
<path d="M256.83 429.35C256.83 429.35 256.83 429.29 256.83 429.17C256.891 429.006 256.961 428.846 257.04 428.69C257.363 428.115 257.807 427.617 258.34 427.23C259.15 426.67 260.049 426.254 261 426C262 425.66 263.2 425.4 264.35 424.91C265.433 424.46 266.46 423.886 267.41 423.2C268.186 422.64 268.909 422.011 269.57 421.32C270.13 420.72 270.57 420.2 270.82 419.84C270.94 419.66 271.05 419.52 271.13 419.41C271.21 419.3 271.24 419.26 271.25 419.27L271.16 419.43L270.87 419.87C270.502 420.406 270.094 420.915 269.65 421.39C268.993 422.1 268.27 422.747 267.49 423.32C266.53 424 265.493 424.564 264.4 425C263.24 425.49 262.06 425.75 261.03 426.08C260.109 426.334 259.238 426.739 258.45 427.28C257.919 427.648 257.473 428.126 257.14 428.68C257.023 428.897 256.92 429.12 256.83 429.35Z" fill="#455A64"/>
<path d="M257.729 429.84C257.722 429.607 257.763 429.376 257.849 429.16C258.078 428.569 258.483 428.063 259.009 427.71C259.797 427.207 260.678 426.867 261.599 426.71C262.703 426.495 263.779 426.159 264.809 425.71C265.832 425.245 266.793 424.654 267.669 423.95C268.874 422.986 269.908 421.826 270.729 420.52C270.839 420.34 270.929 420.2 270.989 420.08C271.022 420.03 271.059 419.983 271.099 419.94C271.078 419.996 271.051 420.049 271.019 420.1L270.779 420.55C270.472 421.094 270.118 421.609 269.719 422.09C269.128 422.828 268.458 423.499 267.719 424.09C266.837 424.808 265.866 425.41 264.829 425.88C263.786 426.333 262.696 426.668 261.579 426.88C260.671 427.04 259.804 427.38 259.029 427.88C258.505 428.211 258.096 428.697 257.859 429.27C257.798 429.455 257.755 429.646 257.729 429.84Z" fill="#455A64"/>
<path d="M255.921 457.77C255.774 455.803 255.774 453.827 255.921 451.86C256.054 453.828 256.054 455.802 255.921 457.77Z" fill="#263238"/>
<path d="M277.141 457.36C277.112 457.01 277.112 456.659 277.141 456.31C277.201 455.472 277.171 454.631 277.051 453.8C276.894 452.977 276.652 452.173 276.331 451.4C276.181 451.078 276.061 450.743 275.971 450.4C276.166 450.692 276.33 451.004 276.461 451.33C276.832 452.101 277.098 452.918 277.251 453.76C277.37 454.606 277.37 455.464 277.251 456.31C277.259 456.663 277.222 457.016 277.141 457.36Z" fill="#263238"/>
<path d="M385.08 450.88H308.63C306.807 450.877 305.06 450.151 303.772 448.861C302.484 447.571 301.76 445.823 301.76 444V427.16L293.33 419.68H385.08C386.901 419.683 388.647 420.407 389.935 421.695C391.223 422.983 391.947 424.729 391.95 426.55V444C391.95 445.823 391.227 447.571 389.939 448.861C388.65 450.151 386.903 450.877 385.08 450.88Z" fill="#EBEBEB"/>
<path d="M384.101 428.87C384.101 429.02 367.411 429.13 346.821 429.13C326.231 429.13 309.551 429.02 309.551 428.87C309.551 428.72 326.231 428.61 346.821 428.61C367.411 428.61 384.101 428.73 384.101 428.87Z" fill="white"/>
<path d="M384.101 434.35C384.101 434.49 367.411 434.61 346.821 434.61C326.231 434.61 309.551 434.49 309.551 434.35C309.551 434.21 326.231 434.09 346.821 434.09C367.411 434.09 384.101 434.21 384.101 434.35Z" fill="white"/>
<path d="M384.101 439.83C384.101 439.97 367.411 440.09 346.821 440.09C326.231 440.09 309.551 439.97 309.551 439.83C309.551 439.69 326.231 439.57 346.821 439.57C367.411 439.57 384.101 439.68 384.101 439.83Z" fill="white"/>
<path d="M384.101 305.74C384.101 305.88 367.411 306 346.821 306C326.231 306 309.551 305.88 309.551 305.74C309.551 305.6 326.231 305.48 346.821 305.48C367.411 305.48 384.101 305.59 384.101 305.74Z" fill="white"/>
<path d="M384.101 311.21C384.101 311.36 367.411 311.47 346.821 311.47C326.231 311.47 309.551 311.36 309.551 311.21C309.551 311.06 326.231 310.95 346.821 310.95C367.411 310.95 384.101 311.07 384.101 311.21Z" fill="white"/>
<path d="M384.101 317.79C384.101 317.94 367.411 318.05 346.821 318.05C326.231 318.05 309.551 317.94 309.551 317.79C309.551 317.64 326.231 317.53 346.821 317.53C367.411 317.53 384.101 317.65 384.101 317.79Z" fill="white"/>
<path d="M310 222.63C310.053 221.853 310.333 221.108 310.803 220.488C311.274 219.867 311.915 219.397 312.649 219.136C313.383 218.875 314.177 218.833 314.934 219.017C315.691 219.201 316.378 219.601 316.91 220.17L315.84 221.17C315.619 220.902 315.341 220.687 315.026 220.54C314.711 220.393 314.367 220.318 314.02 220.32C313.405 220.32 312.815 220.564 312.38 220.999C311.944 221.434 311.7 222.025 311.7 222.64C311.7 223.255 311.944 223.845 312.38 224.28C312.815 224.715 313.405 224.96 314.02 224.96C314.368 224.962 314.713 224.886 315.028 224.738C315.343 224.589 315.621 224.371 315.84 224.1L316.91 225.1C316.378 225.668 315.692 226.069 314.936 226.253C314.18 226.437 313.387 226.396 312.653 226.136C311.92 225.876 311.278 225.408 310.807 224.789C310.336 224.169 310.055 223.426 310 222.65V222.63Z" fill="#263238"/>
<path d="M323.56 223.06V226.25H322V223.31C322 222.41 321.58 222 320.87 222C320.16 222 319.54 222.48 319.54 223.5V226.25H317.92V218.58H319.54V221.27C319.774 221.045 320.052 220.869 320.356 220.754C320.661 220.639 320.985 220.587 321.31 220.6C321.627 220.587 321.943 220.644 322.237 220.766C322.53 220.888 322.793 221.073 323.007 221.307C323.221 221.541 323.382 221.82 323.477 222.122C323.573 222.425 323.601 222.745 323.56 223.06Z" fill="#263238"/>
<path d="M329.94 223.08V226.25H328.43V225.56C328.243 225.83 327.986 226.044 327.686 226.179C327.387 226.315 327.057 226.367 326.73 226.33C325.43 226.33 324.66 225.61 324.66 224.65C324.66 223.69 325.35 222.98 327.05 222.98H328.33C328.33 222.29 327.91 221.89 327.05 221.89C326.473 221.884 325.909 222.063 325.44 222.4L324.86 221.28C325.574 220.818 326.41 220.581 327.26 220.6C329 220.6 329.94 221.39 329.94 223.08ZM328.33 224.49V223.92H327.22C326.47 223.92 326.22 224.2 326.22 224.58C326.22 224.96 326.56 225.25 327.13 225.25C327.385 225.269 327.64 225.205 327.856 225.068C328.072 224.931 328.238 224.729 328.33 224.49Z" fill="#263238"/>
<path d="M335 226C334.606 226.248 334.145 226.37 333.68 226.35C333.405 226.388 333.126 226.363 332.862 226.277C332.599 226.191 332.358 226.046 332.159 225.853C331.959 225.661 331.807 225.425 331.711 225.165C331.616 224.904 331.582 224.626 331.61 224.35V222.06H330.75V220.82H331.61V219.46H333.22V220.82H334.61V222.06H333.22V224.33C333.208 224.425 333.217 224.522 333.247 224.613C333.277 224.705 333.327 224.788 333.392 224.858C333.458 224.928 333.539 224.982 333.629 225.017C333.718 225.052 333.814 225.067 333.91 225.06C334.145 225.068 334.375 224.994 334.56 224.85L335 226Z" fill="#263238"/>
<path d="M363.53 233.79C363.53 233.93 346.53 234.05 325.46 234.05C304.39 234.05 287.4 233.93 287.4 233.79C287.4 233.65 304.4 233.52 325.46 233.52C346.52 233.52 363.53 233.64 363.53 233.79Z" fill="#263238"/>
<path d="M397.26 222.63C398.238 222.63 399.03 221.837 399.03 220.86C399.03 219.882 398.238 219.09 397.26 219.09C396.283 219.09 395.49 219.882 395.49 220.86C395.49 221.837 396.283 222.63 397.26 222.63Z" fill="#263238"/>
<path d="M398.999 226C399.001 226.352 398.898 226.698 398.704 226.992C398.509 227.286 398.231 227.516 397.905 227.652C397.58 227.788 397.221 227.824 396.875 227.756C396.528 227.687 396.21 227.518 395.961 227.268C395.711 227.019 395.542 226.701 395.473 226.354C395.405 226.008 395.441 225.649 395.577 225.324C395.713 224.998 395.943 224.72 396.237 224.525C396.531 224.331 396.877 224.228 397.229 224.23C397.698 224.232 398.147 224.419 398.478 224.751C398.809 225.082 398.997 225.531 398.999 226Z" fill="#263238"/>
<path d="M398.999 231.19C399.001 231.543 398.898 231.888 398.704 232.183C398.509 232.477 398.231 232.707 397.905 232.843C397.58 232.978 397.221 233.015 396.875 232.946C396.528 232.878 396.21 232.708 395.961 232.459C395.711 232.209 395.542 231.891 395.473 231.545C395.405 231.199 395.441 230.84 395.577 230.514C395.713 230.188 395.943 229.911 396.237 229.716C396.531 229.521 396.877 229.418 397.229 229.42C397.699 229.42 398.149 229.606 398.481 229.938C398.813 230.27 398.999 230.721 398.999 231.19Z" fill="#263238"/>
<path d="M253.321 226.86C253.213 226.862 253.107 226.827 253.021 226.76L248.331 223.32C248.267 223.273 248.215 223.211 248.178 223.14C248.142 223.069 248.122 222.99 248.121 222.91C248.121 222.832 248.141 222.754 248.177 222.685C248.214 222.615 248.267 222.555 248.331 222.51L253.021 219.13C253.075 219.092 253.136 219.064 253.2 219.05C253.264 219.035 253.331 219.033 253.396 219.044C253.461 219.055 253.523 219.079 253.579 219.115C253.635 219.15 253.683 219.196 253.721 219.25C253.796 219.357 253.827 219.489 253.807 219.618C253.786 219.747 253.716 219.862 253.611 219.94L249.471 222.94L253.611 225.94C253.717 226.02 253.787 226.137 253.808 226.268C253.828 226.399 253.797 226.532 253.721 226.64C253.677 226.707 253.618 226.761 253.548 226.8C253.479 226.838 253.401 226.859 253.321 226.86Z" fill="#263238"/>
<path d="M375.709 395C388.097 395 398.139 384.98 398.139 372.62C398.139 360.26 388.097 350.24 375.709 350.24C363.322 350.24 353.279 360.26 353.279 372.62C353.279 384.98 363.322 395 375.709 395Z" fill="#E0E0E0"/>
<path d="M381.849 385.85H370.049C369.646 385.85 369.26 385.69 368.974 385.405C368.689 385.12 368.529 384.733 368.529 384.33C368.529 383.926 368.689 383.538 368.974 383.251C369.259 382.965 369.645 382.802 370.049 382.8H381.849C382.253 382.802 382.64 382.965 382.925 383.251C383.209 383.538 383.369 383.926 383.369 384.33C383.369 384.733 383.209 385.12 382.924 385.405C382.639 385.69 382.252 385.85 381.849 385.85Z" fill="#263238"/>
<path d="M376.62 358.07H375.58V363.31H376.62V358.07Z" fill="#263238"/>
<path d="M360.81 379.02C362.488 379.02 363.85 377.659 363.85 375.98C363.85 374.301 362.488 372.94 360.81 372.94C359.131 372.94 357.77 374.301 357.77 375.98C357.77 377.659 359.131 379.02 360.81 379.02Z" fill="#FF725E"/>
<path d="M391.55 378.82C393.229 378.82 394.59 377.459 394.59 375.78C394.59 374.101 393.229 372.74 391.55 372.74C389.871 372.74 388.51 374.101 388.51 375.78C388.51 377.459 389.871 378.82 391.55 378.82Z" fill="#FF725E"/>
<path d="M376.551 362.21C376.551 362.21 388.931 362.06 390.891 372.79C392.851 383.52 382.381 383.71 379.371 383.91C378.011 384 375.091 384.01 372.511 383.97C366.801 383.87 362.771 382.77 361.401 377.47C361.237 376.848 361.133 376.212 361.091 375.57C360.731 369.77 364.651 361.93 376.551 362.21Z" fill="#FF725E"/>
<path d="M367.57 378.54L385.57 378.82C386.475 378.833 387.349 378.487 387.999 377.857C388.65 377.227 389.024 376.365 389.04 375.46C389.05 374.554 388.701 373.682 388.07 373.033C387.438 372.385 386.575 372.013 385.67 372L367.67 371.72C367.221 371.712 366.775 371.793 366.358 371.957C365.94 372.122 365.559 372.367 365.237 372.679C364.915 372.992 364.657 373.364 364.479 373.776C364.301 374.188 364.206 374.631 364.2 375.08C364.193 375.528 364.275 375.974 364.441 376.391C364.607 376.808 364.853 377.188 365.166 377.509C365.479 377.831 365.853 378.087 366.265 378.264C366.678 378.441 367.121 378.535 367.57 378.54Z" fill="#263238"/>
<path d="M381.831 375.09C381.857 375.231 381.912 375.366 381.99 375.487C382.069 375.607 382.171 375.711 382.29 375.792C382.409 375.873 382.543 375.929 382.684 375.958C382.825 375.987 382.97 375.988 383.111 375.96C383.263 375.945 383.411 375.898 383.544 375.822C383.677 375.747 383.793 375.644 383.884 375.521C383.975 375.398 384.04 375.258 384.073 375.109C384.107 374.96 384.109 374.805 384.08 374.655C384.051 374.505 383.99 374.362 383.903 374.237C383.815 374.111 383.703 374.005 383.572 373.926C383.441 373.846 383.295 373.795 383.144 373.775C382.992 373.755 382.838 373.767 382.691 373.81C382.551 373.838 382.417 373.893 382.297 373.972C382.178 374.051 382.076 374.153 381.996 374.272C381.916 374.391 381.86 374.524 381.832 374.665C381.804 374.805 381.803 374.95 381.831 375.09Z" fill="white"/>
<path d="M369.259 374.89C369.275 375.042 369.322 375.19 369.397 375.323C369.473 375.456 369.575 375.572 369.698 375.663C369.821 375.754 369.962 375.819 370.111 375.853C370.26 375.886 370.415 375.889 370.565 375.859C370.715 375.83 370.857 375.77 370.983 375.682C371.108 375.595 371.214 375.482 371.294 375.351C371.373 375.22 371.425 375.075 371.445 374.923C371.464 374.771 371.453 374.617 371.409 374.47C371.332 374.207 371.16 373.982 370.925 373.84C370.691 373.697 370.412 373.648 370.143 373.7C369.874 373.753 369.634 373.904 369.471 374.124C369.307 374.344 369.232 374.617 369.259 374.89Z" fill="white"/>
<path d="M377.811 358C377.813 358.338 377.714 358.67 377.527 358.953C377.341 359.235 377.074 359.456 376.762 359.587C376.45 359.718 376.106 359.753 375.773 359.688C375.441 359.623 375.135 359.461 374.895 359.222C374.655 358.984 374.491 358.679 374.424 358.347C374.357 358.015 374.391 357.671 374.52 357.358C374.649 357.045 374.868 356.777 375.15 356.589C375.431 356.4 375.762 356.3 376.101 356.3C376.552 356.3 376.986 356.479 377.306 356.797C377.627 357.116 377.808 357.548 377.811 358Z" fill="#FF725E"/>
<path d="M378.68 374.59C378.68 374.59 378.75 374.67 378.79 374.85C378.822 375.105 378.798 375.364 378.72 375.61C378.611 375.99 378.404 376.334 378.12 376.61C377.774 376.956 377.318 377.172 376.83 377.22C376.343 377.26 375.856 377.133 375.45 376.86C375.129 376.642 374.865 376.351 374.68 376.01C374.562 375.78 374.494 375.528 374.48 375.27C374.48 375.09 374.48 374.99 374.54 374.99C374.6 374.99 374.64 375.37 374.97 375.84C375.163 376.1 375.404 376.321 375.68 376.49C376.015 376.689 376.403 376.779 376.79 376.75C377.163 376.702 377.512 376.542 377.79 376.29C378.042 376.081 378.244 375.818 378.38 375.52C378.64 375 378.6 374.59 378.68 374.59Z" fill="white"/>
<path d="M390.87 372.44C390.907 372.524 390.937 372.611 390.96 372.7C390.999 372.805 391.032 372.912 391.06 373.02C391.06 373.14 391.13 373.28 391.16 373.45C391.236 373.823 391.289 374.2 391.32 374.58C391.354 375.046 391.354 375.514 391.32 375.98C391.278 376.445 391.201 376.906 391.09 377.36C390.995 377.728 390.875 378.089 390.73 378.44C390.68 378.579 390.623 378.716 390.56 378.85C390.516 378.95 390.466 379.047 390.41 379.14L390.27 379.39C390.292 379.298 390.329 379.21 390.38 379.13L390.51 378.82C390.56 378.7 390.62 378.57 390.67 378.42C390.804 378.068 390.914 377.707 391 377.34C391.106 376.889 391.183 376.431 391.23 375.97C391.259 375.507 391.259 375.043 391.23 374.58C391.205 374.204 391.158 373.83 391.09 373.46C391.069 373.305 391.039 373.151 391 373C391 372.87 390.95 372.77 390.93 372.68C390.899 372.603 390.879 372.522 390.87 372.44Z" fill="#263238"/>
<path d="M361.541 372.5C361.498 372.586 361.464 372.677 361.441 372.77C361.441 372.85 361.381 372.96 361.341 373.08C361.301 373.2 361.271 373.35 361.241 373.51C361.164 373.883 361.114 374.26 361.091 374.64C361.056 375.106 361.056 375.574 361.091 376.04C361.131 376.505 361.208 376.967 361.321 377.42C361.413 377.792 361.534 378.156 361.681 378.51C361.731 378.66 361.801 378.79 361.851 378.91C361.901 379.03 361.961 379.13 362.001 379.21L362.141 379.45C362.114 379.359 362.077 379.272 362.031 379.19C362.031 379.11 361.951 379.01 361.901 378.89C361.851 378.77 361.791 378.64 361.741 378.49C361.606 378.134 361.496 377.77 361.411 377.4C361.303 376.949 361.226 376.491 361.181 376.03C361.151 375.57 361.151 375.11 361.181 374.65C361.206 374.271 361.252 373.894 361.321 373.52C361.342 373.378 361.372 373.238 361.411 373.1C361.411 372.97 361.461 372.86 361.481 372.78C361.501 372.7 361.541 372.5 361.541 372.5Z" fill="#263238"/>
<path d="M364.211 391.84C364.211 391.84 367.891 388.25 375.581 388.25C383.271 388.25 387.211 391.84 387.211 391.84C383.74 393.934 379.764 395.041 375.711 395.041C371.658 395.041 367.681 393.934 364.211 391.84Z" fill="#FF725E"/>
<path d="M253.001 395.44H329.441C330.343 395.441 331.237 395.265 332.071 394.92C332.906 394.575 333.663 394.069 334.302 393.431C334.94 392.793 335.446 392.035 335.791 391.201C336.135 390.367 336.312 389.473 336.311 388.57V366.39L344.741 358.91H253.001C252.099 358.91 251.205 359.088 250.372 359.433C249.538 359.778 248.781 360.284 248.143 360.922C247.505 361.56 246.999 362.318 246.654 363.151C246.309 363.985 246.131 364.878 246.131 365.78V388.57C246.13 389.473 246.306 390.367 246.651 391.201C246.996 392.035 247.502 392.793 248.14 393.431C248.778 394.069 249.536 394.575 250.37 394.92C251.204 395.265 252.098 395.441 253.001 395.44Z" fill="#EBEBEB"/>
<path d="M326 369.75C326 369.9 310.26 370.01 290.84 370.01C271.42 370.01 255.68 369.9 255.68 369.75C255.68 369.6 271.42 369.49 290.84 369.49C310.26 369.49 326 369.61 326 369.75Z" fill="white"/>
<path d="M326 375.69C326 375.84 310.26 375.95 290.84 375.95C271.42 375.95 255.68 375.84 255.68 375.69C255.68 375.54 271.42 375.43 290.84 375.43C310.26 375.43 326 375.55 326 375.69Z" fill="white"/>
<path d="M326 381.63C326 381.77 310.26 381.89 290.84 381.89C271.42 381.89 255.68 381.77 255.68 381.63C255.68 381.49 271.42 381.37 290.84 381.37C310.26 381.37 326 381.49 326 381.63Z" fill="white"/>
<path d="M326 387.57C326 387.71 310.26 387.83 290.84 387.83C271.42 387.83 255.68 387.71 255.68 387.57C255.68 387.43 271.42 387.31 290.84 387.31C310.26 387.31 326 387.42 326 387.57Z" fill="white"/>
<path d="M375.709 519.28C388.097 519.28 398.139 509.26 398.139 496.9C398.139 484.54 388.097 474.52 375.709 474.52C363.322 474.52 353.279 484.54 353.279 496.9C353.279 509.26 363.322 519.28 375.709 519.28Z" fill="#E0E0E0"/>
<path d="M381.849 510.13H370.049C369.849 510.13 369.65 510.09 369.465 510.013C369.28 509.936 369.112 509.823 368.971 509.681C368.83 509.539 368.718 509.37 368.642 509.185C368.566 508.999 368.528 508.8 368.529 508.6C368.529 508.197 368.689 507.81 368.975 507.525C369.26 507.24 369.646 507.08 370.049 507.08H381.849C382.252 507.08 382.639 507.24 382.924 507.525C383.209 507.81 383.369 508.197 383.369 508.6C383.371 508.8 383.332 508.999 383.257 509.185C383.181 509.37 383.069 509.539 382.928 509.681C382.786 509.823 382.618 509.936 382.433 510.013C382.248 510.09 382.05 510.13 381.849 510.13Z" fill="#263238"/>
<path d="M376.62 482.35H375.58V487.59H376.62V482.35Z" fill="#263238"/>
<path d="M360.81 503.3C362.488 503.3 363.85 501.939 363.85 500.26C363.85 498.581 362.488 497.22 360.81 497.22C359.131 497.22 357.77 498.581 357.77 500.26C357.77 501.939 359.131 503.3 360.81 503.3Z" fill="#FF725E"/>
<path d="M391.55 503.09C393.229 503.09 394.59 501.729 394.59 500.05C394.59 498.371 393.229 497.01 391.55 497.01C389.871 497.01 388.51 498.371 388.51 500.05C388.51 501.729 389.871 503.09 391.55 503.09Z" fill="#FF725E"/>
<path d="M376.551 486.49C376.551 486.49 388.931 486.34 390.891 497.06C392.851 507.78 382.381 507.99 379.371 508.19C378.011 508.28 375.091 508.29 372.511 508.25C366.801 508.15 362.771 507.04 361.401 501.75C361.237 501.128 361.133 500.492 361.091 499.85C360.731 494.05 364.651 486.2 376.551 486.49Z" fill="#FF725E"/>
<path d="M367.57 502.82L385.57 503.1C386.475 503.113 387.349 502.767 387.999 502.137C388.65 501.507 389.024 500.645 389.04 499.74C389.05 498.835 388.701 497.962 388.07 497.313C387.438 496.665 386.575 496.293 385.67 496.28L367.67 495.99C366.764 495.977 365.89 496.323 365.24 496.953C364.59 497.582 364.215 498.445 364.2 499.35C364.193 499.799 364.275 500.245 364.441 500.663C364.606 501.08 364.853 501.461 365.166 501.783C365.479 502.105 365.852 502.363 366.265 502.541C366.677 502.718 367.12 502.813 367.57 502.82Z" fill="#263238"/>
<path d="M381.831 499.37C381.855 499.512 381.907 499.649 381.984 499.771C382.061 499.893 382.162 499.999 382.28 500.083C382.398 500.166 382.531 500.226 382.672 500.258C382.813 500.29 382.959 500.294 383.101 500.27C383.244 500.245 383.38 500.193 383.502 500.116C383.625 500.039 383.731 499.939 383.814 499.821C383.898 499.703 383.957 499.57 383.989 499.429C384.021 499.288 384.025 499.142 384.001 499C383.986 498.848 383.939 498.7 383.863 498.567C383.788 498.434 383.685 498.318 383.562 498.227C383.439 498.136 383.299 498.071 383.15 498.037C383.001 498.004 382.846 498.001 382.696 498.031C382.546 498.06 382.403 498.12 382.278 498.208C382.152 498.295 382.046 498.408 381.967 498.539C381.887 498.669 381.836 498.815 381.816 498.967C381.796 499.119 381.808 499.273 381.851 499.42L381.831 499.37Z" fill="white"/>
<path d="M369.261 499.17C369.302 499.383 369.406 499.58 369.559 499.734C369.712 499.889 369.908 499.994 370.121 500.038C370.334 500.081 370.556 500.06 370.757 499.978C370.958 499.895 371.131 499.755 371.252 499.575C371.374 499.394 371.439 499.182 371.44 498.964C371.441 498.747 371.378 498.534 371.258 498.353C371.137 498.171 370.966 498.029 370.766 497.945C370.565 497.861 370.344 497.838 370.131 497.88C369.989 497.907 369.854 497.963 369.733 498.042C369.613 498.122 369.509 498.225 369.428 498.345C369.347 498.464 369.291 498.599 369.262 498.74C369.233 498.882 369.233 499.028 369.261 499.17Z" fill="white"/>
<path d="M377.811 482.24C377.811 482.578 377.71 482.909 377.522 483.19C377.335 483.471 377.067 483.69 376.755 483.82C376.443 483.949 376.099 483.983 375.767 483.917C375.435 483.851 375.131 483.688 374.891 483.449C374.652 483.21 374.489 482.905 374.423 482.573C374.357 482.242 374.391 481.898 374.521 481.585C374.65 481.273 374.869 481.006 375.151 480.818C375.432 480.63 375.762 480.53 376.101 480.53C376.554 480.53 376.989 480.71 377.31 481.031C377.63 481.351 377.811 481.786 377.811 482.24Z" fill="#FF725E"/>
<path d="M378.68 498.86C378.68 498.86 378.75 498.95 378.79 499.13C378.821 499.385 378.798 499.644 378.72 499.89C378.608 500.269 378.402 500.613 378.12 500.89C377.774 501.236 377.318 501.452 376.83 501.5C376.343 501.54 375.856 501.413 375.45 501.14C375.129 500.922 374.865 500.631 374.68 500.29C374.563 500.06 374.495 499.808 374.48 499.55C374.48 499.37 374.48 499.27 374.54 499.27C374.6 499.27 374.64 499.65 374.97 500.11C375.16 500.376 375.401 500.6 375.68 500.77C376.017 500.962 376.403 501.053 376.79 501.03C377.163 500.982 377.512 500.822 377.79 500.57C378.038 500.357 378.239 500.094 378.38 499.8C378.64 499.26 378.6 498.87 378.68 498.86Z" fill="white"/>
<path d="M390.87 496.71C390.87 496.71 390.87 496.81 390.96 496.98C391 497.084 391.033 497.191 391.06 497.3C391.06 497.42 391.13 497.56 391.16 497.72C391.235 498.093 391.288 498.471 391.32 498.85C391.354 499.316 391.354 499.784 391.32 500.25C391.28 500.715 391.203 501.177 391.09 501.63C390.997 502.002 390.876 502.366 390.73 502.72C390.68 502.856 390.623 502.99 390.56 503.12C390.518 503.224 390.468 503.324 390.41 503.42L390.27 503.66C390.296 503.569 390.333 503.482 390.38 503.4C390.38 503.32 390.46 503.22 390.51 503.1C390.56 502.98 390.62 502.85 390.67 502.7C390.805 502.345 390.916 501.981 391 501.61C391.107 501.162 391.184 500.708 391.23 500.25C391.259 499.787 391.259 499.323 391.23 498.86C391.205 498.484 391.158 498.11 391.09 497.74C391.068 497.595 391.038 497.451 391 497.31C391 497.18 390.95 497.08 390.93 496.99C390.895 496.9 390.875 496.806 390.87 496.71Z" fill="#263238"/>
<path d="M361.541 496.78C361.498 496.866 361.464 496.956 361.441 497.05C361.441 497.13 361.381 497.24 361.341 497.36C361.301 497.48 361.271 497.63 361.241 497.79C361.164 498.162 361.114 498.54 361.091 498.92C361.056 499.386 361.056 499.854 361.091 500.32C361.131 500.785 361.208 501.246 361.321 501.7C361.413 502.072 361.534 502.436 361.681 502.79C361.731 502.94 361.801 503.07 361.851 503.19C361.901 503.31 361.961 503.41 362.001 503.49L362.141 503.73C362.116 503.638 362.079 503.551 362.031 503.47C362.031 503.39 361.951 503.29 361.901 503.17C361.851 503.05 361.791 502.92 361.741 502.76C361.606 502.408 361.496 502.047 361.411 501.68C361.303 501.229 361.226 500.771 361.181 500.31C361.151 499.85 361.151 499.389 361.181 498.93C361.206 498.551 361.252 498.173 361.321 497.8C361.342 497.658 361.372 497.518 361.411 497.38C361.411 497.25 361.461 497.14 361.481 497.06C361.501 496.98 361.541 496.78 361.541 496.78Z" fill="#263238"/>
<path d="M364.211 516.12C364.211 516.12 367.891 512.53 375.581 512.53C383.271 512.53 387.211 516.12 387.211 516.12C383.74 518.214 379.764 519.32 375.711 519.32C371.658 519.32 367.681 518.214 364.211 516.12Z" fill="#FF725E"/>
<path d="M253.001 519.72H329.441C330.343 519.721 331.237 519.544 332.071 519.2C332.906 518.855 333.663 518.349 334.302 517.711C334.94 517.072 335.446 516.315 335.791 515.481C336.135 514.646 336.312 513.752 336.311 512.85V490.67L344.741 483.19H253.001C252.099 483.19 251.205 483.368 250.372 483.713C249.538 484.058 248.781 484.564 248.143 485.202C247.505 485.84 246.999 486.597 246.654 487.431C246.309 488.264 246.131 489.158 246.131 490.06V512.85C246.13 513.752 246.306 514.646 246.651 515.481C246.996 516.315 247.502 517.072 248.14 517.711C248.778 518.349 249.536 518.855 250.37 519.2C251.204 519.544 252.098 519.721 253.001 519.72Z" fill="#EBEBEB"/>
<path d="M253.001 554.41H329.441C330.344 554.41 331.238 554.232 332.072 553.886C332.906 553.54 333.664 553.033 334.302 552.394C334.94 551.755 335.446 550.997 335.791 550.162C336.135 549.327 336.312 548.433 336.311 547.53V540.18L344.741 532.7H253.001C252.099 532.7 251.205 532.878 250.372 533.223C249.538 533.568 248.781 534.074 248.143 534.712C247.505 535.35 246.999 536.107 246.654 536.941C246.309 537.774 246.131 538.668 246.131 539.57V547.57C246.139 549.387 246.866 551.126 248.154 552.408C249.441 553.69 251.184 554.41 253.001 554.41Z" fill="#EBEBEB"/>
<path d="M326 494C326 494.15 310.26 494.26 290.84 494.26C271.42 494.26 255.68 494.15 255.68 494C255.68 493.85 271.42 493.74 290.84 493.74C310.26 493.74 326 493.89 326 494Z" fill="white"/>
<path d="M326 500C326 500.14 310.26 500.26 290.84 500.26C271.42 500.26 255.68 500.14 255.68 500C255.68 499.86 271.42 499.74 290.84 499.74C310.26 499.74 326 499.83 326 500Z" fill="white"/>
<path d="M326 505.91C326 506.05 310.26 506.17 290.84 506.17C271.42 506.17 255.68 506.05 255.68 505.91C255.68 505.77 271.42 505.65 290.84 505.65C310.26 505.65 326 505.76 326 505.91Z" fill="white"/>
<path d="M326 511.85C326 511.99 310.26 512.11 290.84 512.11C271.42 512.11 255.68 511.99 255.68 511.85C255.68 511.71 271.42 511.59 290.84 511.59C310.26 511.59 326 511.7 326 511.85Z" fill="white"/>
<path d="M326.24 543.87C326.24 544.01 310.66 544.13 291.45 544.13C272.24 544.13 256.65 544.01 256.65 543.87C256.65 543.73 272.23 543.61 291.45 543.61C310.67 543.61 326.24 543.72 326.24 543.87Z" fill="white"/>
<path d="M70.4399 529.39C71.7868 529.715 73.0542 530.308 74.1661 531.134C75.2779 531.961 76.2112 533.004 76.9099 534.2C78.2921 536.609 79.1093 539.3 79.2999 542.07C79.8099 547.39 77.9599 553.26 75.6599 558.07C70.4699 555.17 68.0599 548.72 67.0399 545.37C65.4299 540.08 65.7299 529.53 70.4399 529.37" fill="#455A64"/>
<path d="M82.5589 565.59C81.9392 564.173 81.7053 562.617 81.8809 561.08C82.0566 559.544 82.6355 558.081 83.5589 556.84C84.5094 555.619 85.6942 554.599 87.044 553.842C88.3937 553.085 89.8811 552.605 91.4189 552.43C92.1091 552.281 92.8233 552.281 93.5133 552.431C94.2033 552.581 94.8531 552.878 95.4189 553.3C95.8788 553.788 96.1994 554.391 96.3471 555.045C96.4949 555.7 96.4644 556.382 96.2589 557.02C95.8341 558.292 95.0823 559.43 94.0789 560.32C90.7889 563.5 87.0189 565.97 82.4589 565.59" fill="#455A64"/>
<path d="M80.3189 582.72C80.2598 582.357 80.2364 581.988 80.2489 581.62C80.2489 580.84 80.2489 579.83 80.1689 578.62C79.9652 575.304 80.3029 571.977 81.1689 568.77C82.0986 565.554 83.8695 562.644 86.2989 560.34C87.0428 559.655 87.8652 559.061 88.7489 558.57C88.9847 558.435 89.2285 558.315 89.4789 558.21C89.5616 558.16 89.6533 558.126 89.7489 558.11C88.5842 558.81 87.4921 559.624 86.4889 560.54C84.1416 562.851 82.4209 565.721 81.4889 568.88C80.6284 572.052 80.2475 575.335 80.3589 578.62C80.3589 579.89 80.3589 580.91 80.3589 581.62C80.3725 581.987 80.3591 582.355 80.3189 582.72Z" fill="#263238"/>
<path d="M70.9192 537.45C70.9832 537.595 71.0335 537.746 71.0693 537.9C71.1693 538.24 71.2893 538.68 71.4293 539.22C71.7393 540.37 72.1692 542.04 72.6692 544.11C73.6692 548.25 75.0093 553.99 76.3293 560.35C77.6493 566.71 78.7092 572.51 79.4192 576.71C79.7692 578.81 80.0393 580.51 80.2193 581.71C80.2993 582.27 80.3593 582.71 80.4093 583.07C80.4252 583.23 80.4252 583.391 80.4093 583.55C80.3575 583.397 80.3174 583.24 80.2893 583.08C80.2193 582.73 80.1393 582.29 80.0293 581.73C79.7993 580.52 79.4893 578.83 79.1093 576.78C78.3293 572.59 77.2293 566.78 75.9093 560.45C74.5893 554.12 73.3093 548.35 72.3693 544.2C71.8993 542.2 71.5193 540.49 71.2493 539.28C71.1293 538.73 71.0293 538.28 70.9593 537.94C70.927 537.779 70.9135 537.615 70.9192 537.45Z" fill="#263238"/>
<path d="M75.6597 570.36C74.4571 567.33 72.5515 564.629 70.0999 562.48C67.6484 560.331 64.7212 558.796 61.5597 558C59.9497 557.61 57.9497 557.56 56.9697 558.9C55.9897 560.24 56.6797 562.14 57.5897 563.53C59.5352 566.388 62.2811 568.608 65.4832 569.912C68.6853 571.216 72.201 571.546 75.5897 570.86" fill="#455A64"/>
<path d="M63.3188 562.73C63.6574 562.772 63.9919 562.843 64.3188 562.94C64.7146 563.033 65.1052 563.146 65.4888 563.28C65.9288 563.44 66.4888 563.58 66.9988 563.83C67.5088 564.08 68.1588 564.32 68.7688 564.66C69.4385 565 70.0864 565.38 70.7088 565.8C72.1426 566.751 73.4613 567.866 74.6388 569.12C75.7934 570.392 76.7999 571.791 77.6388 573.29C78.0084 573.938 78.3423 574.606 78.6388 575.29C78.8949 575.891 79.1186 576.505 79.3088 577.13C79.5088 577.69 79.5888 578.23 79.7088 578.69C79.8046 579.086 79.878 579.486 79.9288 579.89C79.9901 580.22 80.0235 580.555 80.0288 580.89C79.9388 580.89 79.7788 579.43 79.0288 577.18C78.8308 576.572 78.6005 575.974 78.3388 575.39C78.0423 574.706 77.7084 574.038 77.3388 573.39C76.4906 571.925 75.4846 570.557 74.3388 569.31C73.1768 568.083 71.8898 566.98 70.4988 566.02C69.8388 565.6 69.2188 565.19 68.5988 564.88C68.0386 564.562 67.461 564.274 66.8688 564.02C64.7388 563.14 63.2888 562.81 63.3188 562.73Z" fill="#263238"/>
<path d="M95.1002 269.7L91.4002 258.15C96.6628 249.61 98.5407 239.411 96.6648 229.557C94.7889 219.702 89.2948 210.906 81.2626 204.897C73.2304 198.889 63.241 196.101 53.2581 197.084C43.2752 198.066 34.0209 202.748 27.3142 210.207C20.6076 217.667 16.9338 227.365 17.015 237.396C17.0962 247.427 20.9265 257.064 27.753 264.414C34.5795 271.764 43.9084 276.295 53.9059 277.116C63.9034 277.937 73.8463 274.988 81.7802 268.85L95.1002 269.7Z" fill="#FAFAFA"/>
<path d="M95.0996 269.7H94.2596L91.7196 269.57L81.7196 269.02C81.7042 269.02 81.6891 269.017 81.675 269.011C81.661 269.005 81.6484 268.996 81.638 268.985C81.6277 268.973 81.6198 268.96 81.6149 268.945C81.61 268.931 81.6082 268.915 81.6096 268.9C81.6052 268.88 81.6052 268.86 81.6096 268.84L81.7696 269C74.821 274.428 66.2763 277.412 57.4596 277.49C55.2328 277.478 53.0101 277.301 50.8096 276.96C40.585 275.36 31.3758 269.867 25.1096 261.63C21.6197 256.994 19.1614 251.665 17.8996 246C16.5283 239.978 16.5831 233.718 18.0596 227.72C18.2496 226.96 18.4496 226.19 18.6496 225.43C18.8496 224.67 19.1796 223.93 19.4396 223.18C19.6929 222.422 19.9867 221.677 20.3196 220.95C20.6596 220.23 21.0096 219.51 21.3196 218.78C21.6637 218.05 22.0579 217.345 22.4996 216.67L23.7696 214.59L25.2296 212.59L25.9696 211.59C26.2196 211.27 26.5096 210.98 26.7796 210.67C31.104 205.698 36.5899 201.871 42.7496 199.53C48.6135 197.296 54.9103 196.431 61.1596 197C67.0317 197.584 72.7029 199.455 77.7696 202.48C86.7737 207.828 93.3412 216.472 96.0796 226.58C96.6581 228.746 97.0726 230.952 97.3196 233.18C97.4797 235.263 97.5164 237.353 97.4296 239.44C97.0464 246.091 95.0043 252.541 91.4896 258.2V258.11C92.6696 261.87 93.5696 264.77 94.1896 266.75C94.4896 267.75 94.7096 268.44 94.8696 268.95L95.0896 269.69C95.0896 269.69 94.9896 269.42 94.8196 268.92L94.0896 266.71C93.4496 264.71 92.4996 261.89 91.2796 258.18C91.2688 258.151 91.2688 258.119 91.2796 258.09C94.7281 252.443 96.7178 246.027 97.0696 239.42C97.1463 237.353 97.0995 235.282 96.9296 233.22C96.6798 231.012 96.2619 228.825 95.6796 226.68C93.5347 218.899 89.0859 211.948 82.9177 206.742C76.7495 201.536 69.1506 198.318 61.1196 197.51C54.949 196.946 48.731 197.797 42.9396 200C36.8735 202.321 31.4715 206.099 27.2096 211C26.9496 211.31 26.6596 211.59 26.4096 211.91L25.6796 212.91L24.2396 214.84L22.9996 216.9C22.5596 217.573 22.1654 218.275 21.8196 219C21.4796 219.71 21.1396 220.43 20.8196 221.14C20.4933 221.857 20.2062 222.592 19.9596 223.34C19.6996 224.08 19.3896 224.81 19.1696 225.56C18.9496 226.31 18.7796 227.07 18.5896 227.82C17.1396 233.726 17.0779 239.887 18.4096 245.82C20.1423 253.612 24.1756 260.703 29.9865 266.175C35.7974 271.648 43.1181 275.248 50.9996 276.51C53.18 276.853 55.3825 277.036 57.5896 277.06C59.6497 277.051 61.7061 276.881 63.7396 276.55C70.2916 275.483 76.4764 272.806 81.7396 268.76C81.7498 268.749 81.7622 268.741 81.776 268.735C81.7897 268.729 81.8046 268.726 81.8196 268.726C81.8345 268.726 81.8494 268.729 81.8631 268.735C81.8769 268.741 81.8893 268.749 81.8996 268.76C81.9142 268.781 81.9221 268.805 81.9221 268.83C81.9221 268.855 81.9142 268.88 81.8996 268.9L81.8196 268.72L91.6996 269.4L94.2596 269.58L95.0996 269.7Z" fill="#263238"/>
<path d="M45.9388 237.14C45.9388 237.945 45.7001 238.732 45.2529 239.401C44.8057 240.071 44.17 240.592 43.4264 240.901C42.6827 241.209 41.8643 241.289 41.0748 241.132C40.2853 240.975 39.5601 240.587 38.9909 240.018C38.4217 239.449 38.0341 238.724 37.877 237.934C37.72 237.145 37.8006 236.326 38.1086 235.583C38.4167 234.839 38.9383 234.203 39.6077 233.756C40.277 233.309 41.0639 233.07 41.8688 233.07C42.9475 233.073 43.9811 233.503 44.7438 234.265C45.5065 235.028 45.9362 236.062 45.9388 237.14Z" fill="#263238"/>
<path d="M62.2396 237.14C62.2396 237.945 62.0009 238.732 61.5537 239.401C61.1065 240.071 60.4708 240.592 59.7271 240.901C58.9834 241.209 58.1651 241.289 57.3756 241.132C56.5861 240.975 55.8609 240.587 55.2917 240.018C54.7225 239.449 54.3349 238.724 54.1778 237.934C54.0208 237.145 54.1014 236.326 54.4094 235.583C54.7175 234.839 55.2391 234.203 55.9084 233.756C56.5777 233.309 57.3646 233.07 58.1696 233.07C59.2482 233.073 60.2819 233.503 61.0446 234.265C61.8073 235.028 62.237 236.062 62.2396 237.14Z" fill="#263238"/>
<path d="M78.4998 235.11C78.901 235.807 79.0867 236.608 79.0334 237.41C78.9801 238.213 78.6901 238.982 78.2002 239.619C77.7102 240.257 77.0422 240.736 76.2805 240.994C75.5188 241.253 74.6976 241.28 73.9206 241.072C73.1435 240.864 72.4455 240.431 71.9146 239.826C71.3838 239.222 71.0439 238.474 70.9379 237.677C70.8318 236.879 70.9645 236.069 71.319 235.346C71.6735 234.624 72.234 234.024 72.9298 233.62C73.3931 233.351 73.9049 233.176 74.4359 233.106C74.9669 233.035 75.5066 233.07 76.0241 233.209C76.5416 233.347 77.0266 233.586 77.4515 233.912C77.8763 234.239 78.2325 234.646 78.4998 235.11Z" fill="#263238"/>
<path d="M80.1188 417L37.9988 412.64L20.1588 372.15L6.29883 375.76C6.29883 375.76 16.5388 418.55 27.9988 425.18C39.4588 431.81 78.6088 433 78.6088 433L80.1188 417Z" fill="#FF725E"/>
<path d="M102.512 437.595C109.365 429.883 108.67 418.076 100.959 411.223C93.2478 404.369 81.4407 405.064 74.5872 412.776C67.7336 420.487 68.4289 432.294 76.1401 439.147C83.8513 446.001 95.6584 445.306 102.512 437.595Z" fill="#263238"/>
<path d="M88.5498 443.88C84.2212 443.88 80.0264 442.38 76.6803 439.633C73.3342 436.887 71.0438 433.066 70.1994 428.821C69.3549 424.575 70.0086 420.168 72.0492 416.351C74.0897 412.533 77.3908 409.541 81.3899 407.885C85.3891 406.228 89.8389 406.01 93.9811 407.266C98.1234 408.523 101.702 411.177 104.107 414.776C106.512 418.375 107.594 422.697 107.17 427.004C106.745 431.312 104.841 435.34 101.78 438.4C100.046 440.143 97.9846 441.525 95.7136 442.465C93.4427 443.406 91.0078 443.887 88.5498 443.88ZM88.5498 406.52C84.2328 406.516 80.0478 408.009 76.7078 410.744C73.3679 413.479 71.0796 417.288 70.233 421.521C69.3863 425.754 70.0336 430.15 72.0646 433.959C74.0956 437.769 77.3847 440.756 81.3713 442.412C85.3579 444.069 89.7956 444.292 93.928 443.043C98.0605 441.794 101.632 439.151 104.035 435.564C106.437 431.977 107.521 427.669 107.103 423.372C106.684 419.075 104.789 415.056 101.74 412C100.013 410.26 97.9578 408.88 95.6937 407.939C93.4296 406.999 91.0015 406.516 88.5498 406.52Z" fill="#263238"/>
<path d="M34.2246 428.379C41.7483 426.573 46.3832 419.009 44.5769 411.486C42.7706 403.962 35.2072 399.327 27.6835 401.133C20.1597 402.94 15.5248 410.503 17.3311 418.027C19.1374 425.55 26.7009 430.185 34.2246 428.379Z" fill="#263238"/>
<path d="M20.3145 375.424C24.786 370.953 24.786 363.703 20.3145 359.231C15.843 354.76 8.59327 354.76 4.12176 359.231C-0.349739 363.703 -0.349742 370.953 4.12176 375.424C8.59326 379.896 15.843 379.896 20.3145 375.424Z" fill="#263238"/>
<path d="M30.0637 361.131L20.6357 369.093L17.2355 365.066L26.6635 357.105C27.16 356.685 27.8026 356.481 28.4501 356.535C29.0976 356.59 29.6969 356.899 30.1161 357.396L30.3484 357.671C30.5575 357.916 30.7161 358.201 30.815 358.508C30.9139 358.815 30.9512 359.139 30.9247 359.46C30.8983 359.782 30.8086 360.095 30.6608 360.381C30.5131 360.668 30.3101 360.923 30.0637 361.131Z" fill="#263238"/>
<path d="M18.0898 346.55V358.55C18.0898 358.643 18.053 358.732 17.9873 358.798C17.9217 358.863 17.8327 358.9 17.7399 358.9H13.1799C13.087 358.9 12.998 358.863 12.9324 358.798C12.8667 358.732 12.8298 358.643 12.8298 358.55V346.55C12.8298 345.9 13.088 345.277 13.5474 344.818C14.0069 344.358 14.6301 344.1 15.2798 344.1H15.6398C16.2896 344.1 16.9128 344.358 17.3723 344.818C17.8317 345.277 18.0898 345.9 18.0898 346.55Z" fill="#263238"/>
<path d="M263.178 521.89L275.785 516.529L239.407 430.993L226.8 436.355L263.178 521.89Z" fill="#FF725E"/>
<path d="M241.213 439.167C247.882 431.295 246.907 419.508 239.035 412.839C231.163 406.171 219.376 407.146 212.707 415.018C206.039 422.889 207.014 434.677 214.886 441.345C222.757 448.014 234.545 447.039 241.213 439.167Z" fill="#263238"/>
<path d="M226.999 445.84C224.068 445.842 221.178 445.155 218.561 443.836C215.944 442.516 213.674 440.601 211.933 438.244C210.191 435.887 209.028 433.153 208.535 430.264C208.043 427.375 208.236 424.411 209.099 421.61C210.121 418.307 212.04 415.352 214.642 413.073C217.243 410.795 220.426 409.282 223.835 408.704C227.245 408.125 230.748 408.504 233.955 409.797C237.162 411.09 239.948 413.247 242.003 416.029C244.058 418.811 245.301 422.107 245.595 425.553C245.888 428.999 245.221 432.459 243.666 435.548C242.111 438.637 239.73 441.234 236.788 443.051C233.846 444.868 230.457 445.834 226.999 445.84ZM226.999 408.46C223.546 408.464 220.163 409.425 217.224 411.237C214.285 413.049 211.907 415.641 210.354 418.724C208.8 421.807 208.132 425.261 208.425 428.701C208.717 432.141 209.958 435.432 212.01 438.209C214.061 440.985 216.843 443.139 220.045 444.429C223.247 445.719 226.745 446.095 230.148 445.516C233.552 444.937 236.728 443.425 239.323 441.148C241.918 438.871 243.831 435.919 244.849 432.62C246.301 427.893 245.819 422.782 243.507 418.41C241.196 414.038 237.244 410.762 232.519 409.3C230.712 408.741 228.831 408.458 226.939 408.46H226.999Z" fill="#263238"/>
<path d="M264.783 482.944C266.855 475.489 262.491 467.766 255.036 465.694C247.581 463.623 239.858 467.987 237.786 475.442C235.715 482.897 240.079 490.62 247.534 492.691C254.989 494.763 262.712 490.399 264.783 482.944Z" fill="#263238"/>
<path d="M272.409 534.25C278.733 534.25 283.859 529.124 283.859 522.8C283.859 516.477 278.733 511.35 272.409 511.35C266.085 511.35 260.959 516.477 260.959 522.8C260.959 529.124 266.085 534.25 272.409 534.25Z" fill="#263238"/>
<path d="M257.433 534.331L263.845 523.811L268.345 526.554L261.933 537.074C261.595 537.629 261.05 538.026 260.419 538.18C259.788 538.333 259.121 538.229 258.566 537.891L258.259 537.704C257.983 537.537 257.742 537.317 257.551 537.057C257.36 536.797 257.222 536.502 257.146 536.189C257.069 535.876 257.055 535.55 257.104 535.231C257.154 534.913 257.265 534.607 257.433 534.331Z" fill="#263238"/>
<path d="M273.398 544.365L269.598 532.982C269.569 532.894 269.575 532.798 269.617 532.715C269.658 532.632 269.731 532.569 269.819 532.54L274.145 531.096C274.233 531.066 274.329 531.073 274.412 531.115C274.495 531.156 274.558 531.229 274.587 531.317L278.387 542.699C278.485 543.006 278.522 543.329 278.495 543.649C278.469 543.97 278.379 544.282 278.232 544.568C278.085 544.854 277.883 545.109 277.637 545.317C277.392 545.525 277.107 545.682 276.801 545.78L276.459 545.894C275.851 546.089 275.189 546.039 274.617 545.753C274.045 545.467 273.608 544.969 273.398 544.365Z" fill="#263238"/>
<path d="M281.447 541.637L275.254 531.359C275.23 531.319 275.214 531.276 275.207 531.23C275.2 531.185 275.203 531.138 275.214 531.094C275.225 531.049 275.244 531.007 275.272 530.97C275.299 530.933 275.333 530.902 275.373 530.878L279.278 528.525C279.318 528.501 279.361 528.485 279.407 528.479C279.452 528.472 279.499 528.474 279.543 528.485C279.588 528.496 279.63 528.516 279.667 528.543C279.704 528.57 279.735 528.605 279.759 528.644L285.952 538.922C286.287 539.479 286.388 540.146 286.231 540.777C286.075 541.407 285.674 541.95 285.118 542.285L284.809 542.471C284.253 542.807 283.586 542.907 282.955 542.751C282.325 542.594 281.782 542.194 281.447 541.637Z" fill="#263238"/>
<path d="M289.176 535.97L280.194 528.012C280.125 527.951 280.082 527.864 280.077 527.771C280.071 527.679 280.103 527.587 280.164 527.518L283.181 524.112C283.243 524.043 283.33 524.001 283.422 523.995C283.515 523.989 283.606 524.021 283.676 524.082L292.657 532.04C293.144 532.471 293.439 533.078 293.478 533.726C293.518 534.375 293.297 535.012 292.867 535.499L292.628 535.768C292.196 536.251 291.59 536.544 290.944 536.582C290.297 536.62 289.661 536.4 289.176 535.97Z" fill="#263238"/>
<path d="M83 405.74C83 405.74 84.35 536.88 157.94 539.44C231.53 542 234.62 406.68 234.62 405.74C234.62 405.74 225.93 386.19 158.81 386.95C91.69 387.71 83 405.74 83 405.74Z" fill="#FF725E"/>
<path d="M124.319 382.66H186.519C190.578 382.66 193.869 379.369 193.869 375.31V374.24C193.869 370.181 190.578 366.89 186.519 366.89H124.319C120.26 366.89 116.969 370.181 116.969 374.24V375.31C116.969 379.369 120.26 382.66 124.319 382.66Z" fill="#263238"/>
<path d="M152.739 266.05H158.109V238.9H152.739V266.05Z" fill="#263238"/>
<path d="M237.533 346.877C246.012 344.862 251.252 336.355 249.236 327.876C247.221 319.397 238.714 314.157 230.235 316.172C221.756 318.188 216.517 326.695 218.532 335.174C220.547 343.652 229.054 348.892 237.533 346.877Z" fill="#FF725E"/>
<path d="M78.0852 345.852C86.5844 343.925 91.9115 335.472 89.9837 326.973C88.0558 318.474 79.6031 313.146 71.1039 315.074C62.6048 317.002 57.2777 325.455 59.2055 333.954C61.1334 342.453 69.5861 347.78 78.0852 345.852Z" fill="#FF725E"/>
<path d="M152.3 260.16C152.3 260.16 88.1397 259.39 77.9997 315C67.8597 370.61 122.1 371.61 137.71 372.66C144.78 373.14 159.92 373.19 173.28 372.95C202.86 372.44 223.76 366.72 230.87 339.28C231.716 336.063 232.249 332.771 232.46 329.45C234.33 299.33 214 258.68 152.3 260.16Z" fill="#FF725E"/>
<path d="M198.84 344.8L105.63 346.25C103.304 346.291 100.993 345.873 98.829 345.02C96.6651 344.167 94.6907 342.895 93.0188 341.278C91.3468 339.661 90.0103 337.73 89.0855 335.596C88.1608 333.462 87.666 331.166 87.6295 328.84C87.5898 326.514 88.0091 324.203 88.8633 322.039C89.7175 319.875 90.99 317.901 92.6079 316.229C94.2258 314.557 96.1575 313.221 98.2923 312.296C100.427 311.371 102.723 310.877 105.05 310.84L198.26 309.39C200.586 309.348 202.897 309.765 205.062 310.618C207.226 311.47 209.201 312.742 210.873 314.359C212.545 315.976 213.882 317.908 214.806 320.043C215.731 322.178 216.224 324.474 216.26 326.8C216.301 329.127 215.882 331.438 215.028 333.603C214.175 335.767 212.902 337.742 211.284 339.414C209.666 341.086 207.734 342.423 205.598 343.347C203.463 344.271 201.166 344.765 198.84 344.8Z" fill="#9C9C9C"/>
<path d="M124.999 326.91C124.783 328.012 124.244 329.025 123.451 329.821C122.659 330.617 121.648 331.16 120.547 331.382C119.446 331.604 118.304 331.494 117.265 331.066C116.226 330.639 115.337 329.913 114.711 328.981C114.085 328.048 113.749 326.951 113.746 325.828C113.743 324.705 114.074 323.606 114.695 322.67C115.317 321.735 116.202 321.004 117.239 320.572C118.275 320.139 119.417 320.024 120.519 320.24C121.252 320.384 121.948 320.67 122.57 321.083C123.191 321.496 123.725 322.027 124.141 322.647C124.557 323.266 124.847 323.962 124.994 324.693C125.142 325.425 125.143 326.178 124.999 326.91Z" fill="white"/>
<path d="M190.089 325.87C189.874 326.973 189.337 327.988 188.545 328.785C187.753 329.583 186.743 330.127 185.642 330.35C184.54 330.574 183.397 330.465 182.358 330.038C181.318 329.612 180.428 328.886 179.801 327.954C179.174 327.021 178.837 325.924 178.834 324.8C178.831 323.676 179.161 322.577 179.783 321.641C180.404 320.705 181.29 319.974 182.327 319.541C183.364 319.109 184.506 318.993 185.609 319.21C187.086 319.5 188.387 320.365 189.227 321.613C190.067 322.862 190.377 324.393 190.089 325.87Z" fill="white"/>
<path d="M180.72 457.82C180.354 462.825 178.513 467.608 175.429 471.566C172.346 475.524 168.157 478.479 163.394 480.056C158.631 481.634 153.508 481.764 148.671 480.43C143.834 479.096 139.501 476.357 136.221 472.561C132.94 468.764 130.859 464.08 130.24 459.101C129.622 454.121 130.494 449.071 132.746 444.587C134.998 440.103 138.528 436.388 142.892 433.911C147.255 431.433 152.255 430.306 157.26 430.67C163.97 431.162 170.211 434.298 174.61 439.389C179.009 444.48 181.207 451.109 180.72 457.82Z" fill="#263238"/>
<path d="M173.849 457.32C173.582 460.968 172.239 464.454 169.991 467.338C167.743 470.222 164.69 472.375 161.218 473.524C157.746 474.674 154.012 474.767 150.486 473.794C146.961 472.821 143.804 470.824 141.414 468.056C139.024 465.288 137.508 461.874 137.058 458.244C136.609 454.615 137.245 450.934 138.888 447.666C140.53 444.399 143.105 441.692 146.286 439.888C149.467 438.084 153.111 437.263 156.759 437.53C159.181 437.706 161.544 438.358 163.714 439.448C165.884 440.538 167.818 442.045 169.405 443.883C170.992 445.721 172.202 447.854 172.964 450.16C173.727 452.465 174.027 454.899 173.849 457.32Z" fill="white"/>
<path d="M164.94 460.68C164.799 459.67 164.742 458.65 164.77 457.63C164.72 455.72 164.68 452.99 164.68 449.63L164.88 450L155.37 444.45H155.9L146.3 449.84C146.04 450.28 146.65 449.25 146.59 449.36V450.78V452.21C146.59 453.15 146.59 454.09 146.54 455.01C146.54 456.85 146.47 458.63 146.44 460.35L146.18 459.89L155.58 465.63H155.16C158.09 464.05 160.51 462.79 162.16 461.93C163.048 461.425 163.974 460.99 164.93 460.63C164.184 461.238 163.38 461.771 162.53 462.22C160.91 463.22 158.53 464.63 155.53 466.36L155.32 466.48L155.11 466.36L145.59 460.81L145.33 460.66V460.34C145.33 458.62 145.35 456.84 145.39 455C145.39 454.08 145.39 453.15 145.39 452.2V450.78V449.4C145.33 449.51 145.94 448.49 145.68 448.92L155.31 443.58L155.59 443.43L155.85 443.59L165.24 449.33L165.45 449.46V449.7C165.34 453.16 165.23 455.94 165.13 457.83C165.156 458.784 165.092 459.738 164.94 460.68Z" fill="#FF725E"/>
<path d="M161.688 244.608C165.144 241.152 165.144 235.548 161.688 232.092C158.232 228.636 152.628 228.636 149.172 232.092C145.716 235.548 145.716 241.152 149.172 244.608C152.628 248.064 158.232 248.064 161.688 244.608Z" fill="#FF725E"/>
<path d="M141.289 324.29C141.709 324.34 141.499 326.29 142.739 328.96C143.442 330.493 144.465 331.857 145.739 332.96C147.233 334.275 149.093 335.102 151.069 335.33C153.056 335.459 155.036 334.985 156.749 333.97C158.199 333.127 159.454 331.985 160.429 330.62C162.129 328.25 162.279 326.26 162.699 326.29C162.869 326.29 163.039 326.79 163.039 327.73C163.001 329.07 162.659 330.383 162.039 331.57C161.107 333.366 159.73 334.891 158.039 336C155.949 337.473 153.402 338.155 150.856 337.922C148.309 337.689 145.928 336.558 144.139 334.73C142.679 333.334 141.604 331.584 141.019 329.65C140.602 328.36 140.493 326.99 140.699 325.65C140.869 324.72 141.129 324.26 141.289 324.29Z" fill="white"/>
<path d="M226.719 350.2C226.619 350.2 227.769 348.4 228.879 345.25C230.259 341.125 231.133 336.847 231.479 332.51C231.879 328.189 231.98 323.845 231.779 319.51C231.709 317.84 231.629 316.51 231.549 315.51C231.481 315.027 231.465 314.537 231.499 314.05C231.627 314.521 231.711 315.004 231.749 315.49C231.889 316.42 232.029 317.77 232.149 319.49C232.463 323.86 232.412 328.249 231.999 332.61C231.647 336.987 230.716 341.298 229.229 345.43C228.758 346.677 228.19 347.884 227.529 349.04C227.293 349.449 227.022 349.838 226.719 350.2Z" fill="#263238"/>
<path d="M78.1194 313.14C78.0628 313.626 77.959 314.105 77.8094 314.57C77.6794 315.02 77.5394 315.57 77.4094 316.23C77.2794 316.89 77.0794 317.61 76.9594 318.44C76.6088 320.368 76.3751 322.314 76.2594 324.27C76.1249 326.663 76.1583 329.062 76.3594 331.45C76.5828 333.834 76.9704 336.2 77.5194 338.53C77.9785 340.437 78.5529 342.313 79.2394 344.15C79.5094 344.94 79.8194 345.63 80.0694 346.25C80.3194 346.87 80.5594 347.39 80.7594 347.81C80.9874 348.242 81.1749 348.694 81.3194 349.16C81.0348 348.764 80.7871 348.342 80.5794 347.9C80.2967 347.4 80.0397 346.886 79.8094 346.36C79.5294 345.76 79.1894 345.07 78.8994 344.28C78.157 342.448 77.5422 340.567 77.0594 338.65C76.4742 336.297 76.0664 333.904 75.8394 331.49C75.6356 329.078 75.6156 326.655 75.7794 324.24C75.9189 322.267 76.1929 320.306 76.5994 318.37C76.7494 317.54 76.9594 316.81 77.1294 316.16C77.2994 315.51 77.4594 314.96 77.6094 314.51C77.742 314.04 77.9126 313.582 78.1194 313.14Z" fill="#263238"/>
<path d="M82.6602 405.63L83.0402 405.74L84.1602 406.12L88.4202 407.62L91.5002 408.72C92.6302 409.1 93.8802 409.46 95.2102 409.87C97.8802 410.66 100.89 411.69 104.31 412.49L109.64 413.86C111.5 414.33 113.46 414.68 115.48 415.12C119.48 416.04 123.87 416.67 128.48 417.41C138.45 418.778 148.497 419.496 158.56 419.56C168.623 419.501 178.671 418.783 188.64 417.41C193.22 416.67 197.58 416.05 201.64 415.12C203.64 414.69 205.64 414.34 207.48 413.87L212.82 412.5C216.23 411.7 219.24 410.67 221.91 409.88C223.24 409.47 224.49 409.11 225.62 408.73L228.7 407.63L232.96 406.13L234.08 405.75C234.206 405.701 234.337 405.664 234.47 405.64L234.1 405.8L233 406.23L228.77 407.82L225.62 409C224.5 409.39 223.25 409.76 221.92 410.19C219.25 411.01 216.25 412.06 212.83 412.89L207.49 414.29C205.64 414.77 203.67 415.13 201.65 415.58C197.65 416.52 193.25 417.16 188.65 417.92C178.66 419.322 168.588 420.054 158.5 420.11C148.416 420.046 138.347 419.311 128.36 417.91C123.77 417.16 119.36 416.51 115.36 415.57C113.36 415.12 111.36 414.76 109.52 414.28L104.18 412.88C100.76 412.05 97.7601 411 95.0901 410.18C93.7601 409.75 92.5202 409.38 91.3902 408.99L88.3202 407.84L84.0901 406.25L82.9902 405.82C82.8744 405.768 82.7639 405.704 82.6602 405.63Z" fill="#263238"/>
<g opacity="0.3">
<path d="M83 405.74C83 405.74 91.69 387.74 158.81 386.95C225.93 386.16 234.62 405.74 234.62 405.74C234.62 405.74 166.88 439.13 83 405.74Z" fill="black"/>
</g>
<path d="M144.17 264.32C144.093 264.328 144.016 264.328 143.94 264.32L143.27 264.39C142.67 264.45 141.79 264.47 140.66 264.6C137.471 264.91 134.307 265.434 131.19 266.17C115.064 269.863 100.841 279.315 91.1897 292.75C86.5268 299.207 82.9965 306.41 80.7497 314.05C80.3997 315.13 80.2097 315.99 80.0397 316.56L79.8497 317.22C79.8317 317.296 79.8049 317.37 79.7697 317.44C79.7565 317.364 79.7565 317.286 79.7697 317.21C79.7697 317.03 79.8497 316.81 79.9097 316.54C80.0497 315.96 80.1997 315.09 80.5197 313.99C81.3544 310.884 82.4241 307.845 83.7197 304.9C87.9941 295.115 94.5013 286.468 102.72 279.65C110.973 272.884 120.696 268.145 131.11 265.81C134.246 265.098 137.432 264.626 140.64 264.4C141.78 264.3 142.64 264.31 143.26 264.28H143.94C144.1 264.3 144.17 264.31 144.17 264.32Z" fill="white"/>
<path d="M81.3994 341.3C80.9987 340.681 80.6888 340.007 80.4794 339.3C79.2932 335.958 78.7404 332.425 78.8494 328.88C78.8209 328.144 78.9086 327.409 79.1094 326.7C79.2694 326.7 79.0494 330.04 79.6894 334.08C80.3294 338.12 81.5494 341.24 81.3994 341.3Z" fill="white"/>
<path d="M64.5703 336.13C64.5703 336.13 64.3403 335.97 64.0303 335.59C63.5884 335.052 63.2093 334.465 62.9003 333.84C61.8324 331.773 61.4238 329.428 61.7296 327.122C62.0353 324.815 63.0407 322.658 64.6103 320.94C65.07 320.414 65.5903 319.944 66.1603 319.54C66.3561 319.375 66.5795 319.247 66.8203 319.16C66.8803 319.24 65.9803 319.85 64.8903 321.16C63.4597 322.873 62.5444 324.957 62.2506 327.17C61.9568 329.382 62.2965 331.633 63.2303 333.66C63.9303 335.25 64.6403 336.07 64.5703 336.13Z" fill="white"/>
<path d="M155.999 232.18C155.219 232.094 154.432 232.078 153.649 232.13C152.716 232.212 151.815 232.506 151.014 232.991C150.212 233.475 149.533 234.137 149.027 234.924C148.521 235.712 148.202 236.605 148.095 237.536C147.988 238.466 148.095 239.408 148.409 240.29C148.679 241.022 149.014 241.728 149.409 242.4C149.409 242.4 149.209 242.28 148.929 241.96C148.545 241.497 148.241 240.973 148.029 240.41C147.647 239.476 147.497 238.464 147.589 237.46C147.681 236.455 148.014 235.488 148.56 234.639C149.105 233.791 149.847 233.086 150.722 232.585C151.598 232.084 152.581 231.801 153.589 231.76C154.188 231.719 154.789 231.776 155.369 231.93C155.819 232 155.999 232.15 155.999 232.18Z" fill="white"/>
<path d="M243.159 324C243.049 324.12 241.499 322.63 239.159 321.51C236.819 320.39 234.689 320.06 234.709 319.9C236.339 319.86 237.951 320.253 239.379 321.04C240.882 321.669 242.188 322.692 243.159 324Z" fill="white"/>
<path d="M105.999 499.07C105.953 499.011 105.913 498.947 105.879 498.88L105.549 498.29C105.249 497.72 104.849 496.96 104.329 495.99C104.069 495.49 103.789 494.93 103.469 494.33L102.529 492.33C101.849 490.88 101.089 489.23 100.339 487.33C99.9589 486.4 99.5589 485.42 99.1389 484.41C98.7189 483.4 98.3589 482.3 97.9489 481.19C97.0889 478.98 96.3589 476.55 95.5089 474.03C93.9389 468.93 92.3989 463.28 91.0489 457.28C89.6989 451.28 88.7189 445.49 87.9189 440.22C87.1189 434.95 86.5989 430.22 86.2789 426.16C86.0889 424.16 85.9689 422.34 85.8689 420.74C85.7689 419.14 85.6789 417.74 85.6489 416.64C85.6189 415.54 85.5889 414.69 85.5589 414.05V413.38C85.5481 413.304 85.5481 413.227 85.5589 413.15C85.5704 413.227 85.5704 413.304 85.5589 413.38L85.6189 414.05C85.6189 414.68 85.7289 415.55 85.7989 416.63C85.8689 417.71 85.9689 419.13 86.1089 420.72C86.2489 422.31 86.3789 424.13 86.5989 426.13C86.9589 430.13 87.5989 434.89 88.3489 440.13C89.0989 445.37 90.1889 451.13 91.5089 457.13C92.8289 463.13 94.3789 468.77 95.9089 473.86C96.7589 476.38 97.4689 478.8 98.3089 481.01C98.7089 482.13 99.0889 483.2 99.4689 484.23L100.629 487.17C101.349 489.04 102.089 490.7 102.749 492.17L103.649 494.17C103.939 494.78 104.219 495.34 104.469 495.85L105.589 498.19L105.869 498.8C105.929 498.881 105.974 498.973 105.999 499.07Z" fill="white"/>
<path d="M66.8691 417.54C64.4293 417.633 61.9861 417.546 59.5591 417.28C57.1206 417.195 54.6913 416.938 52.2891 416.51C54.7288 416.418 57.172 416.505 59.5991 416.77C62.0375 416.855 64.467 417.112 66.8691 417.54Z" fill="white"/>
<path d="M29.2496 396.19C27.8313 394.124 26.5583 391.962 25.4396 389.72C24.1718 387.56 23.0558 385.315 22.0996 383C23.5136 385.07 24.7832 387.235 25.8996 389.48C27.1739 391.634 28.2934 393.877 29.2496 396.19Z" fill="white"/>
<path d="M141.499 530.6C141.106 530.593 140.714 530.546 140.329 530.46C139.271 530.272 138.226 530.018 137.199 529.7C135.674 529.236 134.184 528.665 132.739 527.99C130.98 527.142 129.288 526.159 127.679 525.05C126.089 523.914 124.591 522.653 123.199 521.28C122.072 520.151 121.03 518.942 120.079 517.66C119.428 516.805 118.837 515.907 118.309 514.97C118.093 514.642 117.916 514.289 117.779 513.92C117.859 513.87 118.699 515.32 120.369 517.44C121.351 518.673 122.41 519.842 123.539 520.94C126.307 523.63 129.483 525.864 132.949 527.56C134.365 528.244 135.821 528.842 137.309 529.35C139.869 530.21 141.519 530.5 141.499 530.6Z" fill="white"/>
<path d="M156.84 484.34C156.609 484.381 156.375 484.404 156.14 484.41C155.475 484.467 154.807 484.487 154.14 484.47C151.653 484.415 149.186 484.015 146.81 483.28C145.168 482.769 143.569 482.127 142.03 481.36C140.265 480.452 138.59 479.377 137.03 478.15C133.415 475.373 130.566 471.723 128.75 467.542C126.935 463.361 126.212 458.787 126.65 454.25C126.813 452.281 127.164 450.332 127.7 448.43C128.179 446.781 128.798 445.175 129.55 443.63C130.635 441.39 132.028 439.313 133.69 437.46C134.136 436.954 134.61 436.473 135.11 436.02C135.275 435.855 135.452 435.701 135.64 435.56C135.64 435.56 134.98 436.27 133.84 437.56C132.24 439.442 130.895 441.527 129.84 443.76C128.267 447.052 127.331 450.611 127.08 454.25C126.675 458.707 127.396 463.194 129.179 467.299C130.961 471.403 133.747 474.994 137.28 477.74C138.794 478.959 140.422 480.031 142.14 480.94C143.646 481.735 145.214 482.404 146.83 482.94C149.171 483.699 151.602 484.147 154.06 484.27C155.87 484.34 156.84 484.28 156.84 484.34Z" fill="white"/>
<path d="M35.7698 405.59C35.7698 405.67 34.9998 405.3 33.7698 405.01C32.1239 404.65 30.4178 404.667 28.7794 405.06C27.141 405.454 25.613 406.213 24.3098 407.28C23.3098 408.11 22.8298 408.77 22.7598 408.72C23.0342 408.059 23.4587 407.47 23.9998 407C25.2976 405.81 26.878 404.97 28.5911 404.56C30.3043 404.151 32.0937 404.185 33.7898 404.66C34.5126 404.814 35.1901 405.132 35.7698 405.59Z" fill="white"/>
<path d="M183.44 306.16C183.44 306.3 171.16 306.42 156.02 306.42C140.88 306.42 128.59 306.3 128.59 306.16C128.59 306.02 140.87 305.9 156.02 305.9C171.17 305.9 183.44 306 183.44 306.16Z" fill="white"/>
<path d="M136.64 368.69C136.49 368.732 136.335 368.756 136.18 368.76L134.84 368.88C134.26 368.93 133.55 368.97 132.72 368.99C131.89 369.01 130.95 369.05 129.91 368.99C127.82 368.99 125.34 368.84 122.59 368.55C119.614 368.204 116.659 367.693 113.74 367.02C110.827 366.321 107.956 365.46 105.14 364.44C102.845 363.6 100.595 362.642 98.3995 361.57C97.3995 361.13 96.6295 360.67 95.8995 360.28C95.1695 359.89 94.5495 359.54 94.0495 359.28L92.8995 358.58C92.7632 358.505 92.6357 358.414 92.5195 358.31C92.5195 358.31 92.6795 358.31 92.9495 358.49L94.1495 359.1C94.6595 359.38 95.2895 359.71 96.0295 360.1C96.7695 360.49 97.6095 360.89 98.5595 361.31C100.44 362.19 102.73 363.13 105.31 364.06C110.917 366.07 116.734 367.439 122.65 368.14C125.37 368.46 127.84 368.64 129.91 368.69C130.91 368.75 131.91 368.69 132.72 368.69C133.53 368.69 134.25 368.69 134.83 368.69H136.17C136.325 368.664 136.484 368.664 136.64 368.69Z" fill="white"/>
<path d="M216.47 413.75C216.396 413.799 216.315 413.836 216.23 413.86L215.51 414.13L212.73 415.13C211.52 415.57 210.04 416.08 208.29 416.59C206.54 417.1 204.57 417.76 202.34 418.32L198.86 419.24C197.65 419.55 196.37 419.81 195.06 420.12C192.44 420.75 189.6 421.25 186.62 421.82C173.64 424.081 160.449 424.889 147.29 424.23C144.29 424.04 141.38 423.89 138.7 423.58C137.36 423.44 136.06 423.34 134.82 423.17L131.25 422.68C128.97 422.41 126.93 422 125.14 421.68C123.35 421.36 121.8 421.06 120.55 420.77L117.67 420.13L116.92 419.95C116.833 419.936 116.749 419.909 116.67 419.87C116.76 419.863 116.85 419.863 116.94 419.87L117.69 420L120.59 420.55C121.85 420.8 123.39 421.09 125.19 421.36C126.99 421.63 129.02 422.02 131.3 422.27L134.86 422.72C136.1 422.88 137.4 422.97 138.74 423.1C141.41 423.39 144.29 423.52 147.31 423.7C153.36 423.95 160.01 423.96 166.99 423.55C173.97 423.14 180.56 422.27 186.53 421.29C189.53 420.74 192.35 420.29 194.97 419.65C196.28 419.35 197.56 419.1 198.77 418.8L202.25 417.91C204.48 417.38 206.45 416.76 208.2 416.26C209.95 415.76 211.45 415.26 212.66 414.89L215.47 413.99L216.21 413.77L216.47 413.75Z" fill="white"/>
</g>
<defs>
<clipPath id="clip0_714_2135">
<rect width="421" height="500" fill="white" transform="translate(14 118)"/>
</clipPath>
</defs>
</svg>
